<?xml version="1.0" encoding="utf-8" standalone="no"?>
<!DOCTYPE svg PUBLIC "-//W3C//DTD SVG 1.1//EN"
  "http://www.w3.org/Graphics/SVG/1.1/DTD/svg11.dtd">
<!-- Created with matplotlib (https://matplotlib.org/) -->
<svg height="648pt" version="1.1" viewBox="0 0 648 648" width="648pt" xmlns="http://www.w3.org/2000/svg" xmlns:xlink="http://www.w3.org/1999/xlink">
 <metadata>
  <rdf:RDF xmlns:cc="http://creativecommons.org/ns#" xmlns:dc="http://purl.org/dc/elements/1.1/" xmlns:rdf="http://www.w3.org/1999/02/22-rdf-syntax-ns#">
   <cc:Work>
    <dc:type rdf:resource="http://purl.org/dc/dcmitype/StillImage"/>
    <dc:date>2022-04-27T16:29:26.077590</dc:date>
    <dc:format>image/svg+xml</dc:format>
    <dc:creator>
     <cc:Agent>
      <dc:title>Matplotlib v3.3.4, https://matplotlib.org/</dc:title>
     </cc:Agent>
    </dc:creator>
   </cc:Work>
  </rdf:RDF>
 </metadata>
 <defs>
  <style type="text/css">*{stroke-linecap:butt;stroke-linejoin:round;}</style>
 </defs>
 <g id="figure_1">
  <g id="patch_1">
   <path d="M 0 648 
L 648 648 
L 648 0 
L 0 0 
z
" style="fill:#ffffff;"/>
  </g>
  <g id="axes_1">
   <g id="patch_2">
    <path d="M 81 576.72 
L 583.2 576.72 
L 583.2 77.76 
L 81 77.76 
z
" style="fill:#ffffff;"/>
   </g>
   <g id="matplotlib.axis_1">
    <g id="xtick_1">
     <g id="line2d_1">
      <defs>
       <path d="M 0 0 
L 0 3.5 
" id="m30cdfbfeff" style="stroke:#000000;stroke-width:0.8;"/>
      </defs>
      <g>
       <use style="stroke:#000000;stroke-width:0.8;" x="103.827273" xlink:href="#m30cdfbfeff" y="576.72"/>
      </g>
     </g>
     <g id="text_1">
      <!-- 0.0 -->
      <g transform="translate(95.87571 591.318438)scale(0.1 -0.1)">
       <defs>
        <path d="M 31.78125 66.40625 
Q 24.171875 66.40625 20.328125 58.90625 
Q 16.5 51.421875 16.5 36.375 
Q 16.5 21.390625 20.328125 13.890625 
Q 24.171875 6.390625 31.78125 6.390625 
Q 39.453125 6.390625 43.28125 13.890625 
Q 47.125 21.390625 47.125 36.375 
Q 47.125 51.421875 43.28125 58.90625 
Q 39.453125 66.40625 31.78125 66.40625 
z
M 31.78125 74.21875 
Q 44.046875 74.21875 50.515625 64.515625 
Q 56.984375 54.828125 56.984375 36.375 
Q 56.984375 17.96875 50.515625 8.265625 
Q 44.046875 -1.421875 31.78125 -1.421875 
Q 19.53125 -1.421875 13.0625 8.265625 
Q 6.59375 17.96875 6.59375 36.375 
Q 6.59375 54.828125 13.0625 64.515625 
Q 19.53125 74.21875 31.78125 74.21875 
z
" id="DejaVuSans-48"/>
        <path d="M 10.6875 12.40625 
L 21 12.40625 
L 21 0 
L 10.6875 0 
z
" id="DejaVuSans-46"/>
       </defs>
       <use xlink:href="#DejaVuSans-48"/>
       <use x="63.623047" xlink:href="#DejaVuSans-46"/>
       <use x="95.410156" xlink:href="#DejaVuSans-48"/>
      </g>
     </g>
    </g>
    <g id="xtick_2">
     <g id="line2d_2">
      <g>
       <use style="stroke:#000000;stroke-width:0.8;" x="208.061395" xlink:href="#m30cdfbfeff" y="576.72"/>
      </g>
     </g>
     <g id="text_2">
      <!-- 0.1 -->
      <g transform="translate(200.109832 591.318438)scale(0.1 -0.1)">
       <defs>
        <path d="M 12.40625 8.296875 
L 28.515625 8.296875 
L 28.515625 63.921875 
L 10.984375 60.40625 
L 10.984375 69.390625 
L 28.421875 72.90625 
L 38.28125 72.90625 
L 38.28125 8.296875 
L 54.390625 8.296875 
L 54.390625 0 
L 12.40625 0 
z
" id="DejaVuSans-49"/>
       </defs>
       <use xlink:href="#DejaVuSans-48"/>
       <use x="63.623047" xlink:href="#DejaVuSans-46"/>
       <use x="95.410156" xlink:href="#DejaVuSans-49"/>
      </g>
     </g>
    </g>
    <g id="xtick_3">
     <g id="line2d_3">
      <g>
       <use style="stroke:#000000;stroke-width:0.8;" x="312.295517" xlink:href="#m30cdfbfeff" y="576.72"/>
      </g>
     </g>
     <g id="text_3">
      <!-- 0.2 -->
      <g transform="translate(304.343954 591.318438)scale(0.1 -0.1)">
       <defs>
        <path d="M 19.1875 8.296875 
L 53.609375 8.296875 
L 53.609375 0 
L 7.328125 0 
L 7.328125 8.296875 
Q 12.9375 14.109375 22.625 23.890625 
Q 32.328125 33.6875 34.8125 36.53125 
Q 39.546875 41.84375 41.421875 45.53125 
Q 43.3125 49.21875 43.3125 52.78125 
Q 43.3125 58.59375 39.234375 62.25 
Q 35.15625 65.921875 28.609375 65.921875 
Q 23.96875 65.921875 18.8125 64.3125 
Q 13.671875 62.703125 7.8125 59.421875 
L 7.8125 69.390625 
Q 13.765625 71.78125 18.9375 73 
Q 24.125 74.21875 28.421875 74.21875 
Q 39.75 74.21875 46.484375 68.546875 
Q 53.21875 62.890625 53.21875 53.421875 
Q 53.21875 48.921875 51.53125 44.890625 
Q 49.859375 40.875 45.40625 35.40625 
Q 44.1875 33.984375 37.640625 27.21875 
Q 31.109375 20.453125 19.1875 8.296875 
z
" id="DejaVuSans-50"/>
       </defs>
       <use xlink:href="#DejaVuSans-48"/>
       <use x="63.623047" xlink:href="#DejaVuSans-46"/>
       <use x="95.410156" xlink:href="#DejaVuSans-50"/>
      </g>
     </g>
    </g>
    <g id="xtick_4">
     <g id="line2d_4">
      <g>
       <use style="stroke:#000000;stroke-width:0.8;" x="416.529639" xlink:href="#m30cdfbfeff" y="576.72"/>
      </g>
     </g>
     <g id="text_4">
      <!-- 0.3 -->
      <g transform="translate(408.578076 591.318438)scale(0.1 -0.1)">
       <defs>
        <path d="M 40.578125 39.3125 
Q 47.65625 37.796875 51.625 33 
Q 55.609375 28.21875 55.609375 21.1875 
Q 55.609375 10.40625 48.1875 4.484375 
Q 40.765625 -1.421875 27.09375 -1.421875 
Q 22.515625 -1.421875 17.65625 -0.515625 
Q 12.796875 0.390625 7.625 2.203125 
L 7.625 11.71875 
Q 11.71875 9.328125 16.59375 8.109375 
Q 21.484375 6.890625 26.8125 6.890625 
Q 36.078125 6.890625 40.9375 10.546875 
Q 45.796875 14.203125 45.796875 21.1875 
Q 45.796875 27.640625 41.28125 31.265625 
Q 36.765625 34.90625 28.71875 34.90625 
L 20.21875 34.90625 
L 20.21875 43.015625 
L 29.109375 43.015625 
Q 36.375 43.015625 40.234375 45.921875 
Q 44.09375 48.828125 44.09375 54.296875 
Q 44.09375 59.90625 40.109375 62.90625 
Q 36.140625 65.921875 28.71875 65.921875 
Q 24.65625 65.921875 20.015625 65.03125 
Q 15.375 64.15625 9.8125 62.3125 
L 9.8125 71.09375 
Q 15.4375 72.65625 20.34375 73.4375 
Q 25.25 74.21875 29.59375 74.21875 
Q 40.828125 74.21875 47.359375 69.109375 
Q 53.90625 64.015625 53.90625 55.328125 
Q 53.90625 49.265625 50.4375 45.09375 
Q 46.96875 40.921875 40.578125 39.3125 
z
" id="DejaVuSans-51"/>
       </defs>
       <use xlink:href="#DejaVuSans-48"/>
       <use x="63.623047" xlink:href="#DejaVuSans-46"/>
       <use x="95.410156" xlink:href="#DejaVuSans-51"/>
      </g>
     </g>
    </g>
    <g id="xtick_5">
     <g id="line2d_5">
      <g>
       <use style="stroke:#000000;stroke-width:0.8;" x="520.763761" xlink:href="#m30cdfbfeff" y="576.72"/>
      </g>
     </g>
     <g id="text_5">
      <!-- 0.4 -->
      <g transform="translate(512.812198 591.318438)scale(0.1 -0.1)">
       <defs>
        <path d="M 37.796875 64.3125 
L 12.890625 25.390625 
L 37.796875 25.390625 
z
M 35.203125 72.90625 
L 47.609375 72.90625 
L 47.609375 25.390625 
L 58.015625 25.390625 
L 58.015625 17.1875 
L 47.609375 17.1875 
L 47.609375 0 
L 37.796875 0 
L 37.796875 17.1875 
L 4.890625 17.1875 
L 4.890625 26.703125 
z
" id="DejaVuSans-52"/>
       </defs>
       <use xlink:href="#DejaVuSans-48"/>
       <use x="63.623047" xlink:href="#DejaVuSans-46"/>
       <use x="95.410156" xlink:href="#DejaVuSans-52"/>
      </g>
     </g>
    </g>
    <g id="text_6">
     <!-- voltage -->
     <g transform="translate(313.417188 604.996562)scale(0.1 -0.1)">
      <defs>
       <path d="M 2.984375 54.6875 
L 12.5 54.6875 
L 29.59375 8.796875 
L 46.6875 54.6875 
L 56.203125 54.6875 
L 35.6875 0 
L 23.484375 0 
z
" id="DejaVuSans-118"/>
       <path d="M 30.609375 48.390625 
Q 23.390625 48.390625 19.1875 42.75 
Q 14.984375 37.109375 14.984375 27.296875 
Q 14.984375 17.484375 19.15625 11.84375 
Q 23.34375 6.203125 30.609375 6.203125 
Q 37.796875 6.203125 41.984375 11.859375 
Q 46.1875 17.53125 46.1875 27.296875 
Q 46.1875 37.015625 41.984375 42.703125 
Q 37.796875 48.390625 30.609375 48.390625 
z
M 30.609375 56 
Q 42.328125 56 49.015625 48.375 
Q 55.71875 40.765625 55.71875 27.296875 
Q 55.71875 13.875 49.015625 6.21875 
Q 42.328125 -1.421875 30.609375 -1.421875 
Q 18.84375 -1.421875 12.171875 6.21875 
Q 5.515625 13.875 5.515625 27.296875 
Q 5.515625 40.765625 12.171875 48.375 
Q 18.84375 56 30.609375 56 
z
" id="DejaVuSans-111"/>
       <path d="M 9.421875 75.984375 
L 18.40625 75.984375 
L 18.40625 0 
L 9.421875 0 
z
" id="DejaVuSans-108"/>
       <path d="M 18.3125 70.21875 
L 18.3125 54.6875 
L 36.8125 54.6875 
L 36.8125 47.703125 
L 18.3125 47.703125 
L 18.3125 18.015625 
Q 18.3125 11.328125 20.140625 9.421875 
Q 21.96875 7.515625 27.59375 7.515625 
L 36.8125 7.515625 
L 36.8125 0 
L 27.59375 0 
Q 17.1875 0 13.234375 3.875 
Q 9.28125 7.765625 9.28125 18.015625 
L 9.28125 47.703125 
L 2.6875 47.703125 
L 2.6875 54.6875 
L 9.28125 54.6875 
L 9.28125 70.21875 
z
" id="DejaVuSans-116"/>
       <path d="M 34.28125 27.484375 
Q 23.390625 27.484375 19.1875 25 
Q 14.984375 22.515625 14.984375 16.5 
Q 14.984375 11.71875 18.140625 8.90625 
Q 21.296875 6.109375 26.703125 6.109375 
Q 34.1875 6.109375 38.703125 11.40625 
Q 43.21875 16.703125 43.21875 25.484375 
L 43.21875 27.484375 
z
M 52.203125 31.203125 
L 52.203125 0 
L 43.21875 0 
L 43.21875 8.296875 
Q 40.140625 3.328125 35.546875 0.953125 
Q 30.953125 -1.421875 24.3125 -1.421875 
Q 15.921875 -1.421875 10.953125 3.296875 
Q 6 8.015625 6 15.921875 
Q 6 25.140625 12.171875 29.828125 
Q 18.359375 34.515625 30.609375 34.515625 
L 43.21875 34.515625 
L 43.21875 35.40625 
Q 43.21875 41.609375 39.140625 45 
Q 35.0625 48.390625 27.6875 48.390625 
Q 23 48.390625 18.546875 47.265625 
Q 14.109375 46.140625 10.015625 43.890625 
L 10.015625 52.203125 
Q 14.9375 54.109375 19.578125 55.046875 
Q 24.21875 56 28.609375 56 
Q 40.484375 56 46.34375 49.84375 
Q 52.203125 43.703125 52.203125 31.203125 
z
" id="DejaVuSans-97"/>
       <path d="M 45.40625 27.984375 
Q 45.40625 37.75 41.375 43.109375 
Q 37.359375 48.484375 30.078125 48.484375 
Q 22.859375 48.484375 18.828125 43.109375 
Q 14.796875 37.75 14.796875 27.984375 
Q 14.796875 18.265625 18.828125 12.890625 
Q 22.859375 7.515625 30.078125 7.515625 
Q 37.359375 7.515625 41.375 12.890625 
Q 45.40625 18.265625 45.40625 27.984375 
z
M 54.390625 6.78125 
Q 54.390625 -7.171875 48.1875 -13.984375 
Q 42 -20.796875 29.203125 -20.796875 
Q 24.46875 -20.796875 20.265625 -20.09375 
Q 16.0625 -19.390625 12.109375 -17.921875 
L 12.109375 -9.1875 
Q 16.0625 -11.328125 19.921875 -12.34375 
Q 23.78125 -13.375 27.78125 -13.375 
Q 36.625 -13.375 41.015625 -8.765625 
Q 45.40625 -4.15625 45.40625 5.171875 
L 45.40625 9.625 
Q 42.625 4.78125 38.28125 2.390625 
Q 33.9375 0 27.875 0 
Q 17.828125 0 11.671875 7.65625 
Q 5.515625 15.328125 5.515625 27.984375 
Q 5.515625 40.671875 11.671875 48.328125 
Q 17.828125 56 27.875 56 
Q 33.9375 56 38.28125 53.609375 
Q 42.625 51.21875 45.40625 46.390625 
L 45.40625 54.6875 
L 54.390625 54.6875 
z
" id="DejaVuSans-103"/>
       <path d="M 56.203125 29.59375 
L 56.203125 25.203125 
L 14.890625 25.203125 
Q 15.484375 15.921875 20.484375 11.0625 
Q 25.484375 6.203125 34.421875 6.203125 
Q 39.59375 6.203125 44.453125 7.46875 
Q 49.3125 8.734375 54.109375 11.28125 
L 54.109375 2.78125 
Q 49.265625 0.734375 44.1875 -0.34375 
Q 39.109375 -1.421875 33.890625 -1.421875 
Q 20.796875 -1.421875 13.15625 6.1875 
Q 5.515625 13.8125 5.515625 26.8125 
Q 5.515625 40.234375 12.765625 48.109375 
Q 20.015625 56 32.328125 56 
Q 43.359375 56 49.78125 48.890625 
Q 56.203125 41.796875 56.203125 29.59375 
z
M 47.21875 32.234375 
Q 47.125 39.59375 43.09375 43.984375 
Q 39.0625 48.390625 32.421875 48.390625 
Q 24.90625 48.390625 20.390625 44.140625 
Q 15.875 39.890625 15.1875 32.171875 
z
" id="DejaVuSans-101"/>
      </defs>
      <use xlink:href="#DejaVuSans-118"/>
      <use x="59.179688" xlink:href="#DejaVuSans-111"/>
      <use x="120.361328" xlink:href="#DejaVuSans-108"/>
      <use x="148.144531" xlink:href="#DejaVuSans-116"/>
      <use x="187.353516" xlink:href="#DejaVuSans-97"/>
      <use x="248.632812" xlink:href="#DejaVuSans-103"/>
      <use x="312.109375" xlink:href="#DejaVuSans-101"/>
     </g>
    </g>
   </g>
   <g id="matplotlib.axis_2">
    <g id="ytick_1">
     <g id="line2d_6">
      <defs>
       <path d="M 0 0 
L -3.5 0 
" id="me7db3f5307" style="stroke:#000000;stroke-width:0.8;"/>
      </defs>
      <g>
       <use style="stroke:#000000;stroke-width:0.8;" x="81" xlink:href="#me7db3f5307" y="544.496265"/>
      </g>
     </g>
     <g id="text_7">
      <!-- 0 -->
      <g transform="translate(67.6375 548.295484)scale(0.1 -0.1)">
       <use xlink:href="#DejaVuSans-48"/>
      </g>
     </g>
    </g>
    <g id="ytick_2">
     <g id="line2d_7">
      <g>
       <use style="stroke:#000000;stroke-width:0.8;" x="81" xlink:href="#me7db3f5307" y="471.149468"/>
      </g>
     </g>
     <g id="text_8">
      <!-- 5 -->
      <g transform="translate(67.6375 474.948687)scale(0.1 -0.1)">
       <defs>
        <path d="M 10.796875 72.90625 
L 49.515625 72.90625 
L 49.515625 64.59375 
L 19.828125 64.59375 
L 19.828125 46.734375 
Q 21.96875 47.46875 24.109375 47.828125 
Q 26.265625 48.1875 28.421875 48.1875 
Q 40.625 48.1875 47.75 41.5 
Q 54.890625 34.8125 54.890625 23.390625 
Q 54.890625 11.625 47.5625 5.09375 
Q 40.234375 -1.421875 26.90625 -1.421875 
Q 22.3125 -1.421875 17.546875 -0.640625 
Q 12.796875 0.140625 7.71875 1.703125 
L 7.71875 11.625 
Q 12.109375 9.234375 16.796875 8.0625 
Q 21.484375 6.890625 26.703125 6.890625 
Q 35.15625 6.890625 40.078125 11.328125 
Q 45.015625 15.765625 45.015625 23.390625 
Q 45.015625 31 40.078125 35.4375 
Q 35.15625 39.890625 26.703125 39.890625 
Q 22.75 39.890625 18.8125 39.015625 
Q 14.890625 38.140625 10.796875 36.28125 
z
" id="DejaVuSans-53"/>
       </defs>
       <use xlink:href="#DejaVuSans-53"/>
      </g>
     </g>
    </g>
    <g id="ytick_3">
     <g id="line2d_8">
      <g>
       <use style="stroke:#000000;stroke-width:0.8;" x="81" xlink:href="#me7db3f5307" y="397.802671"/>
      </g>
     </g>
     <g id="text_9">
      <!-- 10 -->
      <g transform="translate(61.275 401.60189)scale(0.1 -0.1)">
       <use xlink:href="#DejaVuSans-49"/>
       <use x="63.623047" xlink:href="#DejaVuSans-48"/>
      </g>
     </g>
    </g>
    <g id="ytick_4">
     <g id="line2d_9">
      <g>
       <use style="stroke:#000000;stroke-width:0.8;" x="81" xlink:href="#me7db3f5307" y="324.455874"/>
      </g>
     </g>
     <g id="text_10">
      <!-- 15 -->
      <g transform="translate(61.275 328.255093)scale(0.1 -0.1)">
       <use xlink:href="#DejaVuSans-49"/>
       <use x="63.623047" xlink:href="#DejaVuSans-53"/>
      </g>
     </g>
    </g>
    <g id="ytick_5">
     <g id="line2d_10">
      <g>
       <use style="stroke:#000000;stroke-width:0.8;" x="81" xlink:href="#me7db3f5307" y="251.109077"/>
      </g>
     </g>
     <g id="text_11">
      <!-- 20 -->
      <g transform="translate(61.275 254.908295)scale(0.1 -0.1)">
       <use xlink:href="#DejaVuSans-50"/>
       <use x="63.623047" xlink:href="#DejaVuSans-48"/>
      </g>
     </g>
    </g>
    <g id="ytick_6">
     <g id="line2d_11">
      <g>
       <use style="stroke:#000000;stroke-width:0.8;" x="81" xlink:href="#me7db3f5307" y="177.762279"/>
      </g>
     </g>
     <g id="text_12">
      <!-- 25 -->
      <g transform="translate(61.275 181.561498)scale(0.1 -0.1)">
       <use xlink:href="#DejaVuSans-50"/>
       <use x="63.623047" xlink:href="#DejaVuSans-53"/>
      </g>
     </g>
    </g>
    <g id="ytick_7">
     <g id="line2d_12">
      <g>
       <use style="stroke:#000000;stroke-width:0.8;" x="81" xlink:href="#me7db3f5307" y="104.415482"/>
      </g>
     </g>
     <g id="text_13">
      <!-- 30 -->
      <g transform="translate(61.275 108.214701)scale(0.1 -0.1)">
       <use xlink:href="#DejaVuSans-51"/>
       <use x="63.623047" xlink:href="#DejaVuSans-48"/>
      </g>
     </g>
    </g>
    <g id="text_14">
     <!-- weight (g) -->
     <g transform="translate(55.195312 352.762656)rotate(-90)scale(0.1 -0.1)">
      <defs>
       <path d="M 4.203125 54.6875 
L 13.1875 54.6875 
L 24.421875 12.015625 
L 35.59375 54.6875 
L 46.1875 54.6875 
L 57.421875 12.015625 
L 68.609375 54.6875 
L 77.59375 54.6875 
L 63.28125 0 
L 52.6875 0 
L 40.921875 44.828125 
L 29.109375 0 
L 18.5 0 
z
" id="DejaVuSans-119"/>
       <path d="M 9.421875 54.6875 
L 18.40625 54.6875 
L 18.40625 0 
L 9.421875 0 
z
M 9.421875 75.984375 
L 18.40625 75.984375 
L 18.40625 64.59375 
L 9.421875 64.59375 
z
" id="DejaVuSans-105"/>
       <path d="M 54.890625 33.015625 
L 54.890625 0 
L 45.90625 0 
L 45.90625 32.71875 
Q 45.90625 40.484375 42.875 44.328125 
Q 39.84375 48.1875 33.796875 48.1875 
Q 26.515625 48.1875 22.3125 43.546875 
Q 18.109375 38.921875 18.109375 30.90625 
L 18.109375 0 
L 9.078125 0 
L 9.078125 75.984375 
L 18.109375 75.984375 
L 18.109375 46.1875 
Q 21.34375 51.125 25.703125 53.5625 
Q 30.078125 56 35.796875 56 
Q 45.21875 56 50.046875 50.171875 
Q 54.890625 44.34375 54.890625 33.015625 
z
" id="DejaVuSans-104"/>
       <path id="DejaVuSans-32"/>
       <path d="M 31 75.875 
Q 24.46875 64.65625 21.28125 53.65625 
Q 18.109375 42.671875 18.109375 31.390625 
Q 18.109375 20.125 21.3125 9.0625 
Q 24.515625 -2 31 -13.1875 
L 23.1875 -13.1875 
Q 15.875 -1.703125 12.234375 9.375 
Q 8.59375 20.453125 8.59375 31.390625 
Q 8.59375 42.28125 12.203125 53.3125 
Q 15.828125 64.359375 23.1875 75.875 
z
" id="DejaVuSans-40"/>
       <path d="M 8.015625 75.875 
L 15.828125 75.875 
Q 23.140625 64.359375 26.78125 53.3125 
Q 30.421875 42.28125 30.421875 31.390625 
Q 30.421875 20.453125 26.78125 9.375 
Q 23.140625 -1.703125 15.828125 -13.1875 
L 8.015625 -13.1875 
Q 14.5 -2 17.703125 9.0625 
Q 20.90625 20.125 20.90625 31.390625 
Q 20.90625 42.671875 17.703125 53.65625 
Q 14.5 64.65625 8.015625 75.875 
z
" id="DejaVuSans-41"/>
      </defs>
      <use xlink:href="#DejaVuSans-119"/>
      <use x="81.787109" xlink:href="#DejaVuSans-101"/>
      <use x="143.310547" xlink:href="#DejaVuSans-105"/>
      <use x="171.09375" xlink:href="#DejaVuSans-103"/>
      <use x="234.570312" xlink:href="#DejaVuSans-104"/>
      <use x="297.949219" xlink:href="#DejaVuSans-116"/>
      <use x="337.158203" xlink:href="#DejaVuSans-32"/>
      <use x="368.945312" xlink:href="#DejaVuSans-40"/>
      <use x="407.958984" xlink:href="#DejaVuSans-103"/>
      <use x="471.435547" xlink:href="#DejaVuSans-41"/>
     </g>
    </g>
   </g>
   <g id="line2d_13">
    <path clip-path="url(#p0fbc11bd3b)" d="M 103.827273 550.753223 
L 108.438843 546.264706 
L 113.050413 541.776189 
L 117.661983 537.287673 
L 122.273554 532.799156 
L 126.885124 528.31064 
L 131.496694 523.822123 
L 136.108264 519.333607 
L 140.719835 514.84509 
L 145.331405 510.356574 
L 149.942975 505.868057 
L 154.554545 501.379541 
L 159.166116 496.891024 
L 163.777686 492.402507 
L 168.389256 487.913991 
L 173.000826 483.425474 
L 177.612397 478.936958 
L 182.223967 474.448441 
L 186.835537 469.959925 
L 191.447107 465.471408 
L 196.058678 460.982892 
L 200.670248 456.494375 
L 205.281818 452.005859 
L 209.893388 447.517342 
L 214.504959 443.028825 
L 219.116529 438.540309 
L 223.728099 434.051792 
L 228.339669 429.563276 
L 232.95124 425.074759 
L 237.56281 420.586243 
L 242.17438 416.097726 
L 246.78595 411.60921 
L 251.397521 407.120693 
L 256.009091 402.632176 
L 260.620661 398.14366 
L 265.232231 393.655143 
L 269.843802 389.166627 
L 274.455372 384.67811 
L 279.066942 380.189594 
L 283.678512 375.701077 
L 288.290083 371.212561 
L 292.901653 366.724044 
L 297.513223 362.235528 
L 302.124793 357.747011 
L 306.736364 353.258494 
L 311.347934 348.769978 
L 315.959504 344.281461 
L 320.571074 339.792945 
L 325.182645 335.304428 
L 329.794215 330.815912 
L 334.405785 326.327395 
L 339.017355 321.838879 
L 343.628926 317.350362 
L 348.240496 312.861846 
L 352.852066 308.373329 
L 357.463636 303.884812 
L 362.075207 299.396296 
L 366.686777 294.907779 
L 371.298347 290.419263 
L 375.909917 285.930746 
L 380.521488 281.44223 
L 385.133058 276.953713 
L 389.744628 272.465197 
L 394.356198 267.97668 
L 398.967769 263.488163 
L 403.579339 258.999647 
L 408.190909 254.51113 
L 412.802479 250.022614 
L 417.41405 245.534097 
L 422.02562 241.045581 
L 426.63719 236.557064 
L 431.24876 232.068548 
L 435.860331 227.580031 
L 440.471901 223.091515 
L 445.083471 218.602998 
L 449.695041 214.114481 
L 454.306612 209.625965 
L 458.918182 205.137448 
L 463.529752 200.648932 
L 468.141322 196.160415 
L 472.752893 191.671899 
L 477.364463 187.183382 
L 481.976033 182.694866 
L 486.587603 178.206349 
L 491.199174 173.717833 
L 495.810744 169.229316 
L 500.422314 164.740799 
L 505.033884 160.252283 
L 509.645455 155.763766 
L 514.257025 151.27525 
L 518.868595 146.786733 
L 523.480165 142.298217 
L 528.091736 137.8097 
L 532.703306 133.321184 
L 537.314876 128.832667 
L 541.926446 124.344151 
L 546.538017 119.855634 
L 551.149587 115.367117 
L 555.761157 110.878601 
L 560.372727 106.390084 
" style="fill:none;stroke:#ffa726;stroke-linecap:square;stroke-opacity:0.5;stroke-width:2;"/>
   </g>
   <g id="line2d_14">
    <path clip-path="url(#p0fbc11bd3b)" d="M 103.827273 544.558063 
L 108.270384 540.072022 
L 112.713495 535.585981 
L 117.156606 531.09994 
L 121.599717 526.613899 
L 126.042828 522.127858 
L 130.485939 517.641817 
L 134.92905 513.155776 
L 139.372161 508.669735 
L 143.815272 504.183694 
L 148.258383 499.697652 
L 152.701494 495.211611 
L 157.144605 490.72557 
L 161.587717 486.239529 
L 166.030828 481.753488 
L 170.473939 477.267447 
L 174.91705 472.781406 
L 179.360161 468.295365 
L 183.803272 463.809324 
L 188.246383 459.323283 
L 192.689494 454.837242 
L 197.132605 450.351201 
L 201.575716 445.86516 
L 206.018827 441.379119 
L 210.461938 436.893078 
L 214.905049 432.407037 
L 219.34816 427.920996 
L 223.791271 423.434955 
L 228.234382 418.948914 
L 232.677493 414.462873 
L 237.120605 409.976832 
L 241.563716 405.490791 
L 246.006827 401.00475 
L 250.449938 396.518709 
L 254.893049 392.032668 
L 259.33616 387.546627 
L 263.779271 383.060585 
L 268.222382 378.574544 
L 272.665493 374.088503 
L 277.108604 369.602462 
L 281.551715 365.116421 
L 285.994826 360.63038 
L 290.437937 356.144339 
L 294.881048 351.658298 
L 299.324159 347.172257 
L 303.76727 342.686216 
L 308.210382 338.200175 
L 312.653493 333.714134 
L 317.096604 329.228093 
L 321.539715 324.742052 
L 325.982826 320.256011 
L 330.425937 315.76997 
L 334.869048 311.283929 
L 339.312159 306.797888 
L 343.75527 302.311847 
L 348.198381 297.825806 
L 352.641492 293.339765 
L 357.084603 288.853724 
L 361.527714 284.367683 
L 365.970825 279.881642 
L 370.413936 275.395601 
L 374.857047 270.909559 
L 379.300158 266.423518 
L 383.74327 261.937477 
L 388.186381 257.451436 
L 392.629492 252.965395 
L 397.072603 248.479354 
L 401.515714 243.993313 
L 405.958825 239.507272 
L 410.401936 235.021231 
L 414.845047 230.53519 
L 419.288158 226.049149 
L 423.731269 221.563108 
L 428.17438 217.077067 
L 432.617491 212.591026 
L 437.060602 208.104985 
L 441.503713 203.618944 
L 445.946824 199.132903 
L 450.389935 194.646862 
L 454.833047 190.160821 
L 459.276158 185.67478 
L 463.719269 181.188739 
L 468.16238 176.702698 
L 472.605491 172.216657 
L 477.048602 167.730616 
L 481.491713 163.244575 
L 485.934824 158.758534 
L 490.377935 154.272492 
L 494.821046 149.786451 
L 499.264157 145.30041 
L 503.707268 140.814369 
L 508.150379 136.328328 
L 512.59349 131.842287 
L 517.036601 127.356246 
L 521.479712 122.870205 
L 525.922824 118.384164 
L 530.365935 113.898123 
L 534.809046 109.412082 
L 539.252157 104.926041 
L 543.695268 100.44 
" style="fill:none;stroke:#29b6f6;stroke-linecap:square;stroke-opacity:0.5;stroke-width:2;"/>
   </g>
   <g id="line2d_15">
    <path clip-path="url(#p0fbc11bd3b)" d="M 103.827273 554.04 
L 108.354613 549.558522 
L 112.881954 545.077044 
L 117.409295 540.595566 
L 121.936635 536.114089 
L 126.463976 531.632611 
L 130.991317 527.151133 
L 135.518657 522.669655 
L 140.045998 518.188177 
L 144.573339 513.706699 
L 149.100679 509.225222 
L 153.62802 504.743744 
L 158.155361 500.262266 
L 162.682701 495.780788 
L 167.210042 491.29931 
L 171.737383 486.817832 
L 176.264723 482.336354 
L 180.792064 477.854877 
L 185.319405 473.373399 
L 189.846745 468.891921 
L 194.374086 464.410443 
L 198.901426 459.928965 
L 203.428767 455.447487 
L 207.956108 450.96601 
L 212.483448 446.484532 
L 217.010789 442.003054 
L 221.53813 437.521576 
L 226.06547 433.040098 
L 230.592811 428.55862 
L 235.120152 424.077143 
L 239.647492 419.595665 
L 244.174833 415.114187 
L 248.702174 410.632709 
L 253.229514 406.151231 
L 257.756855 401.669753 
L 262.284196 397.188275 
L 266.811536 392.706798 
L 271.338877 388.22532 
L 275.866218 383.743842 
L 280.393558 379.262364 
L 284.920899 374.780886 
L 289.44824 370.299408 
L 293.97558 365.817931 
L 298.502921 361.336453 
L 303.030262 356.854975 
L 307.557602 352.373497 
L 312.084943 347.892019 
L 316.612283 343.410541 
L 321.139624 338.929063 
L 325.666965 334.447586 
L 330.194305 329.966108 
L 334.721646 325.48463 
L 339.248987 321.003152 
L 343.776327 316.521674 
L 348.303668 312.040196 
L 352.831009 307.558719 
L 357.358349 303.077241 
L 361.88569 298.595763 
L 366.413031 294.114285 
L 370.940371 289.632807 
L 375.467712 285.151329 
L 379.995053 280.669852 
L 384.522393 276.188374 
L 389.049734 271.706896 
L 393.577075 267.225418 
L 398.104415 262.74394 
L 402.631756 258.262462 
L 407.159097 253.780984 
L 411.686437 249.299507 
L 416.213778 244.818029 
L 420.741119 240.336551 
L 425.268459 235.855073 
L 429.7958 231.373595 
L 434.32314 226.892117 
L 438.850481 222.41064 
L 443.377822 217.929162 
L 447.905162 213.447684 
L 452.432503 208.966206 
L 456.959844 204.484728 
L 461.487184 200.00325 
L 466.014525 195.521772 
L 470.541866 191.040295 
L 475.069206 186.558817 
L 479.596547 182.077339 
L 484.123888 177.595861 
L 488.651228 173.114383 
L 493.178569 168.632905 
L 497.70591 164.151428 
L 502.23325 159.66995 
L 506.760591 155.188472 
L 511.287932 150.706994 
L 515.815272 146.225516 
L 520.342613 141.744038 
L 524.869954 137.262561 
L 529.397294 132.781083 
L 533.924635 128.299605 
L 538.451976 123.818127 
L 542.979316 119.336649 
L 547.506657 114.855171 
L 552.033998 110.373693 
" style="fill:none;stroke:#ff7043;stroke-linecap:square;stroke-opacity:0.5;stroke-width:2;"/>
   </g>
   <g id="line2d_16">
    <path clip-path="url(#p0fbc11bd3b)" d="M 103.827273 538.578578 
L 108.270384 534.17494 
L 112.713495 529.771303 
L 117.156606 525.367665 
L 121.599717 520.964027 
L 126.042828 516.56039 
L 130.485939 512.156752 
L 134.92905 507.753115 
L 139.372161 503.349477 
L 143.815272 498.94584 
L 148.258383 494.542202 
L 152.701494 490.138565 
L 157.144605 485.734927 
L 161.587717 481.33129 
L 166.030828 476.927652 
L 170.473939 472.524015 
L 174.91705 468.120377 
L 179.360161 463.71674 
L 183.803272 459.313102 
L 188.246383 454.909465 
L 192.689494 450.505827 
L 197.132605 446.10219 
L 201.575716 441.698552 
L 206.018827 437.294915 
L 210.461938 432.891277 
L 214.905049 428.48764 
L 219.34816 424.084002 
L 223.791271 419.680365 
L 228.234382 415.276727 
L 232.677493 410.87309 
L 237.120605 406.469452 
L 241.563716 402.065815 
L 246.006827 397.662177 
L 250.449938 393.25854 
L 254.893049 388.854902 
L 259.33616 384.451265 
L 263.779271 380.047627 
L 268.222382 375.64399 
L 272.665493 371.240352 
L 277.108604 366.836715 
L 281.551715 362.433077 
L 285.994826 358.02944 
L 290.437937 353.625802 
L 294.881048 349.222165 
L 299.324159 344.818527 
L 303.76727 340.41489 
L 308.210382 336.011252 
L 312.653493 331.607615 
L 317.096604 327.203977 
L 321.539715 322.80034 
L 325.982826 318.396702 
L 330.425937 313.993064 
L 334.869048 309.589427 
L 339.312159 305.185789 
L 343.75527 300.782152 
L 348.198381 296.378514 
L 352.641492 291.974877 
L 357.084603 287.571239 
L 361.527714 283.167602 
L 365.970825 278.763964 
L 370.413936 274.360327 
L 374.857047 269.956689 
L 379.300158 265.553052 
L 383.74327 261.149414 
L 388.186381 256.745777 
L 392.629492 252.342139 
L 397.072603 247.938502 
L 401.515714 243.534864 
L 405.958825 239.131227 
L 410.401936 234.727589 
L 414.845047 230.323952 
L 419.288158 225.920314 
L 423.731269 221.516677 
L 428.17438 217.113039 
L 432.617491 212.709402 
L 437.060602 208.305764 
L 441.503713 203.902127 
L 445.946824 199.498489 
L 450.389935 195.094852 
L 454.833047 190.691214 
L 459.276158 186.287577 
L 463.719269 181.883939 
L 468.16238 177.480302 
L 472.605491 173.076664 
L 477.048602 168.673027 
L 481.491713 164.269389 
L 485.934824 159.865752 
L 490.377935 155.462114 
L 494.821046 151.058477 
L 499.264157 146.654839 
L 503.707268 142.251202 
L 508.150379 137.847564 
L 512.59349 133.443927 
L 517.036601 129.040289 
L 521.479712 124.636652 
L 525.922824 120.233014 
L 530.365935 115.829376 
L 534.809046 111.425739 
L 539.252157 107.022101 
L 543.695268 102.618464 
" style="fill:none;stroke:#5c6bc0;stroke-linecap:square;stroke-opacity:0.5;stroke-width:2;"/>
   </g>
   <g id="patch_3">
    <path d="M 81 576.72 
L 81 77.76 
" style="fill:none;stroke:#000000;stroke-linecap:square;stroke-linejoin:miter;stroke-width:0.8;"/>
   </g>
   <g id="patch_4">
    <path d="M 583.2 576.72 
L 583.2 77.76 
" style="fill:none;stroke:#000000;stroke-linecap:square;stroke-linejoin:miter;stroke-width:0.8;"/>
   </g>
   <g id="patch_5">
    <path d="M 81 576.72 
L 583.2 576.72 
" style="fill:none;stroke:#000000;stroke-linecap:square;stroke-linejoin:miter;stroke-width:0.8;"/>
   </g>
   <g id="patch_6">
    <path d="M 81 77.76 
L 583.2 77.76 
" style="fill:none;stroke:#000000;stroke-linecap:square;stroke-linejoin:miter;stroke-width:0.8;"/>
   </g>
   <g id="text_15">
    <!-- calibration curve -->
    <g transform="translate(281.626875 71.76)scale(0.12 -0.12)">
     <defs>
      <path d="M 48.78125 52.59375 
L 48.78125 44.1875 
Q 44.96875 46.296875 41.140625 47.34375 
Q 37.3125 48.390625 33.40625 48.390625 
Q 24.65625 48.390625 19.8125 42.84375 
Q 14.984375 37.3125 14.984375 27.296875 
Q 14.984375 17.28125 19.8125 11.734375 
Q 24.65625 6.203125 33.40625 6.203125 
Q 37.3125 6.203125 41.140625 7.25 
Q 44.96875 8.296875 48.78125 10.40625 
L 48.78125 2.09375 
Q 45.015625 0.34375 40.984375 -0.53125 
Q 36.96875 -1.421875 32.421875 -1.421875 
Q 20.0625 -1.421875 12.78125 6.34375 
Q 5.515625 14.109375 5.515625 27.296875 
Q 5.515625 40.671875 12.859375 48.328125 
Q 20.21875 56 33.015625 56 
Q 37.15625 56 41.109375 55.140625 
Q 45.0625 54.296875 48.78125 52.59375 
z
" id="DejaVuSans-99"/>
      <path d="M 48.6875 27.296875 
Q 48.6875 37.203125 44.609375 42.84375 
Q 40.53125 48.484375 33.40625 48.484375 
Q 26.265625 48.484375 22.1875 42.84375 
Q 18.109375 37.203125 18.109375 27.296875 
Q 18.109375 17.390625 22.1875 11.75 
Q 26.265625 6.109375 33.40625 6.109375 
Q 40.53125 6.109375 44.609375 11.75 
Q 48.6875 17.390625 48.6875 27.296875 
z
M 18.109375 46.390625 
Q 20.953125 51.265625 25.265625 53.625 
Q 29.59375 56 35.59375 56 
Q 45.5625 56 51.78125 48.09375 
Q 58.015625 40.1875 58.015625 27.296875 
Q 58.015625 14.40625 51.78125 6.484375 
Q 45.5625 -1.421875 35.59375 -1.421875 
Q 29.59375 -1.421875 25.265625 0.953125 
Q 20.953125 3.328125 18.109375 8.203125 
L 18.109375 0 
L 9.078125 0 
L 9.078125 75.984375 
L 18.109375 75.984375 
z
" id="DejaVuSans-98"/>
      <path d="M 41.109375 46.296875 
Q 39.59375 47.171875 37.8125 47.578125 
Q 36.03125 48 33.890625 48 
Q 26.265625 48 22.1875 43.046875 
Q 18.109375 38.09375 18.109375 28.8125 
L 18.109375 0 
L 9.078125 0 
L 9.078125 54.6875 
L 18.109375 54.6875 
L 18.109375 46.1875 
Q 20.953125 51.171875 25.484375 53.578125 
Q 30.03125 56 36.53125 56 
Q 37.453125 56 38.578125 55.875 
Q 39.703125 55.765625 41.0625 55.515625 
z
" id="DejaVuSans-114"/>
      <path d="M 54.890625 33.015625 
L 54.890625 0 
L 45.90625 0 
L 45.90625 32.71875 
Q 45.90625 40.484375 42.875 44.328125 
Q 39.84375 48.1875 33.796875 48.1875 
Q 26.515625 48.1875 22.3125 43.546875 
Q 18.109375 38.921875 18.109375 30.90625 
L 18.109375 0 
L 9.078125 0 
L 9.078125 54.6875 
L 18.109375 54.6875 
L 18.109375 46.1875 
Q 21.34375 51.125 25.703125 53.5625 
Q 30.078125 56 35.796875 56 
Q 45.21875 56 50.046875 50.171875 
Q 54.890625 44.34375 54.890625 33.015625 
z
" id="DejaVuSans-110"/>
      <path d="M 8.5 21.578125 
L 8.5 54.6875 
L 17.484375 54.6875 
L 17.484375 21.921875 
Q 17.484375 14.15625 20.5 10.265625 
Q 23.53125 6.390625 29.59375 6.390625 
Q 36.859375 6.390625 41.078125 11.03125 
Q 45.3125 15.671875 45.3125 23.6875 
L 45.3125 54.6875 
L 54.296875 54.6875 
L 54.296875 0 
L 45.3125 0 
L 45.3125 8.40625 
Q 42.046875 3.421875 37.71875 1 
Q 33.40625 -1.421875 27.6875 -1.421875 
Q 18.265625 -1.421875 13.375 4.4375 
Q 8.5 10.296875 8.5 21.578125 
z
M 31.109375 56 
z
" id="DejaVuSans-117"/>
     </defs>
     <use xlink:href="#DejaVuSans-99"/>
     <use x="54.980469" xlink:href="#DejaVuSans-97"/>
     <use x="116.259766" xlink:href="#DejaVuSans-108"/>
     <use x="144.042969" xlink:href="#DejaVuSans-105"/>
     <use x="171.826172" xlink:href="#DejaVuSans-98"/>
     <use x="235.302734" xlink:href="#DejaVuSans-114"/>
     <use x="276.416016" xlink:href="#DejaVuSans-97"/>
     <use x="337.695312" xlink:href="#DejaVuSans-116"/>
     <use x="376.904297" xlink:href="#DejaVuSans-105"/>
     <use x="404.6875" xlink:href="#DejaVuSans-111"/>
     <use x="465.869141" xlink:href="#DejaVuSans-110"/>
     <use x="529.248047" xlink:href="#DejaVuSans-32"/>
     <use x="561.035156" xlink:href="#DejaVuSans-99"/>
     <use x="616.015625" xlink:href="#DejaVuSans-117"/>
     <use x="679.394531" xlink:href="#DejaVuSans-114"/>
     <use x="720.507812" xlink:href="#DejaVuSans-118"/>
     <use x="779.6875" xlink:href="#DejaVuSans-101"/>
    </g>
   </g>
   <g id="legend_1">
    <g id="patch_7">
     <path d="M 88 144.4725 
L 130.448438 144.4725 
Q 132.448438 144.4725 132.448438 142.4725 
L 132.448438 84.76 
Q 132.448438 82.76 130.448438 82.76 
L 88 82.76 
Q 86 82.76 86 84.76 
L 86 142.4725 
Q 86 144.4725 88 144.4725 
z
" style="fill:#ffffff;opacity:0.8;stroke:#cccccc;stroke-linejoin:miter;"/>
    </g>
    <g id="PathCollection_1">
     <defs>
      <path d="M 0 6.123724 
C 1.624031 6.123724 3.181764 5.47849 4.330127 4.330127 
C 5.47849 3.181764 6.123724 1.624031 6.123724 0 
C 6.123724 -1.624031 5.47849 -3.181764 4.330127 -4.330127 
C 3.181764 -5.47849 1.624031 -6.123724 0 -6.123724 
C -1.624031 -6.123724 -3.181764 -5.47849 -4.330127 -4.330127 
C -5.47849 -3.181764 -6.123724 -1.624031 -6.123724 0 
C -6.123724 1.624031 -5.47849 3.181764 -4.330127 4.330127 
C -3.181764 5.47849 -1.624031 6.123724 0 6.123724 
z
" id="mb1d3e1f667" style="stroke:#ffa726;"/>
     </defs>
     <g>
      <use style="fill:#ffffff;stroke:#ffa726;" x="100" xlink:href="#mb1d3e1f667" y="91.733437"/>
     </g>
    </g>
    <g id="text_16">
     <!-- fl -->
     <g transform="translate(118 94.358437)scale(0.1 -0.1)">
      <defs>
       <path d="M 37.109375 75.984375 
L 37.109375 68.5 
L 28.515625 68.5 
Q 23.6875 68.5 21.796875 66.546875 
Q 19.921875 64.59375 19.921875 59.515625 
L 19.921875 54.6875 
L 34.71875 54.6875 
L 34.71875 47.703125 
L 19.921875 47.703125 
L 19.921875 0 
L 10.890625 0 
L 10.890625 47.703125 
L 2.296875 47.703125 
L 2.296875 54.6875 
L 10.890625 54.6875 
L 10.890625 58.5 
Q 10.890625 67.625 15.140625 71.796875 
Q 19.390625 75.984375 28.609375 75.984375 
z
" id="DejaVuSans-102"/>
      </defs>
      <use xlink:href="#DejaVuSans-102"/>
      <use x="35.205078" xlink:href="#DejaVuSans-108"/>
     </g>
    </g>
    <g id="PathCollection_2">
     <defs>
      <path d="M 0 6.123724 
C 1.624031 6.123724 3.181764 5.47849 4.330127 4.330127 
C 5.47849 3.181764 6.123724 1.624031 6.123724 0 
C 6.123724 -1.624031 5.47849 -3.181764 4.330127 -4.330127 
C 3.181764 -5.47849 1.624031 -6.123724 0 -6.123724 
C -1.624031 -6.123724 -3.181764 -5.47849 -4.330127 -4.330127 
C -5.47849 -3.181764 -6.123724 -1.624031 -6.123724 0 
C -6.123724 1.624031 -5.47849 3.181764 -4.330127 4.330127 
C -3.181764 5.47849 -1.624031 6.123724 0 6.123724 
z
" id="m64aee1b54b" style="stroke:#29b6f6;"/>
     </defs>
     <g>
      <use style="fill:#ffffff;stroke:#29b6f6;" x="100" xlink:href="#m64aee1b54b" y="106.411562"/>
     </g>
    </g>
    <g id="text_17">
     <!-- fr -->
     <g transform="translate(118 109.036562)scale(0.1 -0.1)">
      <use xlink:href="#DejaVuSans-102"/>
      <use x="35.205078" xlink:href="#DejaVuSans-114"/>
     </g>
    </g>
    <g id="PathCollection_3">
     <defs>
      <path d="M 0 6.123724 
C 1.624031 6.123724 3.181764 5.47849 4.330127 4.330127 
C 5.47849 3.181764 6.123724 1.624031 6.123724 0 
C 6.123724 -1.624031 5.47849 -3.181764 4.330127 -4.330127 
C 3.181764 -5.47849 1.624031 -6.123724 0 -6.123724 
C -1.624031 -6.123724 -3.181764 -5.47849 -4.330127 -4.330127 
C -5.47849 -3.181764 -6.123724 -1.624031 -6.123724 0 
C -6.123724 1.624031 -5.47849 3.181764 -4.330127 4.330127 
C -3.181764 5.47849 -1.624031 6.123724 0 6.123724 
z
" id="m7c1d44a3bc" style="stroke:#ff7043;"/>
     </defs>
     <g>
      <use style="fill:#ffffff;stroke:#ff7043;" x="100" xlink:href="#m7c1d44a3bc" y="121.089687"/>
     </g>
    </g>
    <g id="text_18">
     <!-- hl -->
     <g transform="translate(118 123.714687)scale(0.1 -0.1)">
      <use xlink:href="#DejaVuSans-104"/>
      <use x="63.378906" xlink:href="#DejaVuSans-108"/>
     </g>
    </g>
    <g id="PathCollection_4">
     <defs>
      <path d="M 0 6.123724 
C 1.624031 6.123724 3.181764 5.47849 4.330127 4.330127 
C 5.47849 3.181764 6.123724 1.624031 6.123724 0 
C 6.123724 -1.624031 5.47849 -3.181764 4.330127 -4.330127 
C 3.181764 -5.47849 1.624031 -6.123724 0 -6.123724 
C -1.624031 -6.123724 -3.181764 -5.47849 -4.330127 -4.330127 
C -5.47849 -3.181764 -6.123724 -1.624031 -6.123724 0 
C -6.123724 1.624031 -5.47849 3.181764 -4.330127 4.330127 
C -3.181764 5.47849 -1.624031 6.123724 0 6.123724 
z
" id="m0127080707" style="stroke:#5c6bc0;"/>
     </defs>
     <g>
      <use style="fill:#ffffff;stroke:#5c6bc0;" x="100" xlink:href="#m0127080707" y="135.767812"/>
     </g>
    </g>
    <g id="text_19">
     <!-- hr -->
     <g transform="translate(118 138.392812)scale(0.1 -0.1)">
      <use xlink:href="#DejaVuSans-104"/>
      <use x="63.378906" xlink:href="#DejaVuSans-114"/>
     </g>
    </g>
   </g>
   <g id="PathCollection_5">
    <g clip-path="url(#p0fbc11bd3b)">
     <use style="fill:#ffffff;stroke:#ffa726;" x="128.843462" xlink:href="#mb1d3e1f667" y="529.826906"/>
     <use style="fill:#ffffff;stroke:#ffa726;" x="145.520922" xlink:href="#mb1d3e1f667" y="515.157546"/>
     <use style="fill:#ffffff;stroke:#ffa726;" x="153.859651" xlink:href="#mb1d3e1f667" y="500.488187"/>
     <use style="fill:#ffffff;stroke:#ffa726;" x="180.960523" xlink:href="#mb1d3e1f667" y="471.149468"/>
     <use style="fill:#ffffff;stroke:#ffa726;" x="199.722665" xlink:href="#mb1d3e1f667" y="456.480109"/>
     <use style="fill:#ffffff;stroke:#ffa726;" x="214.315442" xlink:href="#mb1d3e1f667" y="441.810749"/>
     <use style="fill:#ffffff;stroke:#ffa726;" x="258.093773" xlink:href="#mb1d3e1f667" y="397.802671"/>
     <use style="fill:#ffffff;stroke:#ffa726;" x="276.855915" xlink:href="#mb1d3e1f667" y="383.133312"/>
     <use style="fill:#ffffff;stroke:#ffa726;" x="289.36401" xlink:href="#mb1d3e1f667" y="368.463952"/>
     <use style="fill:#ffffff;stroke:#ffa726;" x="335.227024" xlink:href="#mb1d3e1f667" y="324.455874"/>
     <use style="fill:#ffffff;stroke:#ffa726;" x="349.819801" xlink:href="#mb1d3e1f667" y="309.786514"/>
     <use style="fill:#ffffff;stroke:#ffa726;" x="366.49726" xlink:href="#mb1d3e1f667" y="295.117155"/>
     <use style="fill:#ffffff;stroke:#ffa726;" x="416.529639" xlink:href="#mb1d3e1f667" y="251.109077"/>
     <use style="fill:#ffffff;stroke:#ffa726;" x="431.122416" xlink:href="#mb1d3e1f667" y="236.439717"/>
     <use style="fill:#ffffff;stroke:#ffa726;" x="443.630511" xlink:href="#mb1d3e1f667" y="221.770358"/>
     <use style="fill:#ffffff;stroke:#ffa726;" x="458.223288" xlink:href="#mb1d3e1f667" y="207.100998"/>
     <use style="fill:#ffffff;stroke:#ffa726;" x="483.239477" xlink:href="#mb1d3e1f667" y="177.762279"/>
     <use style="fill:#ffffff;stroke:#ffa726;" x="560.372727" xlink:href="#mb1d3e1f667" y="104.415482"/>
    </g>
   </g>
   <g id="PathCollection_6">
    <g clip-path="url(#p0fbc11bd3b)">
     <use style="fill:#ffffff;stroke:#29b6f6;" x="122.589415" xlink:href="#m64aee1b54b" y="529.826906"/>
     <use style="fill:#ffffff;stroke:#29b6f6;" x="135.097509" xlink:href="#m64aee1b54b" y="515.157546"/>
     <use style="fill:#ffffff;stroke:#29b6f6;" x="149.690286" xlink:href="#m64aee1b54b" y="500.488187"/>
     <use style="fill:#ffffff;stroke:#29b6f6;" x="176.791158" xlink:href="#m64aee1b54b" y="471.149468"/>
     <use style="fill:#ffffff;stroke:#29b6f6;" x="189.299253" xlink:href="#m64aee1b54b" y="456.480109"/>
     <use style="fill:#ffffff;stroke:#29b6f6;" x="203.89203" xlink:href="#m64aee1b54b" y="441.810749"/>
     <use style="fill:#ffffff;stroke:#29b6f6;" x="245.585679" xlink:href="#m64aee1b54b" y="397.802671"/>
     <use style="fill:#ffffff;stroke:#29b6f6;" x="260.178456" xlink:href="#m64aee1b54b" y="383.133312"/>
     <use style="fill:#ffffff;stroke:#29b6f6;" x="278.940598" xlink:href="#m64aee1b54b" y="368.463952"/>
     <use style="fill:#ffffff;stroke:#29b6f6;" x="320.634247" xlink:href="#m64aee1b54b" y="324.455874"/>
     <use style="fill:#ffffff;stroke:#29b6f6;" x="335.227024" xlink:href="#m64aee1b54b" y="309.786514"/>
     <use style="fill:#ffffff;stroke:#29b6f6;" x="349.819801" xlink:href="#m64aee1b54b" y="295.117155"/>
     <use style="fill:#ffffff;stroke:#29b6f6;" x="397.767497" xlink:href="#m64aee1b54b" y="251.109077"/>
     <use style="fill:#ffffff;stroke:#29b6f6;" x="410.275592" xlink:href="#m64aee1b54b" y="236.439717"/>
     <use style="fill:#ffffff;stroke:#29b6f6;" x="420.699004" xlink:href="#m64aee1b54b" y="221.770358"/>
     <use style="fill:#ffffff;stroke:#29b6f6;" x="437.376463" xlink:href="#m64aee1b54b" y="207.100998"/>
     <use style="fill:#ffffff;stroke:#29b6f6;" x="466.562017" xlink:href="#m64aee1b54b" y="177.762279"/>
     <use style="fill:#ffffff;stroke:#29b6f6;" x="543.695268" xlink:href="#m64aee1b54b" y="104.415482"/>
    </g>
   </g>
   <g id="PathCollection_7">
    <g clip-path="url(#p0fbc11bd3b)">
     <use style="fill:#ffffff;stroke:#ff7043;" x="130.928144" xlink:href="#m7c1d44a3bc" y="529.826906"/>
     <use style="fill:#ffffff;stroke:#ff7043;" x="141.351557" xlink:href="#m7c1d44a3bc" y="515.157546"/>
     <use style="fill:#ffffff;stroke:#ff7043;" x="158.029016" xlink:href="#m7c1d44a3bc" y="500.488187"/>
     <use style="fill:#ffffff;stroke:#ff7043;" x="187.21457" xlink:href="#m7c1d44a3bc" y="471.149468"/>
     <use style="fill:#ffffff;stroke:#ff7043;" x="205.976712" xlink:href="#m7c1d44a3bc" y="456.480109"/>
     <use style="fill:#ffffff;stroke:#ff7043;" x="214.315442" xlink:href="#m7c1d44a3bc" y="441.810749"/>
     <use style="fill:#ffffff;stroke:#ff7043;" x="258.093773" xlink:href="#m7c1d44a3bc" y="397.802671"/>
     <use style="fill:#ffffff;stroke:#ff7043;" x="276.855915" xlink:href="#m7c1d44a3bc" y="383.133312"/>
     <use style="fill:#ffffff;stroke:#ff7043;" x="289.36401" xlink:href="#m7c1d44a3bc" y="368.463952"/>
     <use style="fill:#ffffff;stroke:#ff7043;" x="333.142341" xlink:href="#m7c1d44a3bc" y="324.455874"/>
     <use style="fill:#ffffff;stroke:#ff7043;" x="349.819801" xlink:href="#m7c1d44a3bc" y="309.786514"/>
     <use style="fill:#ffffff;stroke:#ff7043;" x="362.327895" xlink:href="#m7c1d44a3bc" y="295.117155"/>
     <use style="fill:#ffffff;stroke:#ff7043;" x="420.699004" xlink:href="#m7c1d44a3bc" y="251.109077"/>
     <use style="fill:#ffffff;stroke:#ff7043;" x="429.037733" xlink:href="#m7c1d44a3bc" y="236.439717"/>
     <use style="fill:#ffffff;stroke:#ff7043;" x="441.545828" xlink:href="#m7c1d44a3bc" y="221.770358"/>
     <use style="fill:#ffffff;stroke:#ff7043;" x="458.223288" xlink:href="#m7c1d44a3bc" y="207.100998"/>
     <use style="fill:#ffffff;stroke:#ff7043;" x="479.070112" xlink:href="#m7c1d44a3bc" y="177.762279"/>
     <use style="fill:#ffffff;stroke:#ff7043;" x="552.033998" xlink:href="#m7c1d44a3bc" y="104.415482"/>
    </g>
   </g>
   <g id="PathCollection_8">
    <g clip-path="url(#p0fbc11bd3b)">
     <use style="fill:#ffffff;stroke:#5c6bc0;" x="122.589415" xlink:href="#m0127080707" y="529.826906"/>
     <use style="fill:#ffffff;stroke:#5c6bc0;" x="135.097509" xlink:href="#m0127080707" y="515.157546"/>
     <use style="fill:#ffffff;stroke:#5c6bc0;" x="151.774969" xlink:href="#m0127080707" y="500.488187"/>
     <use style="fill:#ffffff;stroke:#5c6bc0;" x="166.367746" xlink:href="#m0127080707" y="471.149468"/>
     <use style="fill:#ffffff;stroke:#5c6bc0;" x="178.875841" xlink:href="#m0127080707" y="456.480109"/>
     <use style="fill:#ffffff;stroke:#5c6bc0;" x="193.468618" xlink:href="#m0127080707" y="441.810749"/>
     <use style="fill:#ffffff;stroke:#5c6bc0;" x="239.331631" xlink:href="#m0127080707" y="397.802671"/>
     <use style="fill:#ffffff;stroke:#5c6bc0;" x="258.093773" xlink:href="#m0127080707" y="383.133312"/>
     <use style="fill:#ffffff;stroke:#5c6bc0;" x="276.855915" xlink:href="#m0127080707" y="368.463952"/>
     <use style="fill:#ffffff;stroke:#5c6bc0;" x="314.380199" xlink:href="#m0127080707" y="324.455874"/>
     <use style="fill:#ffffff;stroke:#5c6bc0;" x="331.057659" xlink:href="#m0127080707" y="309.786514"/>
     <use style="fill:#ffffff;stroke:#5c6bc0;" x="347.735118" xlink:href="#m0127080707" y="295.117155"/>
     <use style="fill:#ffffff;stroke:#5c6bc0;" x="397.767497" xlink:href="#m0127080707" y="251.109077"/>
     <use style="fill:#ffffff;stroke:#5c6bc0;" x="412.360274" xlink:href="#m0127080707" y="236.439717"/>
     <use style="fill:#ffffff;stroke:#5c6bc0;" x="424.868369" xlink:href="#m0127080707" y="221.770358"/>
     <use style="fill:#ffffff;stroke:#5c6bc0;" x="439.461146" xlink:href="#m0127080707" y="207.100998"/>
     <use style="fill:#ffffff;stroke:#5c6bc0;" x="468.6467" xlink:href="#m0127080707" y="177.762279"/>
     <use style="fill:#ffffff;stroke:#5c6bc0;" x="543.695268" xlink:href="#m0127080707" y="104.415482"/>
    </g>
   </g>
  </g>
 </g>
 <defs>
  <clipPath id="p0fbc11bd3b">
   <rect height="498.96" width="502.2" x="81" y="77.76"/>
  </clipPath>
 </defs>
</svg>
