<?xml version="1.0" encoding="utf-8" standalone="no"?>
<!DOCTYPE svg PUBLIC "-//W3C//DTD SVG 1.1//EN"
  "http://www.w3.org/Graphics/SVG/1.1/DTD/svg11.dtd">
<svg height="648pt" version="1.1" viewBox="0 0 648 648" width="648pt" xmlns="http://www.w3.org/2000/svg" xmlns:xlink="http://www.w3.org/1999/xlink">
 <metadata>
  <rdf:RDF xmlns:cc="http://creativecommons.org/ns#" xmlns:dc="http://purl.org/dc/elements/1.1/" xmlns:rdf="http://www.w3.org/1999/02/22-rdf-syntax-ns#">
   <cc:Work>
    <dc:type rdf:resource="http://purl.org/dc/dcmitype/StillImage"/>
    <dc:date>2022-04-04T14:29:58.049588</dc:date>
    <dc:format>image/svg+xml</dc:format>
    <dc:creator>
     <cc:Agent>
      <dc:title>Matplotlib v3.4.3, https://matplotlib.org/</dc:title>
     </cc:Agent>
    </dc:creator>
   </cc:Work>
  </rdf:RDF>
 </metadata>
 <defs>
  <style type="text/css">*{stroke-linecap:butt;stroke-linejoin:round;}</style>
 </defs>
 <g id="figure_1">
  <g id="patch_1">
   <path d="M 0 648 
L 648 648 
L 648 0 
L 0 0 
z
" style="fill:none;"/>
  </g>
  <g id="axes_1">
   <g id="patch_2">
    <path d="M 81 567 
L 583.2 567 
L 583.2 77.76 
L 81 77.76 
z
" style="fill:#ffffff;"/>
   </g>
   <g id="matplotlib.axis_1">
    <g id="xtick_1">
     <g id="line2d_1">
      <defs>
       <path d="M 0 0 
L 0 3.5 
" id="mdf0121638a" style="stroke:#000000;stroke-width:0.8;"/>
      </defs>
      <g>
       <use style="stroke:#000000;stroke-width:0.8;" x="103.827273" xlink:href="#mdf0121638a" y="567"/>
      </g>
     </g>
     <g id="text_1">
      <!-- 0.0 -->
      <g transform="translate(95.87571 581.598438)scale(0.1 -0.1)">
       <defs>
        <path d="M 2034 4250 
Q 1547 4250 1301 3770 
Q 1056 3291 1056 2328 
Q 1056 1369 1301 889 
Q 1547 409 2034 409 
Q 2525 409 2770 889 
Q 3016 1369 3016 2328 
Q 3016 3291 2770 3770 
Q 2525 4250 2034 4250 
z
M 2034 4750 
Q 2819 4750 3233 4129 
Q 3647 3509 3647 2328 
Q 3647 1150 3233 529 
Q 2819 -91 2034 -91 
Q 1250 -91 836 529 
Q 422 1150 422 2328 
Q 422 3509 836 4129 
Q 1250 4750 2034 4750 
z
" id="DejaVuSans-30" transform="scale(0.015625)"/>
        <path d="M 684 794 
L 1344 794 
L 1344 0 
L 684 0 
L 684 794 
z
" id="DejaVuSans-2e" transform="scale(0.015625)"/>
       </defs>
       <use xlink:href="#DejaVuSans-30"/>
       <use x="63.623047" xlink:href="#DejaVuSans-2e"/>
       <use x="95.410156" xlink:href="#DejaVuSans-30"/>
      </g>
     </g>
    </g>
    <g id="xtick_2">
     <g id="line2d_2">
      <g>
       <use style="stroke:#000000;stroke-width:0.8;" x="208.061395" xlink:href="#mdf0121638a" y="567"/>
      </g>
     </g>
     <g id="text_2">
      <!-- 0.1 -->
      <g transform="translate(200.109832 581.598438)scale(0.1 -0.1)">
       <defs>
        <path d="M 794 531 
L 1825 531 
L 1825 4091 
L 703 3866 
L 703 4441 
L 1819 4666 
L 2450 4666 
L 2450 531 
L 3481 531 
L 3481 0 
L 794 0 
L 794 531 
z
" id="DejaVuSans-31" transform="scale(0.015625)"/>
       </defs>
       <use xlink:href="#DejaVuSans-30"/>
       <use x="63.623047" xlink:href="#DejaVuSans-2e"/>
       <use x="95.410156" xlink:href="#DejaVuSans-31"/>
      </g>
     </g>
    </g>
    <g id="xtick_3">
     <g id="line2d_3">
      <g>
       <use style="stroke:#000000;stroke-width:0.8;" x="312.295517" xlink:href="#mdf0121638a" y="567"/>
      </g>
     </g>
     <g id="text_3">
      <!-- 0.2 -->
      <g transform="translate(304.343954 581.598438)scale(0.1 -0.1)">
       <defs>
        <path d="M 1228 531 
L 3431 531 
L 3431 0 
L 469 0 
L 469 531 
Q 828 903 1448 1529 
Q 2069 2156 2228 2338 
Q 2531 2678 2651 2914 
Q 2772 3150 2772 3378 
Q 2772 3750 2511 3984 
Q 2250 4219 1831 4219 
Q 1534 4219 1204 4116 
Q 875 4013 500 3803 
L 500 4441 
Q 881 4594 1212 4672 
Q 1544 4750 1819 4750 
Q 2544 4750 2975 4387 
Q 3406 4025 3406 3419 
Q 3406 3131 3298 2873 
Q 3191 2616 2906 2266 
Q 2828 2175 2409 1742 
Q 1991 1309 1228 531 
z
" id="DejaVuSans-32" transform="scale(0.015625)"/>
       </defs>
       <use xlink:href="#DejaVuSans-30"/>
       <use x="63.623047" xlink:href="#DejaVuSans-2e"/>
       <use x="95.410156" xlink:href="#DejaVuSans-32"/>
      </g>
     </g>
    </g>
    <g id="xtick_4">
     <g id="line2d_4">
      <g>
       <use style="stroke:#000000;stroke-width:0.8;" x="416.529639" xlink:href="#mdf0121638a" y="567"/>
      </g>
     </g>
     <g id="text_4">
      <!-- 0.3 -->
      <g transform="translate(408.578076 581.598438)scale(0.1 -0.1)">
       <defs>
        <path d="M 2597 2516 
Q 3050 2419 3304 2112 
Q 3559 1806 3559 1356 
Q 3559 666 3084 287 
Q 2609 -91 1734 -91 
Q 1441 -91 1130 -33 
Q 819 25 488 141 
L 488 750 
Q 750 597 1062 519 
Q 1375 441 1716 441 
Q 2309 441 2620 675 
Q 2931 909 2931 1356 
Q 2931 1769 2642 2001 
Q 2353 2234 1838 2234 
L 1294 2234 
L 1294 2753 
L 1863 2753 
Q 2328 2753 2575 2939 
Q 2822 3125 2822 3475 
Q 2822 3834 2567 4026 
Q 2313 4219 1838 4219 
Q 1578 4219 1281 4162 
Q 984 4106 628 3988 
L 628 4550 
Q 988 4650 1302 4700 
Q 1616 4750 1894 4750 
Q 2613 4750 3031 4423 
Q 3450 4097 3450 3541 
Q 3450 3153 3228 2886 
Q 3006 2619 2597 2516 
z
" id="DejaVuSans-33" transform="scale(0.015625)"/>
       </defs>
       <use xlink:href="#DejaVuSans-30"/>
       <use x="63.623047" xlink:href="#DejaVuSans-2e"/>
       <use x="95.410156" xlink:href="#DejaVuSans-33"/>
      </g>
     </g>
    </g>
    <g id="xtick_5">
     <g id="line2d_5">
      <g>
       <use style="stroke:#000000;stroke-width:0.8;" x="520.763761" xlink:href="#mdf0121638a" y="567"/>
      </g>
     </g>
     <g id="text_5">
      <!-- 0.4 -->
      <g transform="translate(512.812198 581.598438)scale(0.1 -0.1)">
       <defs>
        <path d="M 2419 4116 
L 825 1625 
L 2419 1625 
L 2419 4116 
z
M 2253 4666 
L 3047 4666 
L 3047 1625 
L 3713 1625 
L 3713 1100 
L 3047 1100 
L 3047 0 
L 2419 0 
L 2419 1100 
L 313 1100 
L 313 1709 
L 2253 4666 
z
" id="DejaVuSans-34" transform="scale(0.015625)"/>
       </defs>
       <use xlink:href="#DejaVuSans-30"/>
       <use x="63.623047" xlink:href="#DejaVuSans-2e"/>
       <use x="95.410156" xlink:href="#DejaVuSans-34"/>
      </g>
     </g>
    </g>
    <g id="text_6">
     <!-- voltage -->
     <g transform="translate(313.417188 595.276562)scale(0.1 -0.1)">
      <defs>
       <path d="M 191 3500 
L 800 3500 
L 1894 563 
L 2988 3500 
L 3597 3500 
L 2284 0 
L 1503 0 
L 191 3500 
z
" id="DejaVuSans-76" transform="scale(0.015625)"/>
       <path d="M 1959 3097 
Q 1497 3097 1228 2736 
Q 959 2375 959 1747 
Q 959 1119 1226 758 
Q 1494 397 1959 397 
Q 2419 397 2687 759 
Q 2956 1122 2956 1747 
Q 2956 2369 2687 2733 
Q 2419 3097 1959 3097 
z
M 1959 3584 
Q 2709 3584 3137 3096 
Q 3566 2609 3566 1747 
Q 3566 888 3137 398 
Q 2709 -91 1959 -91 
Q 1206 -91 779 398 
Q 353 888 353 1747 
Q 353 2609 779 3096 
Q 1206 3584 1959 3584 
z
" id="DejaVuSans-6f" transform="scale(0.015625)"/>
       <path d="M 603 4863 
L 1178 4863 
L 1178 0 
L 603 0 
L 603 4863 
z
" id="DejaVuSans-6c" transform="scale(0.015625)"/>
       <path d="M 1172 4494 
L 1172 3500 
L 2356 3500 
L 2356 3053 
L 1172 3053 
L 1172 1153 
Q 1172 725 1289 603 
Q 1406 481 1766 481 
L 2356 481 
L 2356 0 
L 1766 0 
Q 1100 0 847 248 
Q 594 497 594 1153 
L 594 3053 
L 172 3053 
L 172 3500 
L 594 3500 
L 594 4494 
L 1172 4494 
z
" id="DejaVuSans-74" transform="scale(0.015625)"/>
       <path d="M 2194 1759 
Q 1497 1759 1228 1600 
Q 959 1441 959 1056 
Q 959 750 1161 570 
Q 1363 391 1709 391 
Q 2188 391 2477 730 
Q 2766 1069 2766 1631 
L 2766 1759 
L 2194 1759 
z
M 3341 1997 
L 3341 0 
L 2766 0 
L 2766 531 
Q 2569 213 2275 61 
Q 1981 -91 1556 -91 
Q 1019 -91 701 211 
Q 384 513 384 1019 
Q 384 1609 779 1909 
Q 1175 2209 1959 2209 
L 2766 2209 
L 2766 2266 
Q 2766 2663 2505 2880 
Q 2244 3097 1772 3097 
Q 1472 3097 1187 3025 
Q 903 2953 641 2809 
L 641 3341 
Q 956 3463 1253 3523 
Q 1550 3584 1831 3584 
Q 2591 3584 2966 3190 
Q 3341 2797 3341 1997 
z
" id="DejaVuSans-61" transform="scale(0.015625)"/>
       <path d="M 2906 1791 
Q 2906 2416 2648 2759 
Q 2391 3103 1925 3103 
Q 1463 3103 1205 2759 
Q 947 2416 947 1791 
Q 947 1169 1205 825 
Q 1463 481 1925 481 
Q 2391 481 2648 825 
Q 2906 1169 2906 1791 
z
M 3481 434 
Q 3481 -459 3084 -895 
Q 2688 -1331 1869 -1331 
Q 1566 -1331 1297 -1286 
Q 1028 -1241 775 -1147 
L 775 -588 
Q 1028 -725 1275 -790 
Q 1522 -856 1778 -856 
Q 2344 -856 2625 -561 
Q 2906 -266 2906 331 
L 2906 616 
Q 2728 306 2450 153 
Q 2172 0 1784 0 
Q 1141 0 747 490 
Q 353 981 353 1791 
Q 353 2603 747 3093 
Q 1141 3584 1784 3584 
Q 2172 3584 2450 3431 
Q 2728 3278 2906 2969 
L 2906 3500 
L 3481 3500 
L 3481 434 
z
" id="DejaVuSans-67" transform="scale(0.015625)"/>
       <path d="M 3597 1894 
L 3597 1613 
L 953 1613 
Q 991 1019 1311 708 
Q 1631 397 2203 397 
Q 2534 397 2845 478 
Q 3156 559 3463 722 
L 3463 178 
Q 3153 47 2828 -22 
Q 2503 -91 2169 -91 
Q 1331 -91 842 396 
Q 353 884 353 1716 
Q 353 2575 817 3079 
Q 1281 3584 2069 3584 
Q 2775 3584 3186 3129 
Q 3597 2675 3597 1894 
z
M 3022 2063 
Q 3016 2534 2758 2815 
Q 2500 3097 2075 3097 
Q 1594 3097 1305 2825 
Q 1016 2553 972 2059 
L 3022 2063 
z
" id="DejaVuSans-65" transform="scale(0.015625)"/>
      </defs>
      <use xlink:href="#DejaVuSans-76"/>
      <use x="59.179688" xlink:href="#DejaVuSans-6f"/>
      <use x="120.361328" xlink:href="#DejaVuSans-6c"/>
      <use x="148.144531" xlink:href="#DejaVuSans-74"/>
      <use x="187.353516" xlink:href="#DejaVuSans-61"/>
      <use x="248.632812" xlink:href="#DejaVuSans-67"/>
      <use x="312.109375" xlink:href="#DejaVuSans-65"/>
     </g>
    </g>
   </g>
   <g id="matplotlib.axis_2">
    <g id="ytick_1">
     <g id="line2d_6">
      <defs>
       <path d="M 0 0 
L -3.5 0 
" id="m90dfd400d1" style="stroke:#000000;stroke-width:0.8;"/>
      </defs>
      <g>
       <use style="stroke:#000000;stroke-width:0.8;" x="81" xlink:href="#m90dfd400d1" y="535.404"/>
      </g>
     </g>
     <g id="text_7">
      <!-- 0 -->
      <g transform="translate(67.6375 539.203219)scale(0.1 -0.1)">
       <use xlink:href="#DejaVuSans-30"/>
      </g>
     </g>
    </g>
    <g id="ytick_2">
     <g id="line2d_7">
      <g>
       <use style="stroke:#000000;stroke-width:0.8;" x="81" xlink:href="#m90dfd400d1" y="463.486037"/>
      </g>
     </g>
     <g id="text_8">
      <!-- 5 -->
      <g transform="translate(67.6375 467.285256)scale(0.1 -0.1)">
       <defs>
        <path d="M 691 4666 
L 3169 4666 
L 3169 4134 
L 1269 4134 
L 1269 2991 
Q 1406 3038 1543 3061 
Q 1681 3084 1819 3084 
Q 2600 3084 3056 2656 
Q 3513 2228 3513 1497 
Q 3513 744 3044 326 
Q 2575 -91 1722 -91 
Q 1428 -91 1123 -41 
Q 819 9 494 109 
L 494 744 
Q 775 591 1075 516 
Q 1375 441 1709 441 
Q 2250 441 2565 725 
Q 2881 1009 2881 1497 
Q 2881 1984 2565 2268 
Q 2250 2553 1709 2553 
Q 1456 2553 1204 2497 
Q 953 2441 691 2322 
L 691 4666 
z
" id="DejaVuSans-35" transform="scale(0.015625)"/>
       </defs>
       <use xlink:href="#DejaVuSans-35"/>
      </g>
     </g>
    </g>
    <g id="ytick_3">
     <g id="line2d_8">
      <g>
       <use style="stroke:#000000;stroke-width:0.8;" x="81" xlink:href="#m90dfd400d1" y="391.568074"/>
      </g>
     </g>
     <g id="text_9">
      <!-- 10 -->
      <g transform="translate(61.275 395.367292)scale(0.1 -0.1)">
       <use xlink:href="#DejaVuSans-31"/>
       <use x="63.623047" xlink:href="#DejaVuSans-30"/>
      </g>
     </g>
    </g>
    <g id="ytick_4">
     <g id="line2d_9">
      <g>
       <use style="stroke:#000000;stroke-width:0.8;" x="81" xlink:href="#m90dfd400d1" y="319.65011"/>
      </g>
     </g>
     <g id="text_10">
      <!-- 15 -->
      <g transform="translate(61.275 323.449329)scale(0.1 -0.1)">
       <use xlink:href="#DejaVuSans-31"/>
       <use x="63.623047" xlink:href="#DejaVuSans-35"/>
      </g>
     </g>
    </g>
    <g id="ytick_5">
     <g id="line2d_10">
      <g>
       <use style="stroke:#000000;stroke-width:0.8;" x="81" xlink:href="#m90dfd400d1" y="247.732147"/>
      </g>
     </g>
     <g id="text_11">
      <!-- 20 -->
      <g transform="translate(61.275 251.531365)scale(0.1 -0.1)">
       <use xlink:href="#DejaVuSans-32"/>
       <use x="63.623047" xlink:href="#DejaVuSans-30"/>
      </g>
     </g>
    </g>
    <g id="ytick_6">
     <g id="line2d_11">
      <g>
       <use style="stroke:#000000;stroke-width:0.8;" x="81" xlink:href="#m90dfd400d1" y="175.814183"/>
      </g>
     </g>
     <g id="text_12">
      <!-- 25 -->
      <g transform="translate(61.275 179.613402)scale(0.1 -0.1)">
       <use xlink:href="#DejaVuSans-32"/>
       <use x="63.623047" xlink:href="#DejaVuSans-35"/>
      </g>
     </g>
    </g>
    <g id="ytick_7">
     <g id="line2d_12">
      <g>
       <use style="stroke:#000000;stroke-width:0.8;" x="81" xlink:href="#m90dfd400d1" y="103.89622"/>
      </g>
     </g>
     <g id="text_13">
      <!-- 30 -->
      <g transform="translate(61.275 107.695438)scale(0.1 -0.1)">
       <use xlink:href="#DejaVuSans-33"/>
       <use x="63.623047" xlink:href="#DejaVuSans-30"/>
      </g>
     </g>
    </g>
    <g id="text_14">
     <!-- weight (g) -->
     <g transform="translate(55.195312 347.902656)rotate(-90)scale(0.1 -0.1)">
      <defs>
       <path d="M 269 3500 
L 844 3500 
L 1563 769 
L 2278 3500 
L 2956 3500 
L 3675 769 
L 4391 3500 
L 4966 3500 
L 4050 0 
L 3372 0 
L 2619 2869 
L 1863 0 
L 1184 0 
L 269 3500 
z
" id="DejaVuSans-77" transform="scale(0.015625)"/>
       <path d="M 603 3500 
L 1178 3500 
L 1178 0 
L 603 0 
L 603 3500 
z
M 603 4863 
L 1178 4863 
L 1178 4134 
L 603 4134 
L 603 4863 
z
" id="DejaVuSans-69" transform="scale(0.015625)"/>
       <path d="M 3513 2113 
L 3513 0 
L 2938 0 
L 2938 2094 
Q 2938 2591 2744 2837 
Q 2550 3084 2163 3084 
Q 1697 3084 1428 2787 
Q 1159 2491 1159 1978 
L 1159 0 
L 581 0 
L 581 4863 
L 1159 4863 
L 1159 2956 
Q 1366 3272 1645 3428 
Q 1925 3584 2291 3584 
Q 2894 3584 3203 3211 
Q 3513 2838 3513 2113 
z
" id="DejaVuSans-68" transform="scale(0.015625)"/>
       <path id="DejaVuSans-20" transform="scale(0.015625)"/>
       <path d="M 1984 4856 
Q 1566 4138 1362 3434 
Q 1159 2731 1159 2009 
Q 1159 1288 1364 580 
Q 1569 -128 1984 -844 
L 1484 -844 
Q 1016 -109 783 600 
Q 550 1309 550 2009 
Q 550 2706 781 3412 
Q 1013 4119 1484 4856 
L 1984 4856 
z
" id="DejaVuSans-28" transform="scale(0.015625)"/>
       <path d="M 513 4856 
L 1013 4856 
Q 1481 4119 1714 3412 
Q 1947 2706 1947 2009 
Q 1947 1309 1714 600 
Q 1481 -109 1013 -844 
L 513 -844 
Q 928 -128 1133 580 
Q 1338 1288 1338 2009 
Q 1338 2731 1133 3434 
Q 928 4138 513 4856 
z
" id="DejaVuSans-29" transform="scale(0.015625)"/>
      </defs>
      <use xlink:href="#DejaVuSans-77"/>
      <use x="81.787109" xlink:href="#DejaVuSans-65"/>
      <use x="143.310547" xlink:href="#DejaVuSans-69"/>
      <use x="171.09375" xlink:href="#DejaVuSans-67"/>
      <use x="234.570312" xlink:href="#DejaVuSans-68"/>
      <use x="297.949219" xlink:href="#DejaVuSans-74"/>
      <use x="337.158203" xlink:href="#DejaVuSans-20"/>
      <use x="368.945312" xlink:href="#DejaVuSans-28"/>
      <use x="407.958984" xlink:href="#DejaVuSans-67"/>
      <use x="471.435547" xlink:href="#DejaVuSans-29"/>
     </g>
    </g>
   </g>
   <g id="line2d_13">
    <path clip-path="url(#p20e7b9d432)" d="M 103.827273 541.539069 
L 108.438843 537.137991 
L 113.050413 532.736913 
L 117.661983 528.335835 
L 122.273554 523.934757 
L 126.885124 519.533679 
L 131.496694 515.132601 
L 136.108264 510.731523 
L 140.719835 506.330446 
L 145.331405 501.929368 
L 149.942975 497.52829 
L 154.554545 493.127212 
L 159.166116 488.726134 
L 163.777686 484.325056 
L 168.389256 479.923978 
L 173.000826 475.5229 
L 177.612397 471.121822 
L 182.223967 466.720744 
L 186.835537 462.319666 
L 191.447107 457.918589 
L 196.058678 453.517511 
L 200.670248 449.116433 
L 205.281818 444.715355 
L 209.893388 440.314277 
L 214.504959 435.913199 
L 219.116529 431.512121 
L 223.728099 427.111043 
L 228.339669 422.709965 
L 232.95124 418.308887 
L 237.56281 413.907809 
L 242.17438 409.506731 
L 246.78595 405.105654 
L 251.397521 400.704576 
L 256.009091 396.303498 
L 260.620661 391.90242 
L 265.232231 387.501342 
L 269.843802 383.100264 
L 274.455372 378.699186 
L 279.066942 374.298108 
L 283.678512 369.89703 
L 288.290083 365.495952 
L 292.901653 361.094874 
L 297.513223 356.693796 
L 302.124793 352.292719 
L 306.736364 347.891641 
L 311.347934 343.490563 
L 315.959504 339.089485 
L 320.571074 334.688407 
L 325.182645 330.287329 
L 329.794215 325.886251 
L 334.405785 321.485173 
L 339.017355 317.084095 
L 343.628926 312.683017 
L 348.240496 308.281939 
L 352.852066 303.880862 
L 357.463636 299.479784 
L 362.075207 295.078706 
L 366.686777 290.677628 
L 371.298347 286.27655 
L 375.909917 281.875472 
L 380.521488 277.474394 
L 385.133058 273.073316 
L 389.744628 268.672238 
L 394.356198 264.27116 
L 398.967769 259.870082 
L 403.579339 255.469004 
L 408.190909 251.067927 
L 412.802479 246.666849 
L 417.41405 242.265771 
L 422.02562 237.864693 
L 426.63719 233.463615 
L 431.24876 229.062537 
L 435.860331 224.661459 
L 440.471901 220.260381 
L 445.083471 215.859303 
L 449.695041 211.458225 
L 454.306612 207.057147 
L 458.918182 202.65607 
L 463.529752 198.254992 
L 468.141322 193.853914 
L 472.752893 189.452836 
L 477.364463 185.051758 
L 481.976033 180.65068 
L 486.587603 176.249602 
L 491.199174 171.848524 
L 495.810744 167.447446 
L 500.422314 163.046368 
L 505.033884 158.64529 
L 509.645455 154.244212 
L 514.257025 149.843135 
L 518.868595 145.442057 
L 523.480165 141.040979 
L 528.091736 136.639901 
L 532.703306 132.238823 
L 537.314876 127.837745 
L 541.926446 123.436667 
L 546.538017 119.035589 
L 551.149587 114.634511 
L 555.761157 110.233433 
L 560.372727 105.832355 
" style="fill:none;stroke:#ffa726;stroke-linecap:square;stroke-opacity:0.5;stroke-width:2;"/>
   </g>
   <g id="line2d_14">
    <path clip-path="url(#p20e7b9d432)" d="M 103.827273 535.464594 
L 108.270384 531.065943 
L 112.713495 526.667293 
L 117.156606 522.268642 
L 121.599717 517.869992 
L 126.042828 513.471341 
L 130.485939 509.07269 
L 134.92905 504.67404 
L 139.372161 500.275389 
L 143.815272 495.876738 
L 148.258383 491.478088 
L 152.701494 487.079437 
L 157.144605 482.680787 
L 161.587717 478.282136 
L 166.030828 473.883485 
L 170.473939 469.484835 
L 174.91705 465.086184 
L 179.360161 460.687533 
L 183.803272 456.288883 
L 188.246383 451.890232 
L 192.689494 447.491582 
L 197.132605 443.092931 
L 201.575716 438.69428 
L 206.018827 434.29563 
L 210.461938 429.896979 
L 214.905049 425.498328 
L 219.34816 421.099678 
L 223.791271 416.701027 
L 228.234382 412.302376 
L 232.677493 407.903726 
L 237.120605 403.505075 
L 241.563716 399.106425 
L 246.006827 394.707774 
L 250.449938 390.309123 
L 254.893049 385.910473 
L 259.33616 381.511822 
L 263.779271 377.113171 
L 268.222382 372.714521 
L 272.665493 368.31587 
L 277.108604 363.91722 
L 281.551715 359.518569 
L 285.994826 355.119918 
L 290.437937 350.721268 
L 294.881048 346.322617 
L 299.324159 341.923966 
L 303.76727 337.525316 
L 308.210382 333.126665 
L 312.653493 328.728015 
L 317.096604 324.329364 
L 321.539715 319.930713 
L 325.982826 315.532063 
L 330.425937 311.133412 
L 334.869048 306.734761 
L 339.312159 302.336111 
L 343.75527 297.93746 
L 348.198381 293.53881 
L 352.641492 289.140159 
L 357.084603 284.741508 
L 361.527714 280.342858 
L 365.970825 275.944207 
L 370.413936 271.545556 
L 374.857047 267.146906 
L 379.300158 262.748255 
L 383.74327 258.349604 
L 388.186381 253.950954 
L 392.629492 249.552303 
L 397.072603 245.153653 
L 401.515714 240.755002 
L 405.958825 236.356351 
L 410.401936 231.957701 
L 414.845047 227.55905 
L 419.288158 223.160399 
L 423.731269 218.761749 
L 428.17438 214.363098 
L 432.617491 209.964448 
L 437.060602 205.565797 
L 441.503713 201.167146 
L 445.946824 196.768496 
L 450.389935 192.369845 
L 454.833047 187.971194 
L 459.276158 183.572544 
L 463.719269 179.173893 
L 468.16238 174.775243 
L 472.605491 170.376592 
L 477.048602 165.977941 
L 481.491713 161.579291 
L 485.934824 157.18064 
L 490.377935 152.781989 
L 494.821046 148.383339 
L 499.264157 143.984688 
L 503.707268 139.586037 
L 508.150379 135.187387 
L 512.59349 130.788736 
L 517.036601 126.390086 
L 521.479712 121.991435 
L 525.922824 117.592784 
L 530.365935 113.194134 
L 534.809046 108.795483 
L 539.252157 104.396832 
L 543.695268 99.998182 
" style="fill:none;stroke:#29b6f6;stroke-linecap:square;stroke-opacity:0.5;stroke-width:2;"/>
   </g>
   <g id="line2d_15">
    <path clip-path="url(#p20e7b9d432)" d="M 103.827273 544.761818 
L 108.354613 540.367642 
L 112.881954 535.973466 
L 117.409295 531.579289 
L 121.936635 527.185113 
L 126.463976 522.790937 
L 130.991317 518.39676 
L 135.518657 514.002584 
L 140.045998 509.608408 
L 144.573339 505.214231 
L 149.100679 500.820055 
L 153.62802 496.425879 
L 158.155361 492.031702 
L 162.682701 487.637526 
L 167.210042 483.24335 
L 171.737383 478.849173 
L 176.264723 474.454997 
L 180.792064 470.060821 
L 185.319405 465.666644 
L 189.846745 461.272468 
L 194.374086 456.878292 
L 198.901426 452.484115 
L 203.428767 448.089939 
L 207.956108 443.695763 
L 212.483448 439.301586 
L 217.010789 434.90741 
L 221.53813 430.513234 
L 226.06547 426.119057 
L 230.592811 421.724881 
L 235.120152 417.330705 
L 239.647492 412.936528 
L 244.174833 408.542352 
L 248.702174 404.148176 
L 253.229514 399.753999 
L 257.756855 395.359823 
L 262.284196 390.965647 
L 266.811536 386.57147 
L 271.338877 382.177294 
L 275.866218 377.783118 
L 280.393558 373.388941 
L 284.920899 368.994765 
L 289.44824 364.600589 
L 293.97558 360.206412 
L 298.502921 355.812236 
L 303.030262 351.41806 
L 307.557602 347.023883 
L 312.084943 342.629707 
L 316.612283 338.235531 
L 321.139624 333.841354 
L 325.666965 329.447178 
L 330.194305 325.053002 
L 334.721646 320.658825 
L 339.248987 316.264649 
L 343.776327 311.870473 
L 348.303668 307.476296 
L 352.831009 303.08212 
L 357.358349 298.687944 
L 361.88569 294.293768 
L 366.413031 289.899591 
L 370.940371 285.505415 
L 375.467712 281.111239 
L 379.995053 276.717062 
L 384.522393 272.322886 
L 389.049734 267.92871 
L 393.577075 263.534533 
L 398.104415 259.140357 
L 402.631756 254.746181 
L 407.159097 250.352004 
L 411.686437 245.957828 
L 416.213778 241.563652 
L 420.741119 237.169475 
L 425.268459 232.775299 
L 429.7958 228.381123 
L 434.32314 223.986946 
L 438.850481 219.59277 
L 443.377822 215.198594 
L 447.905162 210.804417 
L 452.432503 206.410241 
L 456.959844 202.016065 
L 461.487184 197.621888 
L 466.014525 193.227712 
L 470.541866 188.833536 
L 475.069206 184.439359 
L 479.596547 180.045183 
L 484.123888 175.651007 
L 488.651228 171.25683 
L 493.178569 166.862654 
L 497.70591 162.468478 
L 502.23325 158.074301 
L 506.760591 153.680125 
L 511.287932 149.285949 
L 515.815272 144.891772 
L 520.342613 140.497596 
L 524.869954 136.10342 
L 529.397294 131.709243 
L 533.924635 127.315067 
L 538.451976 122.920891 
L 542.979316 118.526714 
L 547.506657 114.132538 
L 552.033998 109.738362 
" style="fill:none;stroke:#ff7043;stroke-linecap:square;stroke-opacity:0.5;stroke-width:2;"/>
   </g>
   <g id="line2d_16">
    <path clip-path="url(#p20e7b9d432)" d="M 103.827273 529.601592 
L 108.270384 525.28374 
L 112.713495 520.965888 
L 117.156606 516.648035 
L 121.599717 512.330183 
L 126.042828 508.01233 
L 130.485939 503.694478 
L 134.92905 499.376626 
L 139.372161 495.058773 
L 143.815272 490.740921 
L 148.258383 486.423069 
L 152.701494 482.105216 
L 157.144605 477.787364 
L 161.587717 473.469512 
L 166.030828 469.151659 
L 170.473939 464.833807 
L 174.91705 460.515954 
L 179.360161 456.198102 
L 183.803272 451.88025 
L 188.246383 447.562397 
L 192.689494 443.244545 
L 197.132605 438.926693 
L 201.575716 434.60884 
L 206.018827 430.290988 
L 210.461938 425.973136 
L 214.905049 421.655283 
L 219.34816 417.337431 
L 223.791271 413.019578 
L 228.234382 408.701726 
L 232.677493 404.383874 
L 237.120605 400.066021 
L 241.563716 395.748169 
L 246.006827 391.430317 
L 250.449938 387.112464 
L 254.893049 382.794612 
L 259.33616 378.47676 
L 263.779271 374.158907 
L 268.222382 369.841055 
L 272.665493 365.523202 
L 277.108604 361.20535 
L 281.551715 356.887498 
L 285.994826 352.569645 
L 290.437937 348.251793 
L 294.881048 343.933941 
L 299.324159 339.616088 
L 303.76727 335.298236 
L 308.210382 330.980383 
L 312.653493 326.662531 
L 317.096604 322.344679 
L 321.539715 318.026826 
L 325.982826 313.708974 
L 330.425937 309.391122 
L 334.869048 305.073269 
L 339.312159 300.755417 
L 343.75527 296.437565 
L 348.198381 292.119712 
L 352.641492 287.80186 
L 357.084603 283.484007 
L 361.527714 279.166155 
L 365.970825 274.848303 
L 370.413936 270.53045 
L 374.857047 266.212598 
L 379.300158 261.894746 
L 383.74327 257.576893 
L 388.186381 253.259041 
L 392.629492 248.941189 
L 397.072603 244.623336 
L 401.515714 240.305484 
L 405.958825 235.987631 
L 410.401936 231.669779 
L 414.845047 227.351927 
L 419.288158 223.034074 
L 423.731269 218.716222 
L 428.17438 214.39837 
L 432.617491 210.080517 
L 437.060602 205.762665 
L 441.503713 201.444813 
L 445.946824 197.12696 
L 450.389935 192.809108 
L 454.833047 188.491255 
L 459.276158 184.173403 
L 463.719269 179.855551 
L 468.16238 175.537698 
L 472.605491 171.219846 
L 477.048602 166.901994 
L 481.491713 162.584141 
L 485.934824 158.266289 
L 490.377935 153.948437 
L 494.821046 149.630584 
L 499.264157 145.312732 
L 503.707268 140.994879 
L 508.150379 136.677027 
L 512.59349 132.359175 
L 517.036601 128.041322 
L 521.479712 123.72347 
L 525.922824 119.405618 
L 530.365935 115.087765 
L 534.809046 110.769913 
L 539.252157 106.452061 
L 543.695268 102.134208 
" style="fill:none;stroke:#5c6bc0;stroke-linecap:square;stroke-opacity:0.5;stroke-width:2;"/>
   </g>
   <g id="patch_3">
    <path d="M 81 567 
L 81 77.76 
" style="fill:none;stroke:#000000;stroke-linecap:square;stroke-linejoin:miter;stroke-width:0.8;"/>
   </g>
   <g id="patch_4">
    <path d="M 583.2 567 
L 583.2 77.76 
" style="fill:none;stroke:#000000;stroke-linecap:square;stroke-linejoin:miter;stroke-width:0.8;"/>
   </g>
   <g id="patch_5">
    <path d="M 81 567 
L 583.2 567 
" style="fill:none;stroke:#000000;stroke-linecap:square;stroke-linejoin:miter;stroke-width:0.8;"/>
   </g>
   <g id="patch_6">
    <path d="M 81 77.76 
L 583.2 77.76 
" style="fill:none;stroke:#000000;stroke-linecap:square;stroke-linejoin:miter;stroke-width:0.8;"/>
   </g>
   <g id="text_15">
    <!-- calibration curve -->
    <g transform="translate(281.626875 71.76)scale(0.12 -0.12)">
     <defs>
      <path d="M 3122 3366 
L 3122 2828 
Q 2878 2963 2633 3030 
Q 2388 3097 2138 3097 
Q 1578 3097 1268 2742 
Q 959 2388 959 1747 
Q 959 1106 1268 751 
Q 1578 397 2138 397 
Q 2388 397 2633 464 
Q 2878 531 3122 666 
L 3122 134 
Q 2881 22 2623 -34 
Q 2366 -91 2075 -91 
Q 1284 -91 818 406 
Q 353 903 353 1747 
Q 353 2603 823 3093 
Q 1294 3584 2113 3584 
Q 2378 3584 2631 3529 
Q 2884 3475 3122 3366 
z
" id="DejaVuSans-63" transform="scale(0.015625)"/>
      <path d="M 3116 1747 
Q 3116 2381 2855 2742 
Q 2594 3103 2138 3103 
Q 1681 3103 1420 2742 
Q 1159 2381 1159 1747 
Q 1159 1113 1420 752 
Q 1681 391 2138 391 
Q 2594 391 2855 752 
Q 3116 1113 3116 1747 
z
M 1159 2969 
Q 1341 3281 1617 3432 
Q 1894 3584 2278 3584 
Q 2916 3584 3314 3078 
Q 3713 2572 3713 1747 
Q 3713 922 3314 415 
Q 2916 -91 2278 -91 
Q 1894 -91 1617 61 
Q 1341 213 1159 525 
L 1159 0 
L 581 0 
L 581 4863 
L 1159 4863 
L 1159 2969 
z
" id="DejaVuSans-62" transform="scale(0.015625)"/>
      <path d="M 2631 2963 
Q 2534 3019 2420 3045 
Q 2306 3072 2169 3072 
Q 1681 3072 1420 2755 
Q 1159 2438 1159 1844 
L 1159 0 
L 581 0 
L 581 3500 
L 1159 3500 
L 1159 2956 
Q 1341 3275 1631 3429 
Q 1922 3584 2338 3584 
Q 2397 3584 2469 3576 
Q 2541 3569 2628 3553 
L 2631 2963 
z
" id="DejaVuSans-72" transform="scale(0.015625)"/>
      <path d="M 3513 2113 
L 3513 0 
L 2938 0 
L 2938 2094 
Q 2938 2591 2744 2837 
Q 2550 3084 2163 3084 
Q 1697 3084 1428 2787 
Q 1159 2491 1159 1978 
L 1159 0 
L 581 0 
L 581 3500 
L 1159 3500 
L 1159 2956 
Q 1366 3272 1645 3428 
Q 1925 3584 2291 3584 
Q 2894 3584 3203 3211 
Q 3513 2838 3513 2113 
z
" id="DejaVuSans-6e" transform="scale(0.015625)"/>
      <path d="M 544 1381 
L 544 3500 
L 1119 3500 
L 1119 1403 
Q 1119 906 1312 657 
Q 1506 409 1894 409 
Q 2359 409 2629 706 
Q 2900 1003 2900 1516 
L 2900 3500 
L 3475 3500 
L 3475 0 
L 2900 0 
L 2900 538 
Q 2691 219 2414 64 
Q 2138 -91 1772 -91 
Q 1169 -91 856 284 
Q 544 659 544 1381 
z
M 1991 3584 
L 1991 3584 
z
" id="DejaVuSans-75" transform="scale(0.015625)"/>
     </defs>
     <use xlink:href="#DejaVuSans-63"/>
     <use x="54.980469" xlink:href="#DejaVuSans-61"/>
     <use x="116.259766" xlink:href="#DejaVuSans-6c"/>
     <use x="144.042969" xlink:href="#DejaVuSans-69"/>
     <use x="171.826172" xlink:href="#DejaVuSans-62"/>
     <use x="235.302734" xlink:href="#DejaVuSans-72"/>
     <use x="276.416016" xlink:href="#DejaVuSans-61"/>
     <use x="337.695312" xlink:href="#DejaVuSans-74"/>
     <use x="376.904297" xlink:href="#DejaVuSans-69"/>
     <use x="404.6875" xlink:href="#DejaVuSans-6f"/>
     <use x="465.869141" xlink:href="#DejaVuSans-6e"/>
     <use x="529.248047" xlink:href="#DejaVuSans-20"/>
     <use x="561.035156" xlink:href="#DejaVuSans-63"/>
     <use x="616.015625" xlink:href="#DejaVuSans-75"/>
     <use x="679.394531" xlink:href="#DejaVuSans-72"/>
     <use x="720.507812" xlink:href="#DejaVuSans-76"/>
     <use x="779.6875" xlink:href="#DejaVuSans-65"/>
    </g>
   </g>
   <g id="legend_1">
    <g id="patch_7">
     <path d="M 88 144.4725 
L 130.448438 144.4725 
Q 132.448438 144.4725 132.448438 142.4725 
L 132.448438 84.76 
Q 132.448438 82.76 130.448438 82.76 
L 88 82.76 
Q 86 82.76 86 84.76 
L 86 142.4725 
Q 86 144.4725 88 144.4725 
z
" style="fill:#ffffff;opacity:0.8;stroke:#cccccc;stroke-linejoin:miter;"/>
    </g>
    <g id="PathCollection_1">
     <defs>
      <path d="M 0 6.123724 
C 1.624031 6.123724 3.181764 5.47849 4.330127 4.330127 
C 5.47849 3.181764 6.123724 1.624031 6.123724 0 
C 6.123724 -1.624031 5.47849 -3.181764 4.330127 -4.330127 
C 3.181764 -5.47849 1.624031 -6.123724 0 -6.123724 
C -1.624031 -6.123724 -3.181764 -5.47849 -4.330127 -4.330127 
C -5.47849 -3.181764 -6.123724 -1.624031 -6.123724 0 
C -6.123724 1.624031 -5.47849 3.181764 -4.330127 4.330127 
C -3.181764 5.47849 -1.624031 6.123724 0 6.123724 
z
" id="mb95e95068a" style="stroke:#ffa726;"/>
     </defs>
     <g>
      <use style="fill:#ffffff;stroke:#ffa726;" x="100" xlink:href="#mb95e95068a" y="91.733437"/>
     </g>
    </g>
    <g id="text_16">
     <!-- fl -->
     <g transform="translate(118 94.358437)scale(0.1 -0.1)">
      <defs>
       <path d="M 2375 4863 
L 2375 4384 
L 1825 4384 
Q 1516 4384 1395 4259 
Q 1275 4134 1275 3809 
L 1275 3500 
L 2222 3500 
L 2222 3053 
L 1275 3053 
L 1275 0 
L 697 0 
L 697 3053 
L 147 3053 
L 147 3500 
L 697 3500 
L 697 3744 
Q 697 4328 969 4595 
Q 1241 4863 1831 4863 
L 2375 4863 
z
" id="DejaVuSans-66" transform="scale(0.015625)"/>
      </defs>
      <use xlink:href="#DejaVuSans-66"/>
      <use x="35.205078" xlink:href="#DejaVuSans-6c"/>
     </g>
    </g>
    <g id="PathCollection_2">
     <defs>
      <path d="M 0 6.123724 
C 1.624031 6.123724 3.181764 5.47849 4.330127 4.330127 
C 5.47849 3.181764 6.123724 1.624031 6.123724 0 
C 6.123724 -1.624031 5.47849 -3.181764 4.330127 -4.330127 
C 3.181764 -5.47849 1.624031 -6.123724 0 -6.123724 
C -1.624031 -6.123724 -3.181764 -5.47849 -4.330127 -4.330127 
C -5.47849 -3.181764 -6.123724 -1.624031 -6.123724 0 
C -6.123724 1.624031 -5.47849 3.181764 -4.330127 4.330127 
C -3.181764 5.47849 -1.624031 6.123724 0 6.123724 
z
" id="m1bd7afae31" style="stroke:#29b6f6;"/>
     </defs>
     <g>
      <use style="fill:#ffffff;stroke:#29b6f6;" x="100" xlink:href="#m1bd7afae31" y="106.411562"/>
     </g>
    </g>
    <g id="text_17">
     <!-- fr -->
     <g transform="translate(118 109.036562)scale(0.1 -0.1)">
      <use xlink:href="#DejaVuSans-66"/>
      <use x="35.205078" xlink:href="#DejaVuSans-72"/>
     </g>
    </g>
    <g id="PathCollection_3">
     <defs>
      <path d="M 0 6.123724 
C 1.624031 6.123724 3.181764 5.47849 4.330127 4.330127 
C 5.47849 3.181764 6.123724 1.624031 6.123724 0 
C 6.123724 -1.624031 5.47849 -3.181764 4.330127 -4.330127 
C 3.181764 -5.47849 1.624031 -6.123724 0 -6.123724 
C -1.624031 -6.123724 -3.181764 -5.47849 -4.330127 -4.330127 
C -5.47849 -3.181764 -6.123724 -1.624031 -6.123724 0 
C -6.123724 1.624031 -5.47849 3.181764 -4.330127 4.330127 
C -3.181764 5.47849 -1.624031 6.123724 0 6.123724 
z
" id="mf28ed7940e" style="stroke:#ff7043;"/>
     </defs>
     <g>
      <use style="fill:#ffffff;stroke:#ff7043;" x="100" xlink:href="#mf28ed7940e" y="121.089687"/>
     </g>
    </g>
    <g id="text_18">
     <!-- hl -->
     <g transform="translate(118 123.714687)scale(0.1 -0.1)">
      <use xlink:href="#DejaVuSans-68"/>
      <use x="63.378906" xlink:href="#DejaVuSans-6c"/>
     </g>
    </g>
    <g id="PathCollection_4">
     <defs>
      <path d="M 0 6.123724 
C 1.624031 6.123724 3.181764 5.47849 4.330127 4.330127 
C 5.47849 3.181764 6.123724 1.624031 6.123724 0 
C 6.123724 -1.624031 5.47849 -3.181764 4.330127 -4.330127 
C 3.181764 -5.47849 1.624031 -6.123724 0 -6.123724 
C -1.624031 -6.123724 -3.181764 -5.47849 -4.330127 -4.330127 
C -5.47849 -3.181764 -6.123724 -1.624031 -6.123724 0 
C -6.123724 1.624031 -5.47849 3.181764 -4.330127 4.330127 
C -3.181764 5.47849 -1.624031 6.123724 0 6.123724 
z
" id="m64a9f00884" style="stroke:#5c6bc0;"/>
     </defs>
     <g>
      <use style="fill:#ffffff;stroke:#5c6bc0;" x="100" xlink:href="#m64a9f00884" y="135.767812"/>
     </g>
    </g>
    <g id="text_19">
     <!-- hr -->
     <g transform="translate(118 138.392812)scale(0.1 -0.1)">
      <use xlink:href="#DejaVuSans-68"/>
      <use x="63.378906" xlink:href="#DejaVuSans-72"/>
     </g>
    </g>
   </g>
   <g id="PathCollection_5">
    <g clip-path="url(#p20e7b9d432)">
     <use style="fill:#ffffff;stroke:#ffa726;" x="128.843462" xlink:href="#mb95e95068a" y="521.020408"/>
     <use style="fill:#ffffff;stroke:#ffa726;" x="145.520922" xlink:href="#mb95e95068a" y="506.636815"/>
     <use style="fill:#ffffff;stroke:#ffa726;" x="153.859651" xlink:href="#mb95e95068a" y="492.253222"/>
     <use style="fill:#ffffff;stroke:#ffa726;" x="180.960523" xlink:href="#mb95e95068a" y="463.486037"/>
     <use style="fill:#ffffff;stroke:#ffa726;" x="199.722665" xlink:href="#mb95e95068a" y="449.102444"/>
     <use style="fill:#ffffff;stroke:#ffa726;" x="214.315442" xlink:href="#mb95e95068a" y="434.718852"/>
     <use style="fill:#ffffff;stroke:#ffa726;" x="258.093773" xlink:href="#mb95e95068a" y="391.568074"/>
     <use style="fill:#ffffff;stroke:#ffa726;" x="276.855915" xlink:href="#mb95e95068a" y="377.184481"/>
     <use style="fill:#ffffff;stroke:#ffa726;" x="289.36401" xlink:href="#mb95e95068a" y="362.800888"/>
     <use style="fill:#ffffff;stroke:#ffa726;" x="335.227024" xlink:href="#mb95e95068a" y="319.65011"/>
     <use style="fill:#ffffff;stroke:#ffa726;" x="349.819801" xlink:href="#mb95e95068a" y="305.266517"/>
     <use style="fill:#ffffff;stroke:#ffa726;" x="366.49726" xlink:href="#mb95e95068a" y="290.882925"/>
     <use style="fill:#ffffff;stroke:#ffa726;" x="416.529639" xlink:href="#mb95e95068a" y="247.732147"/>
     <use style="fill:#ffffff;stroke:#ffa726;" x="431.122416" xlink:href="#mb95e95068a" y="233.348554"/>
     <use style="fill:#ffffff;stroke:#ffa726;" x="443.630511" xlink:href="#mb95e95068a" y="218.964961"/>
     <use style="fill:#ffffff;stroke:#ffa726;" x="458.223288" xlink:href="#mb95e95068a" y="204.581369"/>
     <use style="fill:#ffffff;stroke:#ffa726;" x="483.239477" xlink:href="#mb95e95068a" y="175.814183"/>
     <use style="fill:#ffffff;stroke:#ffa726;" x="560.372727" xlink:href="#mb95e95068a" y="103.89622"/>
    </g>
   </g>
   <g id="PathCollection_6">
    <g clip-path="url(#p20e7b9d432)">
     <use style="fill:#ffffff;stroke:#29b6f6;" x="122.589415" xlink:href="#m1bd7afae31" y="521.020408"/>
     <use style="fill:#ffffff;stroke:#29b6f6;" x="135.097509" xlink:href="#m1bd7afae31" y="506.636815"/>
     <use style="fill:#ffffff;stroke:#29b6f6;" x="149.690286" xlink:href="#m1bd7afae31" y="492.253222"/>
     <use style="fill:#ffffff;stroke:#29b6f6;" x="176.791158" xlink:href="#m1bd7afae31" y="463.486037"/>
     <use style="fill:#ffffff;stroke:#29b6f6;" x="189.299253" xlink:href="#m1bd7afae31" y="449.102444"/>
     <use style="fill:#ffffff;stroke:#29b6f6;" x="203.89203" xlink:href="#m1bd7afae31" y="434.718852"/>
     <use style="fill:#ffffff;stroke:#29b6f6;" x="245.585679" xlink:href="#m1bd7afae31" y="391.568074"/>
     <use style="fill:#ffffff;stroke:#29b6f6;" x="260.178456" xlink:href="#m1bd7afae31" y="377.184481"/>
     <use style="fill:#ffffff;stroke:#29b6f6;" x="278.940598" xlink:href="#m1bd7afae31" y="362.800888"/>
     <use style="fill:#ffffff;stroke:#29b6f6;" x="320.634247" xlink:href="#m1bd7afae31" y="319.65011"/>
     <use style="fill:#ffffff;stroke:#29b6f6;" x="335.227024" xlink:href="#m1bd7afae31" y="305.266517"/>
     <use style="fill:#ffffff;stroke:#29b6f6;" x="349.819801" xlink:href="#m1bd7afae31" y="290.882925"/>
     <use style="fill:#ffffff;stroke:#29b6f6;" x="397.767497" xlink:href="#m1bd7afae31" y="247.732147"/>
     <use style="fill:#ffffff;stroke:#29b6f6;" x="410.275592" xlink:href="#m1bd7afae31" y="233.348554"/>
     <use style="fill:#ffffff;stroke:#29b6f6;" x="420.699004" xlink:href="#m1bd7afae31" y="218.964961"/>
     <use style="fill:#ffffff;stroke:#29b6f6;" x="437.376463" xlink:href="#m1bd7afae31" y="204.581369"/>
     <use style="fill:#ffffff;stroke:#29b6f6;" x="466.562017" xlink:href="#m1bd7afae31" y="175.814183"/>
     <use style="fill:#ffffff;stroke:#29b6f6;" x="543.695268" xlink:href="#m1bd7afae31" y="103.89622"/>
    </g>
   </g>
   <g id="PathCollection_7">
    <g clip-path="url(#p20e7b9d432)">
     <use style="fill:#ffffff;stroke:#ff7043;" x="130.928144" xlink:href="#mf28ed7940e" y="521.020408"/>
     <use style="fill:#ffffff;stroke:#ff7043;" x="141.351557" xlink:href="#mf28ed7940e" y="506.636815"/>
     <use style="fill:#ffffff;stroke:#ff7043;" x="158.029016" xlink:href="#mf28ed7940e" y="492.253222"/>
     <use style="fill:#ffffff;stroke:#ff7043;" x="187.21457" xlink:href="#mf28ed7940e" y="463.486037"/>
     <use style="fill:#ffffff;stroke:#ff7043;" x="205.976712" xlink:href="#mf28ed7940e" y="449.102444"/>
     <use style="fill:#ffffff;stroke:#ff7043;" x="214.315442" xlink:href="#mf28ed7940e" y="434.718852"/>
     <use style="fill:#ffffff;stroke:#ff7043;" x="258.093773" xlink:href="#mf28ed7940e" y="391.568074"/>
     <use style="fill:#ffffff;stroke:#ff7043;" x="276.855915" xlink:href="#mf28ed7940e" y="377.184481"/>
     <use style="fill:#ffffff;stroke:#ff7043;" x="289.36401" xlink:href="#mf28ed7940e" y="362.800888"/>
     <use style="fill:#ffffff;stroke:#ff7043;" x="333.142341" xlink:href="#mf28ed7940e" y="319.65011"/>
     <use style="fill:#ffffff;stroke:#ff7043;" x="349.819801" xlink:href="#mf28ed7940e" y="305.266517"/>
     <use style="fill:#ffffff;stroke:#ff7043;" x="362.327895" xlink:href="#mf28ed7940e" y="290.882925"/>
     <use style="fill:#ffffff;stroke:#ff7043;" x="420.699004" xlink:href="#mf28ed7940e" y="247.732147"/>
     <use style="fill:#ffffff;stroke:#ff7043;" x="429.037733" xlink:href="#mf28ed7940e" y="233.348554"/>
     <use style="fill:#ffffff;stroke:#ff7043;" x="441.545828" xlink:href="#mf28ed7940e" y="218.964961"/>
     <use style="fill:#ffffff;stroke:#ff7043;" x="458.223288" xlink:href="#mf28ed7940e" y="204.581369"/>
     <use style="fill:#ffffff;stroke:#ff7043;" x="479.070112" xlink:href="#mf28ed7940e" y="175.814183"/>
     <use style="fill:#ffffff;stroke:#ff7043;" x="552.033998" xlink:href="#mf28ed7940e" y="103.89622"/>
    </g>
   </g>
   <g id="PathCollection_8">
    <g clip-path="url(#p20e7b9d432)">
     <use style="fill:#ffffff;stroke:#5c6bc0;" x="122.589415" xlink:href="#m64a9f00884" y="521.020408"/>
     <use style="fill:#ffffff;stroke:#5c6bc0;" x="135.097509" xlink:href="#m64a9f00884" y="506.636815"/>
     <use style="fill:#ffffff;stroke:#5c6bc0;" x="151.774969" xlink:href="#m64a9f00884" y="492.253222"/>
     <use style="fill:#ffffff;stroke:#5c6bc0;" x="166.367746" xlink:href="#m64a9f00884" y="463.486037"/>
     <use style="fill:#ffffff;stroke:#5c6bc0;" x="178.875841" xlink:href="#m64a9f00884" y="449.102444"/>
     <use style="fill:#ffffff;stroke:#5c6bc0;" x="193.468618" xlink:href="#m64a9f00884" y="434.718852"/>
     <use style="fill:#ffffff;stroke:#5c6bc0;" x="239.331631" xlink:href="#m64a9f00884" y="391.568074"/>
     <use style="fill:#ffffff;stroke:#5c6bc0;" x="258.093773" xlink:href="#m64a9f00884" y="377.184481"/>
     <use style="fill:#ffffff;stroke:#5c6bc0;" x="276.855915" xlink:href="#m64a9f00884" y="362.800888"/>
     <use style="fill:#ffffff;stroke:#5c6bc0;" x="314.380199" xlink:href="#m64a9f00884" y="319.65011"/>
     <use style="fill:#ffffff;stroke:#5c6bc0;" x="331.057659" xlink:href="#m64a9f00884" y="305.266517"/>
     <use style="fill:#ffffff;stroke:#5c6bc0;" x="347.735118" xlink:href="#m64a9f00884" y="290.882925"/>
     <use style="fill:#ffffff;stroke:#5c6bc0;" x="397.767497" xlink:href="#m64a9f00884" y="247.732147"/>
     <use style="fill:#ffffff;stroke:#5c6bc0;" x="412.360274" xlink:href="#m64a9f00884" y="233.348554"/>
     <use style="fill:#ffffff;stroke:#5c6bc0;" x="424.868369" xlink:href="#m64a9f00884" y="218.964961"/>
     <use style="fill:#ffffff;stroke:#5c6bc0;" x="439.461146" xlink:href="#m64a9f00884" y="204.581369"/>
     <use style="fill:#ffffff;stroke:#5c6bc0;" x="468.6467" xlink:href="#m64a9f00884" y="175.814183"/>
     <use style="fill:#ffffff;stroke:#5c6bc0;" x="543.695268" xlink:href="#m64a9f00884" y="103.89622"/>
    </g>
   </g>
  </g>
 </g>
 <defs>
  <clipPath id="p20e7b9d432">
   <rect height="489.24" width="502.2" x="81" y="77.76"/>
  </clipPath>
 </defs>
</svg>
