<?xml version="1.0" encoding="utf-8" standalone="no"?>
<!DOCTYPE svg PUBLIC "-//W3C//DTD SVG 1.1//EN"
  "http://www.w3.org/Graphics/SVG/1.1/DTD/svg11.dtd">
<svg xmlns:xlink="http://www.w3.org/1999/xlink" width="648pt" height="648pt" viewBox="0 0 648 648" xmlns="http://www.w3.org/2000/svg" version="1.1">
 <metadata>
  <rdf:RDF xmlns:dc="http://purl.org/dc/elements/1.1/" xmlns:cc="http://creativecommons.org/ns#" xmlns:rdf="http://www.w3.org/1999/02/22-rdf-syntax-ns#">
   <cc:Work>
    <dc:type rdf:resource="http://purl.org/dc/dcmitype/StillImage"/>
    <dc:date>2022-12-07T22:42:10.022462</dc:date>
    <dc:format>image/svg+xml</dc:format>
    <dc:creator>
     <cc:Agent>
      <dc:title>Matplotlib v3.6.2, https://matplotlib.org/</dc:title>
     </cc:Agent>
    </dc:creator>
   </cc:Work>
  </rdf:RDF>
 </metadata>
 <defs>
  <style type="text/css">*{stroke-linejoin: round; stroke-linecap: butt}</style>
 </defs>
 <g id="figure_1">
  <g id="patch_1">
   <path d="M 0 648 
L 648 648 
L 648 0 
L 0 0 
z
" style="fill: #ffffff"/>
  </g>
  <g id="axes_1">
   <g id="patch_2">
    <path d="M 81 576.72 
L 583.2 576.72 
L 583.2 77.76 
L 81 77.76 
z
" style="fill: #ffffff"/>
   </g>
   <g id="matplotlib.axis_1">
    <g id="xtick_1">
     <g id="line2d_1">
      <defs>
       <path id="m1dd33a0856" d="M 0 0 
L 0 3.5 
" style="stroke: #000000; stroke-width: 0.8"/>
      </defs>
      <g>
       <use xlink:href="#m1dd33a0856" x="103.827273" y="576.72" style="stroke: #000000; stroke-width: 0.8"/>
      </g>
     </g>
     <g id="text_1">
      <!-- 0.0 -->
      <g transform="translate(95.87571 591.318438) scale(0.1 -0.1)">
       <defs>
        <path id="DejaVuSans-30" d="M 2034 4250 
Q 1547 4250 1301 3770 
Q 1056 3291 1056 2328 
Q 1056 1369 1301 889 
Q 1547 409 2034 409 
Q 2525 409 2770 889 
Q 3016 1369 3016 2328 
Q 3016 3291 2770 3770 
Q 2525 4250 2034 4250 
z
M 2034 4750 
Q 2819 4750 3233 4129 
Q 3647 3509 3647 2328 
Q 3647 1150 3233 529 
Q 2819 -91 2034 -91 
Q 1250 -91 836 529 
Q 422 1150 422 2328 
Q 422 3509 836 4129 
Q 1250 4750 2034 4750 
z
" transform="scale(0.015625)"/>
        <path id="DejaVuSans-2e" d="M 684 794 
L 1344 794 
L 1344 0 
L 684 0 
L 684 794 
z
" transform="scale(0.015625)"/>
       </defs>
       <use xlink:href="#DejaVuSans-30"/>
       <use xlink:href="#DejaVuSans-2e" x="63.623047"/>
       <use xlink:href="#DejaVuSans-30" x="95.410156"/>
      </g>
     </g>
    </g>
    <g id="xtick_2">
     <g id="line2d_2">
      <g>
       <use xlink:href="#m1dd33a0856" x="208.061395" y="576.72" style="stroke: #000000; stroke-width: 0.8"/>
      </g>
     </g>
     <g id="text_2">
      <!-- 0.1 -->
      <g transform="translate(200.109832 591.318438) scale(0.1 -0.1)">
       <defs>
        <path id="DejaVuSans-31" d="M 794 531 
L 1825 531 
L 1825 4091 
L 703 3866 
L 703 4441 
L 1819 4666 
L 2450 4666 
L 2450 531 
L 3481 531 
L 3481 0 
L 794 0 
L 794 531 
z
" transform="scale(0.015625)"/>
       </defs>
       <use xlink:href="#DejaVuSans-30"/>
       <use xlink:href="#DejaVuSans-2e" x="63.623047"/>
       <use xlink:href="#DejaVuSans-31" x="95.410156"/>
      </g>
     </g>
    </g>
    <g id="xtick_3">
     <g id="line2d_3">
      <g>
       <use xlink:href="#m1dd33a0856" x="312.295517" y="576.72" style="stroke: #000000; stroke-width: 0.8"/>
      </g>
     </g>
     <g id="text_3">
      <!-- 0.2 -->
      <g transform="translate(304.343954 591.318438) scale(0.1 -0.1)">
       <defs>
        <path id="DejaVuSans-32" d="M 1228 531 
L 3431 531 
L 3431 0 
L 469 0 
L 469 531 
Q 828 903 1448 1529 
Q 2069 2156 2228 2338 
Q 2531 2678 2651 2914 
Q 2772 3150 2772 3378 
Q 2772 3750 2511 3984 
Q 2250 4219 1831 4219 
Q 1534 4219 1204 4116 
Q 875 4013 500 3803 
L 500 4441 
Q 881 4594 1212 4672 
Q 1544 4750 1819 4750 
Q 2544 4750 2975 4387 
Q 3406 4025 3406 3419 
Q 3406 3131 3298 2873 
Q 3191 2616 2906 2266 
Q 2828 2175 2409 1742 
Q 1991 1309 1228 531 
z
" transform="scale(0.015625)"/>
       </defs>
       <use xlink:href="#DejaVuSans-30"/>
       <use xlink:href="#DejaVuSans-2e" x="63.623047"/>
       <use xlink:href="#DejaVuSans-32" x="95.410156"/>
      </g>
     </g>
    </g>
    <g id="xtick_4">
     <g id="line2d_4">
      <g>
       <use xlink:href="#m1dd33a0856" x="416.529639" y="576.72" style="stroke: #000000; stroke-width: 0.8"/>
      </g>
     </g>
     <g id="text_4">
      <!-- 0.3 -->
      <g transform="translate(408.578076 591.318438) scale(0.1 -0.1)">
       <defs>
        <path id="DejaVuSans-33" d="M 2597 2516 
Q 3050 2419 3304 2112 
Q 3559 1806 3559 1356 
Q 3559 666 3084 287 
Q 2609 -91 1734 -91 
Q 1441 -91 1130 -33 
Q 819 25 488 141 
L 488 750 
Q 750 597 1062 519 
Q 1375 441 1716 441 
Q 2309 441 2620 675 
Q 2931 909 2931 1356 
Q 2931 1769 2642 2001 
Q 2353 2234 1838 2234 
L 1294 2234 
L 1294 2753 
L 1863 2753 
Q 2328 2753 2575 2939 
Q 2822 3125 2822 3475 
Q 2822 3834 2567 4026 
Q 2313 4219 1838 4219 
Q 1578 4219 1281 4162 
Q 984 4106 628 3988 
L 628 4550 
Q 988 4650 1302 4700 
Q 1616 4750 1894 4750 
Q 2613 4750 3031 4423 
Q 3450 4097 3450 3541 
Q 3450 3153 3228 2886 
Q 3006 2619 2597 2516 
z
" transform="scale(0.015625)"/>
       </defs>
       <use xlink:href="#DejaVuSans-30"/>
       <use xlink:href="#DejaVuSans-2e" x="63.623047"/>
       <use xlink:href="#DejaVuSans-33" x="95.410156"/>
      </g>
     </g>
    </g>
    <g id="xtick_5">
     <g id="line2d_5">
      <g>
       <use xlink:href="#m1dd33a0856" x="520.763761" y="576.72" style="stroke: #000000; stroke-width: 0.8"/>
      </g>
     </g>
     <g id="text_5">
      <!-- 0.4 -->
      <g transform="translate(512.812198 591.318438) scale(0.1 -0.1)">
       <defs>
        <path id="DejaVuSans-34" d="M 2419 4116 
L 825 1625 
L 2419 1625 
L 2419 4116 
z
M 2253 4666 
L 3047 4666 
L 3047 1625 
L 3713 1625 
L 3713 1100 
L 3047 1100 
L 3047 0 
L 2419 0 
L 2419 1100 
L 313 1100 
L 313 1709 
L 2253 4666 
z
" transform="scale(0.015625)"/>
       </defs>
       <use xlink:href="#DejaVuSans-30"/>
       <use xlink:href="#DejaVuSans-2e" x="63.623047"/>
       <use xlink:href="#DejaVuSans-34" x="95.410156"/>
      </g>
     </g>
    </g>
    <g id="text_6">
     <!-- voltage -->
     <g transform="translate(313.417188 604.996562) scale(0.1 -0.1)">
      <defs>
       <path id="DejaVuSans-76" d="M 191 3500 
L 800 3500 
L 1894 563 
L 2988 3500 
L 3597 3500 
L 2284 0 
L 1503 0 
L 191 3500 
z
" transform="scale(0.015625)"/>
       <path id="DejaVuSans-6f" d="M 1959 3097 
Q 1497 3097 1228 2736 
Q 959 2375 959 1747 
Q 959 1119 1226 758 
Q 1494 397 1959 397 
Q 2419 397 2687 759 
Q 2956 1122 2956 1747 
Q 2956 2369 2687 2733 
Q 2419 3097 1959 3097 
z
M 1959 3584 
Q 2709 3584 3137 3096 
Q 3566 2609 3566 1747 
Q 3566 888 3137 398 
Q 2709 -91 1959 -91 
Q 1206 -91 779 398 
Q 353 888 353 1747 
Q 353 2609 779 3096 
Q 1206 3584 1959 3584 
z
" transform="scale(0.015625)"/>
       <path id="DejaVuSans-6c" d="M 603 4863 
L 1178 4863 
L 1178 0 
L 603 0 
L 603 4863 
z
" transform="scale(0.015625)"/>
       <path id="DejaVuSans-74" d="M 1172 4494 
L 1172 3500 
L 2356 3500 
L 2356 3053 
L 1172 3053 
L 1172 1153 
Q 1172 725 1289 603 
Q 1406 481 1766 481 
L 2356 481 
L 2356 0 
L 1766 0 
Q 1100 0 847 248 
Q 594 497 594 1153 
L 594 3053 
L 172 3053 
L 172 3500 
L 594 3500 
L 594 4494 
L 1172 4494 
z
" transform="scale(0.015625)"/>
       <path id="DejaVuSans-61" d="M 2194 1759 
Q 1497 1759 1228 1600 
Q 959 1441 959 1056 
Q 959 750 1161 570 
Q 1363 391 1709 391 
Q 2188 391 2477 730 
Q 2766 1069 2766 1631 
L 2766 1759 
L 2194 1759 
z
M 3341 1997 
L 3341 0 
L 2766 0 
L 2766 531 
Q 2569 213 2275 61 
Q 1981 -91 1556 -91 
Q 1019 -91 701 211 
Q 384 513 384 1019 
Q 384 1609 779 1909 
Q 1175 2209 1959 2209 
L 2766 2209 
L 2766 2266 
Q 2766 2663 2505 2880 
Q 2244 3097 1772 3097 
Q 1472 3097 1187 3025 
Q 903 2953 641 2809 
L 641 3341 
Q 956 3463 1253 3523 
Q 1550 3584 1831 3584 
Q 2591 3584 2966 3190 
Q 3341 2797 3341 1997 
z
" transform="scale(0.015625)"/>
       <path id="DejaVuSans-67" d="M 2906 1791 
Q 2906 2416 2648 2759 
Q 2391 3103 1925 3103 
Q 1463 3103 1205 2759 
Q 947 2416 947 1791 
Q 947 1169 1205 825 
Q 1463 481 1925 481 
Q 2391 481 2648 825 
Q 2906 1169 2906 1791 
z
M 3481 434 
Q 3481 -459 3084 -895 
Q 2688 -1331 1869 -1331 
Q 1566 -1331 1297 -1286 
Q 1028 -1241 775 -1147 
L 775 -588 
Q 1028 -725 1275 -790 
Q 1522 -856 1778 -856 
Q 2344 -856 2625 -561 
Q 2906 -266 2906 331 
L 2906 616 
Q 2728 306 2450 153 
Q 2172 0 1784 0 
Q 1141 0 747 490 
Q 353 981 353 1791 
Q 353 2603 747 3093 
Q 1141 3584 1784 3584 
Q 2172 3584 2450 3431 
Q 2728 3278 2906 2969 
L 2906 3500 
L 3481 3500 
L 3481 434 
z
" transform="scale(0.015625)"/>
       <path id="DejaVuSans-65" d="M 3597 1894 
L 3597 1613 
L 953 1613 
Q 991 1019 1311 708 
Q 1631 397 2203 397 
Q 2534 397 2845 478 
Q 3156 559 3463 722 
L 3463 178 
Q 3153 47 2828 -22 
Q 2503 -91 2169 -91 
Q 1331 -91 842 396 
Q 353 884 353 1716 
Q 353 2575 817 3079 
Q 1281 3584 2069 3584 
Q 2775 3584 3186 3129 
Q 3597 2675 3597 1894 
z
M 3022 2063 
Q 3016 2534 2758 2815 
Q 2500 3097 2075 3097 
Q 1594 3097 1305 2825 
Q 1016 2553 972 2059 
L 3022 2063 
z
" transform="scale(0.015625)"/>
      </defs>
      <use xlink:href="#DejaVuSans-76"/>
      <use xlink:href="#DejaVuSans-6f" x="59.179688"/>
      <use xlink:href="#DejaVuSans-6c" x="120.361328"/>
      <use xlink:href="#DejaVuSans-74" x="148.144531"/>
      <use xlink:href="#DejaVuSans-61" x="187.353516"/>
      <use xlink:href="#DejaVuSans-67" x="248.632812"/>
      <use xlink:href="#DejaVuSans-65" x="312.109375"/>
     </g>
    </g>
   </g>
   <g id="matplotlib.axis_2">
    <g id="ytick_1">
     <g id="line2d_6">
      <defs>
       <path id="md3920acdad" d="M 0 0 
L -3.5 0 
" style="stroke: #000000; stroke-width: 0.8"/>
      </defs>
      <g>
       <use xlink:href="#md3920acdad" x="81" y="544.496265" style="stroke: #000000; stroke-width: 0.8"/>
      </g>
     </g>
     <g id="text_7">
      <!-- 0 -->
      <g transform="translate(67.6375 548.295484) scale(0.1 -0.1)">
       <use xlink:href="#DejaVuSans-30"/>
      </g>
     </g>
    </g>
    <g id="ytick_2">
     <g id="line2d_7">
      <g>
       <use xlink:href="#md3920acdad" x="81" y="471.149468" style="stroke: #000000; stroke-width: 0.8"/>
      </g>
     </g>
     <g id="text_8">
      <!-- 5 -->
      <g transform="translate(67.6375 474.948687) scale(0.1 -0.1)">
       <defs>
        <path id="DejaVuSans-35" d="M 691 4666 
L 3169 4666 
L 3169 4134 
L 1269 4134 
L 1269 2991 
Q 1406 3038 1543 3061 
Q 1681 3084 1819 3084 
Q 2600 3084 3056 2656 
Q 3513 2228 3513 1497 
Q 3513 744 3044 326 
Q 2575 -91 1722 -91 
Q 1428 -91 1123 -41 
Q 819 9 494 109 
L 494 744 
Q 775 591 1075 516 
Q 1375 441 1709 441 
Q 2250 441 2565 725 
Q 2881 1009 2881 1497 
Q 2881 1984 2565 2268 
Q 2250 2553 1709 2553 
Q 1456 2553 1204 2497 
Q 953 2441 691 2322 
L 691 4666 
z
" transform="scale(0.015625)"/>
       </defs>
       <use xlink:href="#DejaVuSans-35"/>
      </g>
     </g>
    </g>
    <g id="ytick_3">
     <g id="line2d_8">
      <g>
       <use xlink:href="#md3920acdad" x="81" y="397.802671" style="stroke: #000000; stroke-width: 0.8"/>
      </g>
     </g>
     <g id="text_9">
      <!-- 10 -->
      <g transform="translate(61.275 401.60189) scale(0.1 -0.1)">
       <use xlink:href="#DejaVuSans-31"/>
       <use xlink:href="#DejaVuSans-30" x="63.623047"/>
      </g>
     </g>
    </g>
    <g id="ytick_4">
     <g id="line2d_9">
      <g>
       <use xlink:href="#md3920acdad" x="81" y="324.455874" style="stroke: #000000; stroke-width: 0.8"/>
      </g>
     </g>
     <g id="text_10">
      <!-- 15 -->
      <g transform="translate(61.275 328.255093) scale(0.1 -0.1)">
       <use xlink:href="#DejaVuSans-31"/>
       <use xlink:href="#DejaVuSans-35" x="63.623047"/>
      </g>
     </g>
    </g>
    <g id="ytick_5">
     <g id="line2d_10">
      <g>
       <use xlink:href="#md3920acdad" x="81" y="251.109077" style="stroke: #000000; stroke-width: 0.8"/>
      </g>
     </g>
     <g id="text_11">
      <!-- 20 -->
      <g transform="translate(61.275 254.908295) scale(0.1 -0.1)">
       <use xlink:href="#DejaVuSans-32"/>
       <use xlink:href="#DejaVuSans-30" x="63.623047"/>
      </g>
     </g>
    </g>
    <g id="ytick_6">
     <g id="line2d_11">
      <g>
       <use xlink:href="#md3920acdad" x="81" y="177.762279" style="stroke: #000000; stroke-width: 0.8"/>
      </g>
     </g>
     <g id="text_12">
      <!-- 25 -->
      <g transform="translate(61.275 181.561498) scale(0.1 -0.1)">
       <use xlink:href="#DejaVuSans-32"/>
       <use xlink:href="#DejaVuSans-35" x="63.623047"/>
      </g>
     </g>
    </g>
    <g id="ytick_7">
     <g id="line2d_12">
      <g>
       <use xlink:href="#md3920acdad" x="81" y="104.415482" style="stroke: #000000; stroke-width: 0.8"/>
      </g>
     </g>
     <g id="text_13">
      <!-- 30 -->
      <g transform="translate(61.275 108.214701) scale(0.1 -0.1)">
       <use xlink:href="#DejaVuSans-33"/>
       <use xlink:href="#DejaVuSans-30" x="63.623047"/>
      </g>
     </g>
    </g>
    <g id="text_14">
     <!-- weight (g) -->
     <g transform="translate(55.195312 352.762656) rotate(-90) scale(0.1 -0.1)">
      <defs>
       <path id="DejaVuSans-77" d="M 269 3500 
L 844 3500 
L 1563 769 
L 2278 3500 
L 2956 3500 
L 3675 769 
L 4391 3500 
L 4966 3500 
L 4050 0 
L 3372 0 
L 2619 2869 
L 1863 0 
L 1184 0 
L 269 3500 
z
" transform="scale(0.015625)"/>
       <path id="DejaVuSans-69" d="M 603 3500 
L 1178 3500 
L 1178 0 
L 603 0 
L 603 3500 
z
M 603 4863 
L 1178 4863 
L 1178 4134 
L 603 4134 
L 603 4863 
z
" transform="scale(0.015625)"/>
       <path id="DejaVuSans-68" d="M 3513 2113 
L 3513 0 
L 2938 0 
L 2938 2094 
Q 2938 2591 2744 2837 
Q 2550 3084 2163 3084 
Q 1697 3084 1428 2787 
Q 1159 2491 1159 1978 
L 1159 0 
L 581 0 
L 581 4863 
L 1159 4863 
L 1159 2956 
Q 1366 3272 1645 3428 
Q 1925 3584 2291 3584 
Q 2894 3584 3203 3211 
Q 3513 2838 3513 2113 
z
" transform="scale(0.015625)"/>
       <path id="DejaVuSans-20" transform="scale(0.015625)"/>
       <path id="DejaVuSans-28" d="M 1984 4856 
Q 1566 4138 1362 3434 
Q 1159 2731 1159 2009 
Q 1159 1288 1364 580 
Q 1569 -128 1984 -844 
L 1484 -844 
Q 1016 -109 783 600 
Q 550 1309 550 2009 
Q 550 2706 781 3412 
Q 1013 4119 1484 4856 
L 1984 4856 
z
" transform="scale(0.015625)"/>
       <path id="DejaVuSans-29" d="M 513 4856 
L 1013 4856 
Q 1481 4119 1714 3412 
Q 1947 2706 1947 2009 
Q 1947 1309 1714 600 
Q 1481 -109 1013 -844 
L 513 -844 
Q 928 -128 1133 580 
Q 1338 1288 1338 2009 
Q 1338 2731 1133 3434 
Q 928 4138 513 4856 
z
" transform="scale(0.015625)"/>
      </defs>
      <use xlink:href="#DejaVuSans-77"/>
      <use xlink:href="#DejaVuSans-65" x="81.787109"/>
      <use xlink:href="#DejaVuSans-69" x="143.310547"/>
      <use xlink:href="#DejaVuSans-67" x="171.09375"/>
      <use xlink:href="#DejaVuSans-68" x="234.570312"/>
      <use xlink:href="#DejaVuSans-74" x="297.949219"/>
      <use xlink:href="#DejaVuSans-20" x="337.158203"/>
      <use xlink:href="#DejaVuSans-28" x="368.945312"/>
      <use xlink:href="#DejaVuSans-67" x="407.958984"/>
      <use xlink:href="#DejaVuSans-29" x="471.435547"/>
     </g>
    </g>
   </g>
   <g id="line2d_13">
    <path d="M 103.827273 550.753223 
L 108.438843 546.264706 
L 113.050413 541.776189 
L 117.661983 537.287673 
L 122.273554 532.799156 
L 126.885124 528.31064 
L 131.496694 523.822123 
L 136.108264 519.333607 
L 140.719835 514.84509 
L 145.331405 510.356574 
L 149.942975 505.868057 
L 154.554545 501.379541 
L 159.166116 496.891024 
L 163.777686 492.402507 
L 168.389256 487.913991 
L 173.000826 483.425474 
L 177.612397 478.936958 
L 182.223967 474.448441 
L 186.835537 469.959925 
L 191.447107 465.471408 
L 196.058678 460.982892 
L 200.670248 456.494375 
L 205.281818 452.005859 
L 209.893388 447.517342 
L 214.504959 443.028825 
L 219.116529 438.540309 
L 223.728099 434.051792 
L 228.339669 429.563276 
L 232.95124 425.074759 
L 237.56281 420.586243 
L 242.17438 416.097726 
L 246.78595 411.60921 
L 251.397521 407.120693 
L 256.009091 402.632176 
L 260.620661 398.14366 
L 265.232231 393.655143 
L 269.843802 389.166627 
L 274.455372 384.67811 
L 279.066942 380.189594 
L 283.678512 375.701077 
L 288.290083 371.212561 
L 292.901653 366.724044 
L 297.513223 362.235528 
L 302.124793 357.747011 
L 306.736364 353.258494 
L 311.347934 348.769978 
L 315.959504 344.281461 
L 320.571074 339.792945 
L 325.182645 335.304428 
L 329.794215 330.815912 
L 334.405785 326.327395 
L 339.017355 321.838879 
L 343.628926 317.350362 
L 348.240496 312.861846 
L 352.852066 308.373329 
L 357.463636 303.884812 
L 362.075207 299.396296 
L 366.686777 294.907779 
L 371.298347 290.419263 
L 375.909917 285.930746 
L 380.521488 281.44223 
L 385.133058 276.953713 
L 389.744628 272.465197 
L 394.356198 267.97668 
L 398.967769 263.488163 
L 403.579339 258.999647 
L 408.190909 254.51113 
L 412.802479 250.022614 
L 417.41405 245.534097 
L 422.02562 241.045581 
L 426.63719 236.557064 
L 431.24876 232.068548 
L 435.860331 227.580031 
L 440.471901 223.091515 
L 445.083471 218.602998 
L 449.695041 214.114481 
L 454.306612 209.625965 
L 458.918182 205.137448 
L 463.529752 200.648932 
L 468.141322 196.160415 
L 472.752893 191.671899 
L 477.364463 187.183382 
L 481.976033 182.694866 
L 486.587603 178.206349 
L 491.199174 173.717833 
L 495.810744 169.229316 
L 500.422314 164.740799 
L 505.033884 160.252283 
L 509.645455 155.763766 
L 514.257025 151.27525 
L 518.868595 146.786733 
L 523.480165 142.298217 
L 528.091736 137.8097 
L 532.703306 133.321184 
L 537.314876 128.832667 
L 541.926446 124.344151 
L 546.538017 119.855634 
L 551.149587 115.367117 
L 555.761157 110.878601 
L 560.372727 106.390084 
" clip-path="url(#pa3534d67f5)" style="fill: none; stroke: #ffa726; stroke-opacity: 0.5; stroke-width: 2; stroke-linecap: square"/>
   </g>
   <g id="line2d_14">
    <path d="M 103.827273 544.558063 
L 108.270384 540.072022 
L 112.713495 535.585981 
L 117.156606 531.09994 
L 121.599717 526.613899 
L 126.042828 522.127858 
L 130.485939 517.641817 
L 134.92905 513.155776 
L 139.372161 508.669735 
L 143.815272 504.183694 
L 148.258383 499.697652 
L 152.701494 495.211611 
L 157.144605 490.72557 
L 161.587717 486.239529 
L 166.030828 481.753488 
L 170.473939 477.267447 
L 174.91705 472.781406 
L 179.360161 468.295365 
L 183.803272 463.809324 
L 188.246383 459.323283 
L 192.689494 454.837242 
L 197.132605 450.351201 
L 201.575716 445.86516 
L 206.018827 441.379119 
L 210.461938 436.893078 
L 214.905049 432.407037 
L 219.34816 427.920996 
L 223.791271 423.434955 
L 228.234382 418.948914 
L 232.677493 414.462873 
L 237.120605 409.976832 
L 241.563716 405.490791 
L 246.006827 401.00475 
L 250.449938 396.518709 
L 254.893049 392.032668 
L 259.33616 387.546627 
L 263.779271 383.060585 
L 268.222382 378.574544 
L 272.665493 374.088503 
L 277.108604 369.602462 
L 281.551715 365.116421 
L 285.994826 360.63038 
L 290.437937 356.144339 
L 294.881048 351.658298 
L 299.324159 347.172257 
L 303.76727 342.686216 
L 308.210382 338.200175 
L 312.653493 333.714134 
L 317.096604 329.228093 
L 321.539715 324.742052 
L 325.982826 320.256011 
L 330.425937 315.76997 
L 334.869048 311.283929 
L 339.312159 306.797888 
L 343.75527 302.311847 
L 348.198381 297.825806 
L 352.641492 293.339765 
L 357.084603 288.853724 
L 361.527714 284.367683 
L 365.970825 279.881642 
L 370.413936 275.395601 
L 374.857047 270.909559 
L 379.300158 266.423518 
L 383.74327 261.937477 
L 388.186381 257.451436 
L 392.629492 252.965395 
L 397.072603 248.479354 
L 401.515714 243.993313 
L 405.958825 239.507272 
L 410.401936 235.021231 
L 414.845047 230.53519 
L 419.288158 226.049149 
L 423.731269 221.563108 
L 428.17438 217.077067 
L 432.617491 212.591026 
L 437.060602 208.104985 
L 441.503713 203.618944 
L 445.946824 199.132903 
L 450.389935 194.646862 
L 454.833047 190.160821 
L 459.276158 185.67478 
L 463.719269 181.188739 
L 468.16238 176.702698 
L 472.605491 172.216657 
L 477.048602 167.730616 
L 481.491713 163.244575 
L 485.934824 158.758534 
L 490.377935 154.272492 
L 494.821046 149.786451 
L 499.264157 145.30041 
L 503.707268 140.814369 
L 508.150379 136.328328 
L 512.59349 131.842287 
L 517.036601 127.356246 
L 521.479712 122.870205 
L 525.922824 118.384164 
L 530.365935 113.898123 
L 534.809046 109.412082 
L 539.252157 104.926041 
L 543.695268 100.44 
" clip-path="url(#pa3534d67f5)" style="fill: none; stroke: #29b6f6; stroke-opacity: 0.5; stroke-width: 2; stroke-linecap: square"/>
   </g>
   <g id="line2d_15">
    <path d="M 103.827273 554.04 
L 108.354613 549.558522 
L 112.881954 545.077044 
L 117.409295 540.595566 
L 121.936635 536.114089 
L 126.463976 531.632611 
L 130.991317 527.151133 
L 135.518657 522.669655 
L 140.045998 518.188177 
L 144.573339 513.706699 
L 149.100679 509.225222 
L 153.62802 504.743744 
L 158.155361 500.262266 
L 162.682701 495.780788 
L 167.210042 491.29931 
L 171.737383 486.817832 
L 176.264723 482.336354 
L 180.792064 477.854877 
L 185.319405 473.373399 
L 189.846745 468.891921 
L 194.374086 464.410443 
L 198.901426 459.928965 
L 203.428767 455.447487 
L 207.956108 450.96601 
L 212.483448 446.484532 
L 217.010789 442.003054 
L 221.53813 437.521576 
L 226.06547 433.040098 
L 230.592811 428.55862 
L 235.120152 424.077143 
L 239.647492 419.595665 
L 244.174833 415.114187 
L 248.702174 410.632709 
L 253.229514 406.151231 
L 257.756855 401.669753 
L 262.284196 397.188275 
L 266.811536 392.706798 
L 271.338877 388.22532 
L 275.866218 383.743842 
L 280.393558 379.262364 
L 284.920899 374.780886 
L 289.44824 370.299408 
L 293.97558 365.817931 
L 298.502921 361.336453 
L 303.030262 356.854975 
L 307.557602 352.373497 
L 312.084943 347.892019 
L 316.612283 343.410541 
L 321.139624 338.929063 
L 325.666965 334.447586 
L 330.194305 329.966108 
L 334.721646 325.48463 
L 339.248987 321.003152 
L 343.776327 316.521674 
L 348.303668 312.040196 
L 352.831009 307.558719 
L 357.358349 303.077241 
L 361.88569 298.595763 
L 366.413031 294.114285 
L 370.940371 289.632807 
L 375.467712 285.151329 
L 379.995053 280.669852 
L 384.522393 276.188374 
L 389.049734 271.706896 
L 393.577075 267.225418 
L 398.104415 262.74394 
L 402.631756 258.262462 
L 407.159097 253.780984 
L 411.686437 249.299507 
L 416.213778 244.818029 
L 420.741119 240.336551 
L 425.268459 235.855073 
L 429.7958 231.373595 
L 434.32314 226.892117 
L 438.850481 222.41064 
L 443.377822 217.929162 
L 447.905162 213.447684 
L 452.432503 208.966206 
L 456.959844 204.484728 
L 461.487184 200.00325 
L 466.014525 195.521772 
L 470.541866 191.040295 
L 475.069206 186.558817 
L 479.596547 182.077339 
L 484.123888 177.595861 
L 488.651228 173.114383 
L 493.178569 168.632905 
L 497.70591 164.151428 
L 502.23325 159.66995 
L 506.760591 155.188472 
L 511.287932 150.706994 
L 515.815272 146.225516 
L 520.342613 141.744038 
L 524.869954 137.262561 
L 529.397294 132.781083 
L 533.924635 128.299605 
L 538.451976 123.818127 
L 542.979316 119.336649 
L 547.506657 114.855171 
L 552.033998 110.373693 
" clip-path="url(#pa3534d67f5)" style="fill: none; stroke: #ff7043; stroke-opacity: 0.5; stroke-width: 2; stroke-linecap: square"/>
   </g>
   <g id="line2d_16">
    <path d="M 103.827273 538.578578 
L 108.270384 534.17494 
L 112.713495 529.771303 
L 117.156606 525.367665 
L 121.599717 520.964027 
L 126.042828 516.56039 
L 130.485939 512.156752 
L 134.92905 507.753115 
L 139.372161 503.349477 
L 143.815272 498.94584 
L 148.258383 494.542202 
L 152.701494 490.138565 
L 157.144605 485.734927 
L 161.587717 481.33129 
L 166.030828 476.927652 
L 170.473939 472.524015 
L 174.91705 468.120377 
L 179.360161 463.71674 
L 183.803272 459.313102 
L 188.246383 454.909465 
L 192.689494 450.505827 
L 197.132605 446.10219 
L 201.575716 441.698552 
L 206.018827 437.294915 
L 210.461938 432.891277 
L 214.905049 428.48764 
L 219.34816 424.084002 
L 223.791271 419.680365 
L 228.234382 415.276727 
L 232.677493 410.87309 
L 237.120605 406.469452 
L 241.563716 402.065815 
L 246.006827 397.662177 
L 250.449938 393.25854 
L 254.893049 388.854902 
L 259.33616 384.451265 
L 263.779271 380.047627 
L 268.222382 375.64399 
L 272.665493 371.240352 
L 277.108604 366.836715 
L 281.551715 362.433077 
L 285.994826 358.02944 
L 290.437937 353.625802 
L 294.881048 349.222165 
L 299.324159 344.818527 
L 303.76727 340.41489 
L 308.210382 336.011252 
L 312.653493 331.607615 
L 317.096604 327.203977 
L 321.539715 322.80034 
L 325.982826 318.396702 
L 330.425937 313.993064 
L 334.869048 309.589427 
L 339.312159 305.185789 
L 343.75527 300.782152 
L 348.198381 296.378514 
L 352.641492 291.974877 
L 357.084603 287.571239 
L 361.527714 283.167602 
L 365.970825 278.763964 
L 370.413936 274.360327 
L 374.857047 269.956689 
L 379.300158 265.553052 
L 383.74327 261.149414 
L 388.186381 256.745777 
L 392.629492 252.342139 
L 397.072603 247.938502 
L 401.515714 243.534864 
L 405.958825 239.131227 
L 410.401936 234.727589 
L 414.845047 230.323952 
L 419.288158 225.920314 
L 423.731269 221.516677 
L 428.17438 217.113039 
L 432.617491 212.709402 
L 437.060602 208.305764 
L 441.503713 203.902127 
L 445.946824 199.498489 
L 450.389935 195.094852 
L 454.833047 190.691214 
L 459.276158 186.287577 
L 463.719269 181.883939 
L 468.16238 177.480302 
L 472.605491 173.076664 
L 477.048602 168.673027 
L 481.491713 164.269389 
L 485.934824 159.865752 
L 490.377935 155.462114 
L 494.821046 151.058477 
L 499.264157 146.654839 
L 503.707268 142.251202 
L 508.150379 137.847564 
L 512.59349 133.443927 
L 517.036601 129.040289 
L 521.479712 124.636652 
L 525.922824 120.233014 
L 530.365935 115.829376 
L 534.809046 111.425739 
L 539.252157 107.022101 
L 543.695268 102.618464 
" clip-path="url(#pa3534d67f5)" style="fill: none; stroke: #5c6bc0; stroke-opacity: 0.5; stroke-width: 2; stroke-linecap: square"/>
   </g>
   <g id="patch_3">
    <path d="M 81 576.72 
L 81 77.76 
" style="fill: none; stroke: #000000; stroke-width: 0.8; stroke-linejoin: miter; stroke-linecap: square"/>
   </g>
   <g id="patch_4">
    <path d="M 583.2 576.72 
L 583.2 77.76 
" style="fill: none; stroke: #000000; stroke-width: 0.8; stroke-linejoin: miter; stroke-linecap: square"/>
   </g>
   <g id="patch_5">
    <path d="M 81 576.72 
L 583.2 576.72 
" style="fill: none; stroke: #000000; stroke-width: 0.8; stroke-linejoin: miter; stroke-linecap: square"/>
   </g>
   <g id="patch_6">
    <path d="M 81 77.76 
L 583.2 77.76 
" style="fill: none; stroke: #000000; stroke-width: 0.8; stroke-linejoin: miter; stroke-linecap: square"/>
   </g>
   <g id="text_15">
    <!-- calibration curve -->
    <g transform="translate(281.626875 71.76) scale(0.12 -0.12)">
     <defs>
      <path id="DejaVuSans-63" d="M 3122 3366 
L 3122 2828 
Q 2878 2963 2633 3030 
Q 2388 3097 2138 3097 
Q 1578 3097 1268 2742 
Q 959 2388 959 1747 
Q 959 1106 1268 751 
Q 1578 397 2138 397 
Q 2388 397 2633 464 
Q 2878 531 3122 666 
L 3122 134 
Q 2881 22 2623 -34 
Q 2366 -91 2075 -91 
Q 1284 -91 818 406 
Q 353 903 353 1747 
Q 353 2603 823 3093 
Q 1294 3584 2113 3584 
Q 2378 3584 2631 3529 
Q 2884 3475 3122 3366 
z
" transform="scale(0.015625)"/>
      <path id="DejaVuSans-62" d="M 3116 1747 
Q 3116 2381 2855 2742 
Q 2594 3103 2138 3103 
Q 1681 3103 1420 2742 
Q 1159 2381 1159 1747 
Q 1159 1113 1420 752 
Q 1681 391 2138 391 
Q 2594 391 2855 752 
Q 3116 1113 3116 1747 
z
M 1159 2969 
Q 1341 3281 1617 3432 
Q 1894 3584 2278 3584 
Q 2916 3584 3314 3078 
Q 3713 2572 3713 1747 
Q 3713 922 3314 415 
Q 2916 -91 2278 -91 
Q 1894 -91 1617 61 
Q 1341 213 1159 525 
L 1159 0 
L 581 0 
L 581 4863 
L 1159 4863 
L 1159 2969 
z
" transform="scale(0.015625)"/>
      <path id="DejaVuSans-72" d="M 2631 2963 
Q 2534 3019 2420 3045 
Q 2306 3072 2169 3072 
Q 1681 3072 1420 2755 
Q 1159 2438 1159 1844 
L 1159 0 
L 581 0 
L 581 3500 
L 1159 3500 
L 1159 2956 
Q 1341 3275 1631 3429 
Q 1922 3584 2338 3584 
Q 2397 3584 2469 3576 
Q 2541 3569 2628 3553 
L 2631 2963 
z
" transform="scale(0.015625)"/>
      <path id="DejaVuSans-6e" d="M 3513 2113 
L 3513 0 
L 2938 0 
L 2938 2094 
Q 2938 2591 2744 2837 
Q 2550 3084 2163 3084 
Q 1697 3084 1428 2787 
Q 1159 2491 1159 1978 
L 1159 0 
L 581 0 
L 581 3500 
L 1159 3500 
L 1159 2956 
Q 1366 3272 1645 3428 
Q 1925 3584 2291 3584 
Q 2894 3584 3203 3211 
Q 3513 2838 3513 2113 
z
" transform="scale(0.015625)"/>
      <path id="DejaVuSans-75" d="M 544 1381 
L 544 3500 
L 1119 3500 
L 1119 1403 
Q 1119 906 1312 657 
Q 1506 409 1894 409 
Q 2359 409 2629 706 
Q 2900 1003 2900 1516 
L 2900 3500 
L 3475 3500 
L 3475 0 
L 2900 0 
L 2900 538 
Q 2691 219 2414 64 
Q 2138 -91 1772 -91 
Q 1169 -91 856 284 
Q 544 659 544 1381 
z
M 1991 3584 
L 1991 3584 
z
" transform="scale(0.015625)"/>
     </defs>
     <use xlink:href="#DejaVuSans-63"/>
     <use xlink:href="#DejaVuSans-61" x="54.980469"/>
     <use xlink:href="#DejaVuSans-6c" x="116.259766"/>
     <use xlink:href="#DejaVuSans-69" x="144.042969"/>
     <use xlink:href="#DejaVuSans-62" x="171.826172"/>
     <use xlink:href="#DejaVuSans-72" x="235.302734"/>
     <use xlink:href="#DejaVuSans-61" x="276.416016"/>
     <use xlink:href="#DejaVuSans-74" x="337.695312"/>
     <use xlink:href="#DejaVuSans-69" x="376.904297"/>
     <use xlink:href="#DejaVuSans-6f" x="404.6875"/>
     <use xlink:href="#DejaVuSans-6e" x="465.869141"/>
     <use xlink:href="#DejaVuSans-20" x="529.248047"/>
     <use xlink:href="#DejaVuSans-63" x="561.035156"/>
     <use xlink:href="#DejaVuSans-75" x="616.015625"/>
     <use xlink:href="#DejaVuSans-72" x="679.394531"/>
     <use xlink:href="#DejaVuSans-76" x="720.507812"/>
     <use xlink:href="#DejaVuSans-65" x="779.6875"/>
    </g>
   </g>
   <g id="legend_1">
    <g id="patch_7">
     <path d="M 88 144.4725 
L 130.448438 144.4725 
Q 132.448438 144.4725 132.448438 142.4725 
L 132.448438 84.76 
Q 132.448438 82.76 130.448438 82.76 
L 88 82.76 
Q 86 82.76 86 84.76 
L 86 142.4725 
Q 86 144.4725 88 144.4725 
z
" style="fill: #ffffff; opacity: 0.8; stroke: #cccccc; stroke-linejoin: miter"/>
    </g>
    <g id="PathCollection_1">
     <defs>
      <path id="m280c04da06" d="M 0 6.123724 
C 1.624031 6.123724 3.181764 5.47849 4.330127 4.330127 
C 5.47849 3.181764 6.123724 1.624031 6.123724 0 
C 6.123724 -1.624031 5.47849 -3.181764 4.330127 -4.330127 
C 3.181764 -5.47849 1.624031 -6.123724 0 -6.123724 
C -1.624031 -6.123724 -3.181764 -5.47849 -4.330127 -4.330127 
C -5.47849 -3.181764 -6.123724 -1.624031 -6.123724 0 
C -6.123724 1.624031 -5.47849 3.181764 -4.330127 4.330127 
C -3.181764 5.47849 -1.624031 6.123724 0 6.123724 
z
" style="stroke: #ffa726"/>
     </defs>
     <g>
      <use xlink:href="#m280c04da06" x="100" y="91.733437" style="fill: #ffffff; stroke: #ffa726"/>
     </g>
    </g>
    <g id="text_16">
     <!-- fl -->
     <g transform="translate(118 94.358437) scale(0.1 -0.1)">
      <defs>
       <path id="DejaVuSans-66" d="M 2375 4863 
L 2375 4384 
L 1825 4384 
Q 1516 4384 1395 4259 
Q 1275 4134 1275 3809 
L 1275 3500 
L 2222 3500 
L 2222 3053 
L 1275 3053 
L 1275 0 
L 697 0 
L 697 3053 
L 147 3053 
L 147 3500 
L 697 3500 
L 697 3744 
Q 697 4328 969 4595 
Q 1241 4863 1831 4863 
L 2375 4863 
z
" transform="scale(0.015625)"/>
      </defs>
      <use xlink:href="#DejaVuSans-66"/>
      <use xlink:href="#DejaVuSans-6c" x="35.205078"/>
     </g>
    </g>
    <g id="PathCollection_2">
     <defs>
      <path id="m775c44d914" d="M 0 6.123724 
C 1.624031 6.123724 3.181764 5.47849 4.330127 4.330127 
C 5.47849 3.181764 6.123724 1.624031 6.123724 0 
C 6.123724 -1.624031 5.47849 -3.181764 4.330127 -4.330127 
C 3.181764 -5.47849 1.624031 -6.123724 0 -6.123724 
C -1.624031 -6.123724 -3.181764 -5.47849 -4.330127 -4.330127 
C -5.47849 -3.181764 -6.123724 -1.624031 -6.123724 0 
C -6.123724 1.624031 -5.47849 3.181764 -4.330127 4.330127 
C -3.181764 5.47849 -1.624031 6.123724 0 6.123724 
z
" style="stroke: #29b6f6"/>
     </defs>
     <g>
      <use xlink:href="#m775c44d914" x="100" y="106.411562" style="fill: #ffffff; stroke: #29b6f6"/>
     </g>
    </g>
    <g id="text_17">
     <!-- fr -->
     <g transform="translate(118 109.036562) scale(0.1 -0.1)">
      <use xlink:href="#DejaVuSans-66"/>
      <use xlink:href="#DejaVuSans-72" x="35.205078"/>
     </g>
    </g>
    <g id="PathCollection_3">
     <defs>
      <path id="m5a250b15b0" d="M 0 6.123724 
C 1.624031 6.123724 3.181764 5.47849 4.330127 4.330127 
C 5.47849 3.181764 6.123724 1.624031 6.123724 0 
C 6.123724 -1.624031 5.47849 -3.181764 4.330127 -4.330127 
C 3.181764 -5.47849 1.624031 -6.123724 0 -6.123724 
C -1.624031 -6.123724 -3.181764 -5.47849 -4.330127 -4.330127 
C -5.47849 -3.181764 -6.123724 -1.624031 -6.123724 0 
C -6.123724 1.624031 -5.47849 3.181764 -4.330127 4.330127 
C -3.181764 5.47849 -1.624031 6.123724 0 6.123724 
z
" style="stroke: #ff7043"/>
     </defs>
     <g>
      <use xlink:href="#m5a250b15b0" x="100" y="121.089687" style="fill: #ffffff; stroke: #ff7043"/>
     </g>
    </g>
    <g id="text_18">
     <!-- hl -->
     <g transform="translate(118 123.714687) scale(0.1 -0.1)">
      <use xlink:href="#DejaVuSans-68"/>
      <use xlink:href="#DejaVuSans-6c" x="63.378906"/>
     </g>
    </g>
    <g id="PathCollection_4">
     <defs>
      <path id="m6f25080913" d="M 0 6.123724 
C 1.624031 6.123724 3.181764 5.47849 4.330127 4.330127 
C 5.47849 3.181764 6.123724 1.624031 6.123724 0 
C 6.123724 -1.624031 5.47849 -3.181764 4.330127 -4.330127 
C 3.181764 -5.47849 1.624031 -6.123724 0 -6.123724 
C -1.624031 -6.123724 -3.181764 -5.47849 -4.330127 -4.330127 
C -5.47849 -3.181764 -6.123724 -1.624031 -6.123724 0 
C -6.123724 1.624031 -5.47849 3.181764 -4.330127 4.330127 
C -3.181764 5.47849 -1.624031 6.123724 0 6.123724 
z
" style="stroke: #5c6bc0"/>
     </defs>
     <g>
      <use xlink:href="#m6f25080913" x="100" y="135.767812" style="fill: #ffffff; stroke: #5c6bc0"/>
     </g>
    </g>
    <g id="text_19">
     <!-- hr -->
     <g transform="translate(118 138.392812) scale(0.1 -0.1)">
      <use xlink:href="#DejaVuSans-68"/>
      <use xlink:href="#DejaVuSans-72" x="63.378906"/>
     </g>
    </g>
   </g>
   <g id="PathCollection_5">
    <g clip-path="url(#pa3534d67f5)">
     <use xlink:href="#m280c04da06" x="128.843462" y="529.826906" style="fill: #ffffff; stroke: #ffa726"/>
     <use xlink:href="#m280c04da06" x="145.520922" y="515.157546" style="fill: #ffffff; stroke: #ffa726"/>
     <use xlink:href="#m280c04da06" x="153.859651" y="500.488187" style="fill: #ffffff; stroke: #ffa726"/>
     <use xlink:href="#m280c04da06" x="180.960523" y="471.149468" style="fill: #ffffff; stroke: #ffa726"/>
     <use xlink:href="#m280c04da06" x="199.722665" y="456.480109" style="fill: #ffffff; stroke: #ffa726"/>
     <use xlink:href="#m280c04da06" x="214.315442" y="441.810749" style="fill: #ffffff; stroke: #ffa726"/>
     <use xlink:href="#m280c04da06" x="258.093773" y="397.802671" style="fill: #ffffff; stroke: #ffa726"/>
     <use xlink:href="#m280c04da06" x="276.855915" y="383.133312" style="fill: #ffffff; stroke: #ffa726"/>
     <use xlink:href="#m280c04da06" x="289.36401" y="368.463952" style="fill: #ffffff; stroke: #ffa726"/>
     <use xlink:href="#m280c04da06" x="335.227024" y="324.455874" style="fill: #ffffff; stroke: #ffa726"/>
     <use xlink:href="#m280c04da06" x="349.819801" y="309.786514" style="fill: #ffffff; stroke: #ffa726"/>
     <use xlink:href="#m280c04da06" x="366.49726" y="295.117155" style="fill: #ffffff; stroke: #ffa726"/>
     <use xlink:href="#m280c04da06" x="416.529639" y="251.109077" style="fill: #ffffff; stroke: #ffa726"/>
     <use xlink:href="#m280c04da06" x="431.122416" y="236.439717" style="fill: #ffffff; stroke: #ffa726"/>
     <use xlink:href="#m280c04da06" x="443.630511" y="221.770358" style="fill: #ffffff; stroke: #ffa726"/>
     <use xlink:href="#m280c04da06" x="458.223288" y="207.100998" style="fill: #ffffff; stroke: #ffa726"/>
     <use xlink:href="#m280c04da06" x="483.239477" y="177.762279" style="fill: #ffffff; stroke: #ffa726"/>
     <use xlink:href="#m280c04da06" x="560.372727" y="104.415482" style="fill: #ffffff; stroke: #ffa726"/>
    </g>
   </g>
   <g id="PathCollection_6">
    <g clip-path="url(#pa3534d67f5)">
     <use xlink:href="#m775c44d914" x="122.589415" y="529.826906" style="fill: #ffffff; stroke: #29b6f6"/>
     <use xlink:href="#m775c44d914" x="135.097509" y="515.157546" style="fill: #ffffff; stroke: #29b6f6"/>
     <use xlink:href="#m775c44d914" x="149.690286" y="500.488187" style="fill: #ffffff; stroke: #29b6f6"/>
     <use xlink:href="#m775c44d914" x="176.791158" y="471.149468" style="fill: #ffffff; stroke: #29b6f6"/>
     <use xlink:href="#m775c44d914" x="189.299253" y="456.480109" style="fill: #ffffff; stroke: #29b6f6"/>
     <use xlink:href="#m775c44d914" x="203.89203" y="441.810749" style="fill: #ffffff; stroke: #29b6f6"/>
     <use xlink:href="#m775c44d914" x="245.585679" y="397.802671" style="fill: #ffffff; stroke: #29b6f6"/>
     <use xlink:href="#m775c44d914" x="260.178456" y="383.133312" style="fill: #ffffff; stroke: #29b6f6"/>
     <use xlink:href="#m775c44d914" x="278.940598" y="368.463952" style="fill: #ffffff; stroke: #29b6f6"/>
     <use xlink:href="#m775c44d914" x="320.634247" y="324.455874" style="fill: #ffffff; stroke: #29b6f6"/>
     <use xlink:href="#m775c44d914" x="335.227024" y="309.786514" style="fill: #ffffff; stroke: #29b6f6"/>
     <use xlink:href="#m775c44d914" x="349.819801" y="295.117155" style="fill: #ffffff; stroke: #29b6f6"/>
     <use xlink:href="#m775c44d914" x="397.767497" y="251.109077" style="fill: #ffffff; stroke: #29b6f6"/>
     <use xlink:href="#m775c44d914" x="410.275592" y="236.439717" style="fill: #ffffff; stroke: #29b6f6"/>
     <use xlink:href="#m775c44d914" x="420.699004" y="221.770358" style="fill: #ffffff; stroke: #29b6f6"/>
     <use xlink:href="#m775c44d914" x="437.376463" y="207.100998" style="fill: #ffffff; stroke: #29b6f6"/>
     <use xlink:href="#m775c44d914" x="466.562017" y="177.762279" style="fill: #ffffff; stroke: #29b6f6"/>
     <use xlink:href="#m775c44d914" x="543.695268" y="104.415482" style="fill: #ffffff; stroke: #29b6f6"/>
    </g>
   </g>
   <g id="PathCollection_7">
    <g clip-path="url(#pa3534d67f5)">
     <use xlink:href="#m5a250b15b0" x="130.928144" y="529.826906" style="fill: #ffffff; stroke: #ff7043"/>
     <use xlink:href="#m5a250b15b0" x="141.351557" y="515.157546" style="fill: #ffffff; stroke: #ff7043"/>
     <use xlink:href="#m5a250b15b0" x="158.029016" y="500.488187" style="fill: #ffffff; stroke: #ff7043"/>
     <use xlink:href="#m5a250b15b0" x="187.21457" y="471.149468" style="fill: #ffffff; stroke: #ff7043"/>
     <use xlink:href="#m5a250b15b0" x="205.976712" y="456.480109" style="fill: #ffffff; stroke: #ff7043"/>
     <use xlink:href="#m5a250b15b0" x="214.315442" y="441.810749" style="fill: #ffffff; stroke: #ff7043"/>
     <use xlink:href="#m5a250b15b0" x="258.093773" y="397.802671" style="fill: #ffffff; stroke: #ff7043"/>
     <use xlink:href="#m5a250b15b0" x="276.855915" y="383.133312" style="fill: #ffffff; stroke: #ff7043"/>
     <use xlink:href="#m5a250b15b0" x="289.36401" y="368.463952" style="fill: #ffffff; stroke: #ff7043"/>
     <use xlink:href="#m5a250b15b0" x="333.142341" y="324.455874" style="fill: #ffffff; stroke: #ff7043"/>
     <use xlink:href="#m5a250b15b0" x="349.819801" y="309.786514" style="fill: #ffffff; stroke: #ff7043"/>
     <use xlink:href="#m5a250b15b0" x="362.327895" y="295.117155" style="fill: #ffffff; stroke: #ff7043"/>
     <use xlink:href="#m5a250b15b0" x="420.699004" y="251.109077" style="fill: #ffffff; stroke: #ff7043"/>
     <use xlink:href="#m5a250b15b0" x="429.037733" y="236.439717" style="fill: #ffffff; stroke: #ff7043"/>
     <use xlink:href="#m5a250b15b0" x="441.545828" y="221.770358" style="fill: #ffffff; stroke: #ff7043"/>
     <use xlink:href="#m5a250b15b0" x="458.223288" y="207.100998" style="fill: #ffffff; stroke: #ff7043"/>
     <use xlink:href="#m5a250b15b0" x="479.070112" y="177.762279" style="fill: #ffffff; stroke: #ff7043"/>
     <use xlink:href="#m5a250b15b0" x="552.033998" y="104.415482" style="fill: #ffffff; stroke: #ff7043"/>
    </g>
   </g>
   <g id="PathCollection_8">
    <g clip-path="url(#pa3534d67f5)">
     <use xlink:href="#m6f25080913" x="122.589415" y="529.826906" style="fill: #ffffff; stroke: #5c6bc0"/>
     <use xlink:href="#m6f25080913" x="135.097509" y="515.157546" style="fill: #ffffff; stroke: #5c6bc0"/>
     <use xlink:href="#m6f25080913" x="151.774969" y="500.488187" style="fill: #ffffff; stroke: #5c6bc0"/>
     <use xlink:href="#m6f25080913" x="166.367746" y="471.149468" style="fill: #ffffff; stroke: #5c6bc0"/>
     <use xlink:href="#m6f25080913" x="178.875841" y="456.480109" style="fill: #ffffff; stroke: #5c6bc0"/>
     <use xlink:href="#m6f25080913" x="193.468618" y="441.810749" style="fill: #ffffff; stroke: #5c6bc0"/>
     <use xlink:href="#m6f25080913" x="239.331631" y="397.802671" style="fill: #ffffff; stroke: #5c6bc0"/>
     <use xlink:href="#m6f25080913" x="258.093773" y="383.133312" style="fill: #ffffff; stroke: #5c6bc0"/>
     <use xlink:href="#m6f25080913" x="276.855915" y="368.463952" style="fill: #ffffff; stroke: #5c6bc0"/>
     <use xlink:href="#m6f25080913" x="314.380199" y="324.455874" style="fill: #ffffff; stroke: #5c6bc0"/>
     <use xlink:href="#m6f25080913" x="331.057659" y="309.786514" style="fill: #ffffff; stroke: #5c6bc0"/>
     <use xlink:href="#m6f25080913" x="347.735118" y="295.117155" style="fill: #ffffff; stroke: #5c6bc0"/>
     <use xlink:href="#m6f25080913" x="397.767497" y="251.109077" style="fill: #ffffff; stroke: #5c6bc0"/>
     <use xlink:href="#m6f25080913" x="412.360274" y="236.439717" style="fill: #ffffff; stroke: #5c6bc0"/>
     <use xlink:href="#m6f25080913" x="424.868369" y="221.770358" style="fill: #ffffff; stroke: #5c6bc0"/>
     <use xlink:href="#m6f25080913" x="439.461146" y="207.100998" style="fill: #ffffff; stroke: #5c6bc0"/>
     <use xlink:href="#m6f25080913" x="468.6467" y="177.762279" style="fill: #ffffff; stroke: #5c6bc0"/>
     <use xlink:href="#m6f25080913" x="543.695268" y="104.415482" style="fill: #ffffff; stroke: #5c6bc0"/>
    </g>
   </g>
  </g>
 </g>
 <defs>
  <clipPath id="pa3534d67f5">
   <rect x="81" y="77.76" width="502.2" height="498.96"/>
  </clipPath>
 </defs>
</svg>
