<?xml version="1.0" encoding="utf-8" standalone="no"?>
<!DOCTYPE svg PUBLIC "-//W3C//DTD SVG 1.1//EN"
  "http://www.w3.org/Graphics/SVG/1.1/DTD/svg11.dtd">
<!-- Created with matplotlib (https://matplotlib.org/) -->
<svg height="648pt" version="1.1" viewBox="0 0 648 648" width="648pt" xmlns="http://www.w3.org/2000/svg" xmlns:xlink="http://www.w3.org/1999/xlink">
 <defs>
  <style type="text/css">
*{stroke-linecap:butt;stroke-linejoin:round;white-space:pre;}
  </style>
 </defs>
 <g id="figure_1">
  <g id="patch_1">
   <path d="M 0 648 
L 648 648 
L 648 0 
L 0 0 
z
" style="fill:#ffffff;"/>
  </g>
  <g id="axes_1">
   <g id="patch_2">
    <path d="M 81 576.72 
L 583.2 576.72 
L 583.2 77.76 
L 81 77.76 
z
" style="fill:#ffffff;"/>
   </g>
   <g id="matplotlib.axis_1">
    <g id="xtick_1">
     <g id="line2d_1">
      <defs>
       <path d="M 0 0 
L 0 3.5 
" id="m0b94550b80" style="stroke:#000000;stroke-width:0.8;"/>
      </defs>
      <g>
       <use style="stroke:#000000;stroke-width:0.8;" x="103.827273" xlink:href="#m0b94550b80" y="576.72"/>
      </g>
     </g>
     <g id="text_1">
      <!-- 0.0 -->
      <defs>
       <path d="M 31.78125 66.40625 
Q 24.171875 66.40625 20.328125 58.90625 
Q 16.5 51.421875 16.5 36.375 
Q 16.5 21.390625 20.328125 13.890625 
Q 24.171875 6.390625 31.78125 6.390625 
Q 39.453125 6.390625 43.28125 13.890625 
Q 47.125 21.390625 47.125 36.375 
Q 47.125 51.421875 43.28125 58.90625 
Q 39.453125 66.40625 31.78125 66.40625 
z
M 31.78125 74.21875 
Q 44.046875 74.21875 50.515625 64.515625 
Q 56.984375 54.828125 56.984375 36.375 
Q 56.984375 17.96875 50.515625 8.265625 
Q 44.046875 -1.421875 31.78125 -1.421875 
Q 19.53125 -1.421875 13.0625 8.265625 
Q 6.59375 17.96875 6.59375 36.375 
Q 6.59375 54.828125 13.0625 64.515625 
Q 19.53125 74.21875 31.78125 74.21875 
z
" id="DejaVuSans-48"/>
       <path d="M 10.6875 12.40625 
L 21 12.40625 
L 21 0 
L 10.6875 0 
z
" id="DejaVuSans-46"/>
      </defs>
      <g transform="translate(95.87571 591.318438)scale(0.1 -0.1)">
       <use xlink:href="#DejaVuSans-48"/>
       <use x="63.623047" xlink:href="#DejaVuSans-46"/>
       <use x="95.410156" xlink:href="#DejaVuSans-48"/>
      </g>
     </g>
    </g>
    <g id="xtick_2">
     <g id="line2d_2">
      <g>
       <use style="stroke:#000000;stroke-width:0.8;" x="206.013121" xlink:href="#m0b94550b80" y="576.72"/>
      </g>
     </g>
     <g id="text_2">
      <!-- 0.1 -->
      <defs>
       <path d="M 12.40625 8.296875 
L 28.515625 8.296875 
L 28.515625 63.921875 
L 10.984375 60.40625 
L 10.984375 69.390625 
L 28.421875 72.90625 
L 38.28125 72.90625 
L 38.28125 8.296875 
L 54.390625 8.296875 
L 54.390625 0 
L 12.40625 0 
z
" id="DejaVuSans-49"/>
      </defs>
      <g transform="translate(198.061558 591.318438)scale(0.1 -0.1)">
       <use xlink:href="#DejaVuSans-48"/>
       <use x="63.623047" xlink:href="#DejaVuSans-46"/>
       <use x="95.410156" xlink:href="#DejaVuSans-49"/>
      </g>
     </g>
    </g>
    <g id="xtick_3">
     <g id="line2d_3">
      <g>
       <use style="stroke:#000000;stroke-width:0.8;" x="308.198969" xlink:href="#m0b94550b80" y="576.72"/>
      </g>
     </g>
     <g id="text_3">
      <!-- 0.2 -->
      <defs>
       <path d="M 19.1875 8.296875 
L 53.609375 8.296875 
L 53.609375 0 
L 7.328125 0 
L 7.328125 8.296875 
Q 12.9375 14.109375 22.625 23.890625 
Q 32.328125 33.6875 34.8125 36.53125 
Q 39.546875 41.84375 41.421875 45.53125 
Q 43.3125 49.21875 43.3125 52.78125 
Q 43.3125 58.59375 39.234375 62.25 
Q 35.15625 65.921875 28.609375 65.921875 
Q 23.96875 65.921875 18.8125 64.3125 
Q 13.671875 62.703125 7.8125 59.421875 
L 7.8125 69.390625 
Q 13.765625 71.78125 18.9375 73 
Q 24.125 74.21875 28.421875 74.21875 
Q 39.75 74.21875 46.484375 68.546875 
Q 53.21875 62.890625 53.21875 53.421875 
Q 53.21875 48.921875 51.53125 44.890625 
Q 49.859375 40.875 45.40625 35.40625 
Q 44.1875 33.984375 37.640625 27.21875 
Q 31.109375 20.453125 19.1875 8.296875 
z
" id="DejaVuSans-50"/>
      </defs>
      <g transform="translate(300.247406 591.318438)scale(0.1 -0.1)">
       <use xlink:href="#DejaVuSans-48"/>
       <use x="63.623047" xlink:href="#DejaVuSans-46"/>
       <use x="95.410156" xlink:href="#DejaVuSans-50"/>
      </g>
     </g>
    </g>
    <g id="xtick_4">
     <g id="line2d_4">
      <g>
       <use style="stroke:#000000;stroke-width:0.8;" x="410.384817" xlink:href="#m0b94550b80" y="576.72"/>
      </g>
     </g>
     <g id="text_4">
      <!-- 0.3 -->
      <defs>
       <path d="M 40.578125 39.3125 
Q 47.65625 37.796875 51.625 33 
Q 55.609375 28.21875 55.609375 21.1875 
Q 55.609375 10.40625 48.1875 4.484375 
Q 40.765625 -1.421875 27.09375 -1.421875 
Q 22.515625 -1.421875 17.65625 -0.515625 
Q 12.796875 0.390625 7.625 2.203125 
L 7.625 11.71875 
Q 11.71875 9.328125 16.59375 8.109375 
Q 21.484375 6.890625 26.8125 6.890625 
Q 36.078125 6.890625 40.9375 10.546875 
Q 45.796875 14.203125 45.796875 21.1875 
Q 45.796875 27.640625 41.28125 31.265625 
Q 36.765625 34.90625 28.71875 34.90625 
L 20.21875 34.90625 
L 20.21875 43.015625 
L 29.109375 43.015625 
Q 36.375 43.015625 40.234375 45.921875 
Q 44.09375 48.828125 44.09375 54.296875 
Q 44.09375 59.90625 40.109375 62.90625 
Q 36.140625 65.921875 28.71875 65.921875 
Q 24.65625 65.921875 20.015625 65.03125 
Q 15.375 64.15625 9.8125 62.3125 
L 9.8125 71.09375 
Q 15.4375 72.65625 20.34375 73.4375 
Q 25.25 74.21875 29.59375 74.21875 
Q 40.828125 74.21875 47.359375 69.109375 
Q 53.90625 64.015625 53.90625 55.328125 
Q 53.90625 49.265625 50.4375 45.09375 
Q 46.96875 40.921875 40.578125 39.3125 
z
" id="DejaVuSans-51"/>
      </defs>
      <g transform="translate(402.433254 591.318438)scale(0.1 -0.1)">
       <use xlink:href="#DejaVuSans-48"/>
       <use x="63.623047" xlink:href="#DejaVuSans-46"/>
       <use x="95.410156" xlink:href="#DejaVuSans-51"/>
      </g>
     </g>
    </g>
    <g id="xtick_5">
     <g id="line2d_5">
      <g>
       <use style="stroke:#000000;stroke-width:0.8;" x="512.570665" xlink:href="#m0b94550b80" y="576.72"/>
      </g>
     </g>
     <g id="text_5">
      <!-- 0.4 -->
      <defs>
       <path d="M 37.796875 64.3125 
L 12.890625 25.390625 
L 37.796875 25.390625 
z
M 35.203125 72.90625 
L 47.609375 72.90625 
L 47.609375 25.390625 
L 58.015625 25.390625 
L 58.015625 17.1875 
L 47.609375 17.1875 
L 47.609375 0 
L 37.796875 0 
L 37.796875 17.1875 
L 4.890625 17.1875 
L 4.890625 26.703125 
z
" id="DejaVuSans-52"/>
      </defs>
      <g transform="translate(504.619102 591.318438)scale(0.1 -0.1)">
       <use xlink:href="#DejaVuSans-48"/>
       <use x="63.623047" xlink:href="#DejaVuSans-46"/>
       <use x="95.410156" xlink:href="#DejaVuSans-52"/>
      </g>
     </g>
    </g>
    <g id="text_6">
     <!-- voltage -->
     <defs>
      <path d="M 2.984375 54.6875 
L 12.5 54.6875 
L 29.59375 8.796875 
L 46.6875 54.6875 
L 56.203125 54.6875 
L 35.6875 0 
L 23.484375 0 
z
" id="DejaVuSans-118"/>
      <path d="M 30.609375 48.390625 
Q 23.390625 48.390625 19.1875 42.75 
Q 14.984375 37.109375 14.984375 27.296875 
Q 14.984375 17.484375 19.15625 11.84375 
Q 23.34375 6.203125 30.609375 6.203125 
Q 37.796875 6.203125 41.984375 11.859375 
Q 46.1875 17.53125 46.1875 27.296875 
Q 46.1875 37.015625 41.984375 42.703125 
Q 37.796875 48.390625 30.609375 48.390625 
z
M 30.609375 56 
Q 42.328125 56 49.015625 48.375 
Q 55.71875 40.765625 55.71875 27.296875 
Q 55.71875 13.875 49.015625 6.21875 
Q 42.328125 -1.421875 30.609375 -1.421875 
Q 18.84375 -1.421875 12.171875 6.21875 
Q 5.515625 13.875 5.515625 27.296875 
Q 5.515625 40.765625 12.171875 48.375 
Q 18.84375 56 30.609375 56 
z
" id="DejaVuSans-111"/>
      <path d="M 9.421875 75.984375 
L 18.40625 75.984375 
L 18.40625 0 
L 9.421875 0 
z
" id="DejaVuSans-108"/>
      <path d="M 18.3125 70.21875 
L 18.3125 54.6875 
L 36.8125 54.6875 
L 36.8125 47.703125 
L 18.3125 47.703125 
L 18.3125 18.015625 
Q 18.3125 11.328125 20.140625 9.421875 
Q 21.96875 7.515625 27.59375 7.515625 
L 36.8125 7.515625 
L 36.8125 0 
L 27.59375 0 
Q 17.1875 0 13.234375 3.875 
Q 9.28125 7.765625 9.28125 18.015625 
L 9.28125 47.703125 
L 2.6875 47.703125 
L 2.6875 54.6875 
L 9.28125 54.6875 
L 9.28125 70.21875 
z
" id="DejaVuSans-116"/>
      <path d="M 34.28125 27.484375 
Q 23.390625 27.484375 19.1875 25 
Q 14.984375 22.515625 14.984375 16.5 
Q 14.984375 11.71875 18.140625 8.90625 
Q 21.296875 6.109375 26.703125 6.109375 
Q 34.1875 6.109375 38.703125 11.40625 
Q 43.21875 16.703125 43.21875 25.484375 
L 43.21875 27.484375 
z
M 52.203125 31.203125 
L 52.203125 0 
L 43.21875 0 
L 43.21875 8.296875 
Q 40.140625 3.328125 35.546875 0.953125 
Q 30.953125 -1.421875 24.3125 -1.421875 
Q 15.921875 -1.421875 10.953125 3.296875 
Q 6 8.015625 6 15.921875 
Q 6 25.140625 12.171875 29.828125 
Q 18.359375 34.515625 30.609375 34.515625 
L 43.21875 34.515625 
L 43.21875 35.40625 
Q 43.21875 41.609375 39.140625 45 
Q 35.0625 48.390625 27.6875 48.390625 
Q 23 48.390625 18.546875 47.265625 
Q 14.109375 46.140625 10.015625 43.890625 
L 10.015625 52.203125 
Q 14.9375 54.109375 19.578125 55.046875 
Q 24.21875 56 28.609375 56 
Q 40.484375 56 46.34375 49.84375 
Q 52.203125 43.703125 52.203125 31.203125 
z
" id="DejaVuSans-97"/>
      <path d="M 45.40625 27.984375 
Q 45.40625 37.75 41.375 43.109375 
Q 37.359375 48.484375 30.078125 48.484375 
Q 22.859375 48.484375 18.828125 43.109375 
Q 14.796875 37.75 14.796875 27.984375 
Q 14.796875 18.265625 18.828125 12.890625 
Q 22.859375 7.515625 30.078125 7.515625 
Q 37.359375 7.515625 41.375 12.890625 
Q 45.40625 18.265625 45.40625 27.984375 
z
M 54.390625 6.78125 
Q 54.390625 -7.171875 48.1875 -13.984375 
Q 42 -20.796875 29.203125 -20.796875 
Q 24.46875 -20.796875 20.265625 -20.09375 
Q 16.0625 -19.390625 12.109375 -17.921875 
L 12.109375 -9.1875 
Q 16.0625 -11.328125 19.921875 -12.34375 
Q 23.78125 -13.375 27.78125 -13.375 
Q 36.625 -13.375 41.015625 -8.765625 
Q 45.40625 -4.15625 45.40625 5.171875 
L 45.40625 9.625 
Q 42.625 4.78125 38.28125 2.390625 
Q 33.9375 0 27.875 0 
Q 17.828125 0 11.671875 7.65625 
Q 5.515625 15.328125 5.515625 27.984375 
Q 5.515625 40.671875 11.671875 48.328125 
Q 17.828125 56 27.875 56 
Q 33.9375 56 38.28125 53.609375 
Q 42.625 51.21875 45.40625 46.390625 
L 45.40625 54.6875 
L 54.390625 54.6875 
z
" id="DejaVuSans-103"/>
      <path d="M 56.203125 29.59375 
L 56.203125 25.203125 
L 14.890625 25.203125 
Q 15.484375 15.921875 20.484375 11.0625 
Q 25.484375 6.203125 34.421875 6.203125 
Q 39.59375 6.203125 44.453125 7.46875 
Q 49.3125 8.734375 54.109375 11.28125 
L 54.109375 2.78125 
Q 49.265625 0.734375 44.1875 -0.34375 
Q 39.109375 -1.421875 33.890625 -1.421875 
Q 20.796875 -1.421875 13.15625 6.1875 
Q 5.515625 13.8125 5.515625 26.8125 
Q 5.515625 40.234375 12.765625 48.109375 
Q 20.015625 56 32.328125 56 
Q 43.359375 56 49.78125 48.890625 
Q 56.203125 41.796875 56.203125 29.59375 
z
M 47.21875 32.234375 
Q 47.125 39.59375 43.09375 43.984375 
Q 39.0625 48.390625 32.421875 48.390625 
Q 24.90625 48.390625 20.390625 44.140625 
Q 15.875 39.890625 15.1875 32.171875 
z
" id="DejaVuSans-101"/>
     </defs>
     <g transform="translate(313.417188 604.996562)scale(0.1 -0.1)">
      <use xlink:href="#DejaVuSans-118"/>
      <use x="59.179688" xlink:href="#DejaVuSans-111"/>
      <use x="120.361328" xlink:href="#DejaVuSans-108"/>
      <use x="148.144531" xlink:href="#DejaVuSans-116"/>
      <use x="187.353516" xlink:href="#DejaVuSans-97"/>
      <use x="248.632812" xlink:href="#DejaVuSans-103"/>
      <use x="312.109375" xlink:href="#DejaVuSans-101"/>
     </g>
    </g>
   </g>
   <g id="matplotlib.axis_2">
    <g id="ytick_1">
     <g id="line2d_6">
      <defs>
       <path d="M 0 0 
L -3.5 0 
" id="m3ce78beffb" style="stroke:#000000;stroke-width:0.8;"/>
      </defs>
      <g>
       <use style="stroke:#000000;stroke-width:0.8;" x="81" xlink:href="#m3ce78beffb" y="544.505462"/>
      </g>
     </g>
     <g id="text_7">
      <!-- 0 -->
      <g transform="translate(67.6375 548.304681)scale(0.1 -0.1)">
       <use xlink:href="#DejaVuSans-48"/>
      </g>
     </g>
    </g>
    <g id="ytick_2">
     <g id="line2d_7">
      <g>
       <use style="stroke:#000000;stroke-width:0.8;" x="81" xlink:href="#m3ce78beffb" y="471.229346"/>
      </g>
     </g>
     <g id="text_8">
      <!-- 5 -->
      <defs>
       <path d="M 10.796875 72.90625 
L 49.515625 72.90625 
L 49.515625 64.59375 
L 19.828125 64.59375 
L 19.828125 46.734375 
Q 21.96875 47.46875 24.109375 47.828125 
Q 26.265625 48.1875 28.421875 48.1875 
Q 40.625 48.1875 47.75 41.5 
Q 54.890625 34.8125 54.890625 23.390625 
Q 54.890625 11.625 47.5625 5.09375 
Q 40.234375 -1.421875 26.90625 -1.421875 
Q 22.3125 -1.421875 17.546875 -0.640625 
Q 12.796875 0.140625 7.71875 1.703125 
L 7.71875 11.625 
Q 12.109375 9.234375 16.796875 8.0625 
Q 21.484375 6.890625 26.703125 6.890625 
Q 35.15625 6.890625 40.078125 11.328125 
Q 45.015625 15.765625 45.015625 23.390625 
Q 45.015625 31 40.078125 35.4375 
Q 35.15625 39.890625 26.703125 39.890625 
Q 22.75 39.890625 18.8125 39.015625 
Q 14.890625 38.140625 10.796875 36.28125 
z
" id="DejaVuSans-53"/>
      </defs>
      <g transform="translate(67.6375 475.028565)scale(0.1 -0.1)">
       <use xlink:href="#DejaVuSans-53"/>
      </g>
     </g>
    </g>
    <g id="ytick_3">
     <g id="line2d_8">
      <g>
       <use style="stroke:#000000;stroke-width:0.8;" x="81" xlink:href="#m3ce78beffb" y="397.953231"/>
      </g>
     </g>
     <g id="text_9">
      <!-- 10 -->
      <g transform="translate(61.275 401.752449)scale(0.1 -0.1)">
       <use xlink:href="#DejaVuSans-49"/>
       <use x="63.623047" xlink:href="#DejaVuSans-48"/>
      </g>
     </g>
    </g>
    <g id="ytick_4">
     <g id="line2d_9">
      <g>
       <use style="stroke:#000000;stroke-width:0.8;" x="81" xlink:href="#m3ce78beffb" y="324.677115"/>
      </g>
     </g>
     <g id="text_10">
      <!-- 15 -->
      <g transform="translate(61.275 328.476334)scale(0.1 -0.1)">
       <use xlink:href="#DejaVuSans-49"/>
       <use x="63.623047" xlink:href="#DejaVuSans-53"/>
      </g>
     </g>
    </g>
    <g id="ytick_5">
     <g id="line2d_10">
      <g>
       <use style="stroke:#000000;stroke-width:0.8;" x="81" xlink:href="#m3ce78beffb" y="251.400999"/>
      </g>
     </g>
     <g id="text_11">
      <!-- 20 -->
      <g transform="translate(61.275 255.200218)scale(0.1 -0.1)">
       <use xlink:href="#DejaVuSans-50"/>
       <use x="63.623047" xlink:href="#DejaVuSans-48"/>
      </g>
     </g>
    </g>
    <g id="ytick_6">
     <g id="line2d_11">
      <g>
       <use style="stroke:#000000;stroke-width:0.8;" x="81" xlink:href="#m3ce78beffb" y="178.124883"/>
      </g>
     </g>
     <g id="text_12">
      <!-- 25 -->
      <g transform="translate(61.275 181.924102)scale(0.1 -0.1)">
       <use xlink:href="#DejaVuSans-50"/>
       <use x="63.623047" xlink:href="#DejaVuSans-53"/>
      </g>
     </g>
    </g>
    <g id="ytick_7">
     <g id="line2d_12">
      <g>
       <use style="stroke:#000000;stroke-width:0.8;" x="81" xlink:href="#m3ce78beffb" y="104.848767"/>
      </g>
     </g>
     <g id="text_13">
      <!-- 30 -->
      <g transform="translate(61.275 108.647986)scale(0.1 -0.1)">
       <use xlink:href="#DejaVuSans-51"/>
       <use x="63.623047" xlink:href="#DejaVuSans-48"/>
      </g>
     </g>
    </g>
    <g id="text_14">
     <!-- weight (g) -->
     <defs>
      <path d="M 4.203125 54.6875 
L 13.1875 54.6875 
L 24.421875 12.015625 
L 35.59375 54.6875 
L 46.1875 54.6875 
L 57.421875 12.015625 
L 68.609375 54.6875 
L 77.59375 54.6875 
L 63.28125 0 
L 52.6875 0 
L 40.921875 44.828125 
L 29.109375 0 
L 18.5 0 
z
" id="DejaVuSans-119"/>
      <path d="M 9.421875 54.6875 
L 18.40625 54.6875 
L 18.40625 0 
L 9.421875 0 
z
M 9.421875 75.984375 
L 18.40625 75.984375 
L 18.40625 64.59375 
L 9.421875 64.59375 
z
" id="DejaVuSans-105"/>
      <path d="M 54.890625 33.015625 
L 54.890625 0 
L 45.90625 0 
L 45.90625 32.71875 
Q 45.90625 40.484375 42.875 44.328125 
Q 39.84375 48.1875 33.796875 48.1875 
Q 26.515625 48.1875 22.3125 43.546875 
Q 18.109375 38.921875 18.109375 30.90625 
L 18.109375 0 
L 9.078125 0 
L 9.078125 75.984375 
L 18.109375 75.984375 
L 18.109375 46.1875 
Q 21.34375 51.125 25.703125 53.5625 
Q 30.078125 56 35.796875 56 
Q 45.21875 56 50.046875 50.171875 
Q 54.890625 44.34375 54.890625 33.015625 
z
" id="DejaVuSans-104"/>
      <path id="DejaVuSans-32"/>
      <path d="M 31 75.875 
Q 24.46875 64.65625 21.28125 53.65625 
Q 18.109375 42.671875 18.109375 31.390625 
Q 18.109375 20.125 21.3125 9.0625 
Q 24.515625 -2 31 -13.1875 
L 23.1875 -13.1875 
Q 15.875 -1.703125 12.234375 9.375 
Q 8.59375 20.453125 8.59375 31.390625 
Q 8.59375 42.28125 12.203125 53.3125 
Q 15.828125 64.359375 23.1875 75.875 
z
" id="DejaVuSans-40"/>
      <path d="M 8.015625 75.875 
L 15.828125 75.875 
Q 23.140625 64.359375 26.78125 53.3125 
Q 30.421875 42.28125 30.421875 31.390625 
Q 30.421875 20.453125 26.78125 9.375 
Q 23.140625 -1.703125 15.828125 -13.1875 
L 8.015625 -13.1875 
Q 14.5 -2 17.703125 9.0625 
Q 20.90625 20.125 20.90625 31.390625 
Q 20.90625 42.671875 17.703125 53.65625 
Q 14.5 64.65625 8.015625 75.875 
z
" id="DejaVuSans-41"/>
     </defs>
     <g transform="translate(55.195312 352.762656)rotate(-90)scale(0.1 -0.1)">
      <use xlink:href="#DejaVuSans-119"/>
      <use x="81.787109" xlink:href="#DejaVuSans-101"/>
      <use x="143.310547" xlink:href="#DejaVuSans-105"/>
      <use x="171.09375" xlink:href="#DejaVuSans-103"/>
      <use x="234.570312" xlink:href="#DejaVuSans-104"/>
      <use x="297.949219" xlink:href="#DejaVuSans-116"/>
      <use x="337.158203" xlink:href="#DejaVuSans-32"/>
      <use x="368.945312" xlink:href="#DejaVuSans-40"/>
      <use x="407.958984" xlink:href="#DejaVuSans-103"/>
      <use x="471.435547" xlink:href="#DejaVuSans-41"/>
     </g>
    </g>
   </g>
   <g id="line2d_13">
    <path clip-path="url(#p089df562fb)" d="M 103.827273 550.75639 
L 108.348222 546.272199 
L 112.869172 541.788008 
L 117.390122 537.303816 
L 121.911071 532.819625 
L 126.432021 528.335434 
L 130.952971 523.851243 
L 135.47392 519.367052 
L 139.99487 514.882861 
L 144.515819 510.39867 
L 149.036769 505.914478 
L 153.557719 501.430287 
L 158.078668 496.946096 
L 162.599618 492.461905 
L 167.120568 487.977714 
L 171.641517 483.493523 
L 176.162467 479.009332 
L 180.683417 474.52514 
L 185.204366 470.040949 
L 189.725316 465.556758 
L 194.246265 461.072567 
L 198.767215 456.588376 
L 203.288165 452.104185 
L 207.809114 447.619994 
L 212.330064 443.135802 
L 216.851014 438.651611 
L 221.371963 434.16742 
L 225.892913 429.683229 
L 230.413863 425.199038 
L 234.934812 420.714847 
L 239.455762 416.230656 
L 243.976712 411.746464 
L 248.497661 407.262273 
L 253.018611 402.778082 
L 257.53956 398.293891 
L 262.06051 393.8097 
L 266.58146 389.325509 
L 271.102409 384.841318 
L 275.623359 380.357126 
L 280.144309 375.872935 
L 284.665258 371.388744 
L 289.186208 366.904553 
L 293.707158 362.420362 
L 298.228107 357.936171 
L 302.749057 353.45198 
L 307.270006 348.967788 
L 311.790956 344.483597 
L 316.311906 339.999406 
L 320.832855 335.515215 
L 325.353805 331.031024 
L 329.874755 326.546833 
L 334.395704 322.062642 
L 338.916654 317.57845 
L 343.437604 313.094259 
L 347.958553 308.610068 
L 352.479503 304.125877 
L 357.000452 299.641686 
L 361.521402 295.157495 
L 366.042352 290.673304 
L 370.563301 286.189112 
L 375.084251 281.704921 
L 379.605201 277.22073 
L 384.12615 272.736539 
L 388.6471 268.252348 
L 393.16805 263.768157 
L 397.688999 259.283966 
L 402.209949 254.799774 
L 406.730898 250.315583 
L 411.251848 245.831392 
L 415.772798 241.347201 
L 420.293747 236.86301 
L 424.814697 232.378819 
L 429.335647 227.894628 
L 433.856596 223.410436 
L 438.377546 218.926245 
L 442.898496 214.442054 
L 447.419445 209.957863 
L 451.940395 205.473672 
L 456.461344 200.989481 
L 460.982294 196.50529 
L 465.503244 192.021098 
L 470.024193 187.536907 
L 474.545143 183.052716 
L 479.066093 178.568525 
L 483.587042 174.084334 
L 488.107992 169.600143 
L 492.628942 165.115951 
L 497.149891 160.63176 
L 501.670841 156.147569 
L 506.191791 151.663378 
L 510.71274 147.179187 
L 515.23369 142.694996 
L 519.754639 138.210805 
L 524.275589 133.726613 
L 528.796539 129.242422 
L 533.317488 124.758231 
L 537.838438 120.27404 
L 542.359388 115.789849 
L 546.880337 111.305658 
L 551.401287 106.821467 
" style="fill:none;stroke:#ffa726;stroke-linecap:square;stroke-opacity:0.5;stroke-width:2;"/>
   </g>
   <g id="line2d_14">
    <path clip-path="url(#p089df562fb)" d="M 103.827273 544.5672 
L 108.183074 540.085482 
L 112.538874 535.603764 
L 116.894675 531.122046 
L 121.250476 526.640328 
L 125.606277 522.15861 
L 129.962077 517.676892 
L 134.317878 513.195174 
L 138.673679 508.713456 
L 143.02948 504.231738 
L 147.385281 499.75002 
L 151.741081 495.268302 
L 156.096882 490.786584 
L 160.452683 486.304866 
L 164.808484 481.823148 
L 169.164285 477.34143 
L 173.520085 472.859712 
L 177.875886 468.377994 
L 182.231687 463.896276 
L 186.587488 459.414558 
L 190.943289 454.93284 
L 195.299089 450.451122 
L 199.65489 445.969404 
L 204.010691 441.487686 
L 208.366492 437.005968 
L 212.722293 432.52425 
L 217.078093 428.042532 
L 221.433894 423.560814 
L 225.789695 419.079096 
L 230.145496 414.597378 
L 234.501297 410.11566 
L 238.857097 405.633942 
L 243.212898 401.152224 
L 247.568699 396.670506 
L 251.9245 392.188788 
L 256.2803 387.70707 
L 260.636101 383.225351 
L 264.991902 378.743633 
L 269.347703 374.261915 
L 273.703504 369.780197 
L 278.059304 365.298479 
L 282.415105 360.816761 
L 286.770906 356.335043 
L 291.126707 351.853325 
L 295.482508 347.371607 
L 299.838308 342.889889 
L 304.194109 338.408171 
L 308.54991 333.926453 
L 312.905711 329.444735 
L 317.261512 324.963017 
L 321.617312 320.481299 
L 325.973113 315.999581 
L 330.328914 311.517863 
L 334.684715 307.036145 
L 339.040516 302.554427 
L 343.396316 298.072709 
L 347.752117 293.590991 
L 352.107918 289.109273 
L 356.463719 284.627555 
L 360.81952 280.145837 
L 365.17532 275.664119 
L 369.531121 271.182401 
L 373.886922 266.700683 
L 378.242723 262.218965 
L 382.598523 257.737247 
L 386.954324 253.255529 
L 391.310125 248.773811 
L 395.665926 244.292093 
L 400.021727 239.810375 
L 404.377527 235.328657 
L 408.733328 230.846939 
L 413.089129 226.365221 
L 417.44493 221.883503 
L 421.800731 217.401785 
L 426.156531 212.920067 
L 430.512332 208.438349 
L 434.868133 203.956631 
L 439.223934 199.474913 
L 443.579735 194.993195 
L 447.935535 190.511477 
L 452.291336 186.029759 
L 456.647137 181.548041 
L 461.002938 177.066323 
L 465.358739 172.584604 
L 469.714539 168.102886 
L 474.07034 163.621168 
L 478.426141 159.13945 
L 482.781942 154.657732 
L 487.137742 150.176014 
L 491.493543 145.694296 
L 495.849344 141.212578 
L 500.205145 136.73086 
L 504.560946 132.249142 
L 508.916746 127.767424 
L 513.272547 123.285706 
L 517.628348 118.803988 
L 521.984149 114.32227 
L 526.33995 109.840552 
L 530.69575 105.358834 
L 535.051551 100.877116 
" style="fill:none;stroke:#29b6f6;stroke-linecap:square;stroke-opacity:0.5;stroke-width:2;"/>
   </g>
   <g id="line2d_15">
    <path clip-path="url(#p089df562fb)" d="M 103.827273 554.04 
L 108.265648 549.562841 
L 112.704023 545.085682 
L 117.142398 540.608522 
L 121.580774 536.131363 
L 126.019149 531.654204 
L 130.457524 527.177045 
L 134.895899 522.699885 
L 139.334274 518.222726 
L 143.77265 513.745567 
L 148.211025 509.268408 
L 152.6494 504.791249 
L 157.087775 500.314089 
L 161.526151 495.83693 
L 165.964526 491.359771 
L 170.402901 486.882612 
L 174.841276 482.405452 
L 179.279651 477.928293 
L 183.718027 473.451134 
L 188.156402 468.973975 
L 192.594777 464.496816 
L 197.033152 460.019656 
L 201.471527 455.542497 
L 205.909903 451.065338 
L 210.348278 446.588179 
L 214.786653 442.111019 
L 219.225028 437.63386 
L 223.663404 433.156701 
L 228.101779 428.679542 
L 232.540154 424.202383 
L 236.978529 419.725223 
L 241.416904 415.248064 
L 245.85528 410.770905 
L 250.293655 406.293746 
L 254.73203 401.816586 
L 259.170405 397.339427 
L 263.60878 392.862268 
L 268.047156 388.385109 
L 272.485531 383.90795 
L 276.923906 379.43079 
L 281.362281 374.953631 
L 285.800657 370.476472 
L 290.239032 365.999313 
L 294.677407 361.522153 
L 299.115782 357.044994 
L 303.554157 352.567835 
L 307.992533 348.090676 
L 312.430908 343.613517 
L 316.869283 339.136357 
L 321.307658 334.659198 
L 325.746034 330.182039 
L 330.184409 325.70488 
L 334.622784 321.22772 
L 339.061159 316.750561 
L 343.499534 312.273402 
L 347.93791 307.796243 
L 352.376285 303.319083 
L 356.81466 298.841924 
L 361.253035 294.364765 
L 365.69141 289.887606 
L 370.129786 285.410447 
L 374.568161 280.933287 
L 379.006536 276.456128 
L 383.444911 271.978969 
L 387.883287 267.50181 
L 392.321662 263.02465 
L 396.760037 258.547491 
L 401.198412 254.070332 
L 405.636787 249.593173 
L 410.075163 245.116014 
L 414.513538 240.638854 
L 418.951913 236.161695 
L 423.390288 231.684536 
L 427.828663 227.207377 
L 432.267039 222.730217 
L 436.705414 218.253058 
L 441.143789 213.775899 
L 445.582164 209.29874 
L 450.02054 204.821581 
L 454.458915 200.344421 
L 458.89729 195.867262 
L 463.335665 191.390103 
L 467.77404 186.912944 
L 472.212416 182.435784 
L 476.650791 177.958625 
L 481.089166 173.481466 
L 485.527541 169.004307 
L 489.965916 164.527148 
L 494.404292 160.049988 
L 498.842667 155.572829 
L 503.281042 151.09567 
L 507.719417 146.618511 
L 512.157793 142.141351 
L 516.596168 137.664192 
L 521.034543 133.187033 
L 525.472918 128.709874 
L 529.911293 124.232715 
L 534.349669 119.755555 
L 538.788044 115.278396 
L 543.226419 110.801237 
" style="fill:none;stroke:#ff7043;stroke-linecap:square;stroke-opacity:0.5;stroke-width:2;"/>
   </g>
   <g id="line2d_16">
    <path clip-path="url(#p089df562fb)" d="M 103.827273 538.593477 
L 108.183074 534.194083 
L 112.538874 529.794689 
L 116.894675 525.395295 
L 121.250476 520.995901 
L 125.606277 516.596508 
L 129.962077 512.197114 
L 134.317878 507.79772 
L 138.673679 503.398326 
L 143.02948 498.998932 
L 147.385281 494.599538 
L 151.741081 490.200144 
L 156.096882 485.80075 
L 160.452683 481.401356 
L 164.808484 477.001962 
L 169.164285 472.602569 
L 173.520085 468.203175 
L 177.875886 463.803781 
L 182.231687 459.404387 
L 186.587488 455.004993 
L 190.943289 450.605599 
L 195.299089 446.206205 
L 199.65489 441.806811 
L 204.010691 437.407417 
L 208.366492 433.008023 
L 212.722293 428.60863 
L 217.078093 424.209236 
L 221.433894 419.809842 
L 225.789695 415.410448 
L 230.145496 411.011054 
L 234.501297 406.61166 
L 238.857097 402.212266 
L 243.212898 397.812872 
L 247.568699 393.413478 
L 251.9245 389.014084 
L 256.2803 384.614691 
L 260.636101 380.215297 
L 264.991902 375.815903 
L 269.347703 371.416509 
L 273.703504 367.017115 
L 278.059304 362.617721 
L 282.415105 358.218327 
L 286.770906 353.818933 
L 291.126707 349.419539 
L 295.482508 345.020145 
L 299.838308 340.620752 
L 304.194109 336.221358 
L 308.54991 331.821964 
L 312.905711 327.42257 
L 317.261512 323.023176 
L 321.617312 318.623782 
L 325.973113 314.224388 
L 330.328914 309.824994 
L 334.684715 305.4256 
L 339.040516 301.026206 
L 343.396316 296.626812 
L 347.752117 292.227419 
L 352.107918 287.828025 
L 356.463719 283.428631 
L 360.81952 279.029237 
L 365.17532 274.629843 
L 369.531121 270.230449 
L 373.886922 265.831055 
L 378.242723 261.431661 
L 382.598523 257.032267 
L 386.954324 252.632873 
L 391.310125 248.23348 
L 395.665926 243.834086 
L 400.021727 239.434692 
L 404.377527 235.035298 
L 408.733328 230.635904 
L 413.089129 226.23651 
L 417.44493 221.837116 
L 421.800731 217.437722 
L 426.156531 213.038328 
L 430.512332 208.638934 
L 434.868133 204.239541 
L 439.223934 199.840147 
L 443.579735 195.440753 
L 447.935535 191.041359 
L 452.291336 186.641965 
L 456.647137 182.242571 
L 461.002938 177.843177 
L 465.358739 173.443783 
L 469.714539 169.044389 
L 474.07034 164.644995 
L 478.426141 160.245602 
L 482.781942 155.846208 
L 487.137742 151.446814 
L 491.493543 147.04742 
L 495.849344 142.648026 
L 500.205145 138.248632 
L 504.560946 133.849238 
L 508.916746 129.449844 
L 513.272547 125.05045 
L 517.628348 120.651056 
L 521.984149 116.251663 
L 526.33995 111.852269 
L 530.69575 107.452875 
L 535.051551 103.053481 
" style="fill:none;stroke:#5c6bc0;stroke-linecap:square;stroke-opacity:0.5;stroke-width:2;"/>
   </g>
   <g id="patch_3">
    <path d="M 81 576.72 
L 81 77.76 
" style="fill:none;stroke:#000000;stroke-linecap:square;stroke-linejoin:miter;stroke-width:0.8;"/>
   </g>
   <g id="patch_4">
    <path d="M 583.2 576.72 
L 583.2 77.76 
" style="fill:none;stroke:#000000;stroke-linecap:square;stroke-linejoin:miter;stroke-width:0.8;"/>
   </g>
   <g id="patch_5">
    <path d="M 81 576.72 
L 583.2 576.72 
" style="fill:none;stroke:#000000;stroke-linecap:square;stroke-linejoin:miter;stroke-width:0.8;"/>
   </g>
   <g id="patch_6">
    <path d="M 81 77.76 
L 583.2 77.76 
" style="fill:none;stroke:#000000;stroke-linecap:square;stroke-linejoin:miter;stroke-width:0.8;"/>
   </g>
   <g id="text_15">
    <!-- calibration curve -->
    <defs>
     <path d="M 48.78125 52.59375 
L 48.78125 44.1875 
Q 44.96875 46.296875 41.140625 47.34375 
Q 37.3125 48.390625 33.40625 48.390625 
Q 24.65625 48.390625 19.8125 42.84375 
Q 14.984375 37.3125 14.984375 27.296875 
Q 14.984375 17.28125 19.8125 11.734375 
Q 24.65625 6.203125 33.40625 6.203125 
Q 37.3125 6.203125 41.140625 7.25 
Q 44.96875 8.296875 48.78125 10.40625 
L 48.78125 2.09375 
Q 45.015625 0.34375 40.984375 -0.53125 
Q 36.96875 -1.421875 32.421875 -1.421875 
Q 20.0625 -1.421875 12.78125 6.34375 
Q 5.515625 14.109375 5.515625 27.296875 
Q 5.515625 40.671875 12.859375 48.328125 
Q 20.21875 56 33.015625 56 
Q 37.15625 56 41.109375 55.140625 
Q 45.0625 54.296875 48.78125 52.59375 
z
" id="DejaVuSans-99"/>
     <path d="M 48.6875 27.296875 
Q 48.6875 37.203125 44.609375 42.84375 
Q 40.53125 48.484375 33.40625 48.484375 
Q 26.265625 48.484375 22.1875 42.84375 
Q 18.109375 37.203125 18.109375 27.296875 
Q 18.109375 17.390625 22.1875 11.75 
Q 26.265625 6.109375 33.40625 6.109375 
Q 40.53125 6.109375 44.609375 11.75 
Q 48.6875 17.390625 48.6875 27.296875 
z
M 18.109375 46.390625 
Q 20.953125 51.265625 25.265625 53.625 
Q 29.59375 56 35.59375 56 
Q 45.5625 56 51.78125 48.09375 
Q 58.015625 40.1875 58.015625 27.296875 
Q 58.015625 14.40625 51.78125 6.484375 
Q 45.5625 -1.421875 35.59375 -1.421875 
Q 29.59375 -1.421875 25.265625 0.953125 
Q 20.953125 3.328125 18.109375 8.203125 
L 18.109375 0 
L 9.078125 0 
L 9.078125 75.984375 
L 18.109375 75.984375 
z
" id="DejaVuSans-98"/>
     <path d="M 41.109375 46.296875 
Q 39.59375 47.171875 37.8125 47.578125 
Q 36.03125 48 33.890625 48 
Q 26.265625 48 22.1875 43.046875 
Q 18.109375 38.09375 18.109375 28.8125 
L 18.109375 0 
L 9.078125 0 
L 9.078125 54.6875 
L 18.109375 54.6875 
L 18.109375 46.1875 
Q 20.953125 51.171875 25.484375 53.578125 
Q 30.03125 56 36.53125 56 
Q 37.453125 56 38.578125 55.875 
Q 39.703125 55.765625 41.0625 55.515625 
z
" id="DejaVuSans-114"/>
     <path d="M 54.890625 33.015625 
L 54.890625 0 
L 45.90625 0 
L 45.90625 32.71875 
Q 45.90625 40.484375 42.875 44.328125 
Q 39.84375 48.1875 33.796875 48.1875 
Q 26.515625 48.1875 22.3125 43.546875 
Q 18.109375 38.921875 18.109375 30.90625 
L 18.109375 0 
L 9.078125 0 
L 9.078125 54.6875 
L 18.109375 54.6875 
L 18.109375 46.1875 
Q 21.34375 51.125 25.703125 53.5625 
Q 30.078125 56 35.796875 56 
Q 45.21875 56 50.046875 50.171875 
Q 54.890625 44.34375 54.890625 33.015625 
z
" id="DejaVuSans-110"/>
     <path d="M 8.5 21.578125 
L 8.5 54.6875 
L 17.484375 54.6875 
L 17.484375 21.921875 
Q 17.484375 14.15625 20.5 10.265625 
Q 23.53125 6.390625 29.59375 6.390625 
Q 36.859375 6.390625 41.078125 11.03125 
Q 45.3125 15.671875 45.3125 23.6875 
L 45.3125 54.6875 
L 54.296875 54.6875 
L 54.296875 0 
L 45.3125 0 
L 45.3125 8.40625 
Q 42.046875 3.421875 37.71875 1 
Q 33.40625 -1.421875 27.6875 -1.421875 
Q 18.265625 -1.421875 13.375 4.4375 
Q 8.5 10.296875 8.5 21.578125 
z
M 31.109375 56 
z
" id="DejaVuSans-117"/>
    </defs>
    <g transform="translate(281.626875 71.76)scale(0.12 -0.12)">
     <use xlink:href="#DejaVuSans-99"/>
     <use x="54.980469" xlink:href="#DejaVuSans-97"/>
     <use x="116.259766" xlink:href="#DejaVuSans-108"/>
     <use x="144.042969" xlink:href="#DejaVuSans-105"/>
     <use x="171.826172" xlink:href="#DejaVuSans-98"/>
     <use x="235.302734" xlink:href="#DejaVuSans-114"/>
     <use x="276.416016" xlink:href="#DejaVuSans-97"/>
     <use x="337.695312" xlink:href="#DejaVuSans-116"/>
     <use x="376.904297" xlink:href="#DejaVuSans-105"/>
     <use x="404.6875" xlink:href="#DejaVuSans-111"/>
     <use x="465.869141" xlink:href="#DejaVuSans-110"/>
     <use x="529.248047" xlink:href="#DejaVuSans-32"/>
     <use x="561.035156" xlink:href="#DejaVuSans-99"/>
     <use x="616.015625" xlink:href="#DejaVuSans-117"/>
     <use x="679.394531" xlink:href="#DejaVuSans-114"/>
     <use x="720.507812" xlink:href="#DejaVuSans-118"/>
     <use x="779.6875" xlink:href="#DejaVuSans-101"/>
    </g>
   </g>
   <g id="legend_1">
    <g id="patch_7">
     <path d="M 88 144.4725 
L 130.448438 144.4725 
Q 132.448438 144.4725 132.448438 142.4725 
L 132.448438 84.76 
Q 132.448438 82.76 130.448438 82.76 
L 88 82.76 
Q 86 82.76 86 84.76 
L 86 142.4725 
Q 86 144.4725 88 144.4725 
z
" style="fill:#ffffff;opacity:0.8;stroke:#cccccc;stroke-linejoin:miter;"/>
    </g>
    <g id="PathCollection_1">
     <defs>
      <path d="M 0 6.123724 
C 1.624031 6.123724 3.181764 5.47849 4.330127 4.330127 
C 5.47849 3.181764 6.123724 1.624031 6.123724 0 
C 6.123724 -1.624031 5.47849 -3.181764 4.330127 -4.330127 
C 3.181764 -5.47849 1.624031 -6.123724 0 -6.123724 
C -1.624031 -6.123724 -3.181764 -5.47849 -4.330127 -4.330127 
C -5.47849 -3.181764 -6.123724 -1.624031 -6.123724 0 
C -6.123724 1.624031 -5.47849 3.181764 -4.330127 4.330127 
C -3.181764 5.47849 -1.624031 6.123724 0 6.123724 
z
" id="m9e5e55bb9b" style="stroke:#ffa726;"/>
     </defs>
     <g>
      <use style="fill:#ffffff;stroke:#ffa726;" x="100" xlink:href="#m9e5e55bb9b" y="91.733437"/>
     </g>
    </g>
    <g id="text_16">
     <!-- fl -->
     <defs>
      <path d="M 37.109375 75.984375 
L 37.109375 68.5 
L 28.515625 68.5 
Q 23.6875 68.5 21.796875 66.546875 
Q 19.921875 64.59375 19.921875 59.515625 
L 19.921875 54.6875 
L 34.71875 54.6875 
L 34.71875 47.703125 
L 19.921875 47.703125 
L 19.921875 0 
L 10.890625 0 
L 10.890625 47.703125 
L 2.296875 47.703125 
L 2.296875 54.6875 
L 10.890625 54.6875 
L 10.890625 58.5 
Q 10.890625 67.625 15.140625 71.796875 
Q 19.390625 75.984375 28.609375 75.984375 
z
" id="DejaVuSans-102"/>
     </defs>
     <g transform="translate(118 94.358437)scale(0.1 -0.1)">
      <use xlink:href="#DejaVuSans-102"/>
      <use x="35.205078" xlink:href="#DejaVuSans-108"/>
     </g>
    </g>
    <g id="PathCollection_2">
     <defs>
      <path d="M 0 6.123724 
C 1.624031 6.123724 3.181764 5.47849 4.330127 4.330127 
C 5.47849 3.181764 6.123724 1.624031 6.123724 0 
C 6.123724 -1.624031 5.47849 -3.181764 4.330127 -4.330127 
C 3.181764 -5.47849 1.624031 -6.123724 0 -6.123724 
C -1.624031 -6.123724 -3.181764 -5.47849 -4.330127 -4.330127 
C -5.47849 -3.181764 -6.123724 -1.624031 -6.123724 0 
C -6.123724 1.624031 -5.47849 3.181764 -4.330127 4.330127 
C -3.181764 5.47849 -1.624031 6.123724 0 6.123724 
z
" id="ma0ec4db53f" style="stroke:#29b6f6;"/>
     </defs>
     <g>
      <use style="fill:#ffffff;stroke:#29b6f6;" x="100" xlink:href="#ma0ec4db53f" y="106.411562"/>
     </g>
    </g>
    <g id="text_17">
     <!-- fr -->
     <g transform="translate(118 109.036562)scale(0.1 -0.1)">
      <use xlink:href="#DejaVuSans-102"/>
      <use x="35.205078" xlink:href="#DejaVuSans-114"/>
     </g>
    </g>
    <g id="PathCollection_3">
     <defs>
      <path d="M 0 6.123724 
C 1.624031 6.123724 3.181764 5.47849 4.330127 4.330127 
C 5.47849 3.181764 6.123724 1.624031 6.123724 0 
C 6.123724 -1.624031 5.47849 -3.181764 4.330127 -4.330127 
C 3.181764 -5.47849 1.624031 -6.123724 0 -6.123724 
C -1.624031 -6.123724 -3.181764 -5.47849 -4.330127 -4.330127 
C -5.47849 -3.181764 -6.123724 -1.624031 -6.123724 0 
C -6.123724 1.624031 -5.47849 3.181764 -4.330127 4.330127 
C -3.181764 5.47849 -1.624031 6.123724 0 6.123724 
z
" id="m2c88086a55" style="stroke:#ff7043;"/>
     </defs>
     <g>
      <use style="fill:#ffffff;stroke:#ff7043;" x="100" xlink:href="#m2c88086a55" y="121.089687"/>
     </g>
    </g>
    <g id="text_18">
     <!-- hl -->
     <g transform="translate(118 123.714687)scale(0.1 -0.1)">
      <use xlink:href="#DejaVuSans-104"/>
      <use x="63.378906" xlink:href="#DejaVuSans-108"/>
     </g>
    </g>
    <g id="PathCollection_4">
     <defs>
      <path d="M 0 6.123724 
C 1.624031 6.123724 3.181764 5.47849 4.330127 4.330127 
C 5.47849 3.181764 6.123724 1.624031 6.123724 0 
C 6.123724 -1.624031 5.47849 -3.181764 4.330127 -4.330127 
C 3.181764 -5.47849 1.624031 -6.123724 0 -6.123724 
C -1.624031 -6.123724 -3.181764 -5.47849 -4.330127 -4.330127 
C -5.47849 -3.181764 -6.123724 -1.624031 -6.123724 0 
C -6.123724 1.624031 -5.47849 3.181764 -4.330127 4.330127 
C -3.181764 5.47849 -1.624031 6.123724 0 6.123724 
z
" id="maeb4ca47c7" style="stroke:#5c6bc0;"/>
     </defs>
     <g>
      <use style="fill:#ffffff;stroke:#5c6bc0;" x="100" xlink:href="#maeb4ca47c7" y="135.767812"/>
     </g>
    </g>
    <g id="text_19">
     <!-- hr -->
     <g transform="translate(118 138.392812)scale(0.1 -0.1)">
      <use xlink:href="#DejaVuSans-104"/>
      <use x="63.378906" xlink:href="#DejaVuSans-114"/>
     </g>
    </g>
   </g>
   <g id="PathCollection_5">
    <g clip-path="url(#p089df562fb)">
     <use style="fill:#ffffff;stroke:#ffa726;" x="128.351876" xlink:href="#m9e5e55bb9b" y="529.850239"/>
     <use style="fill:#ffffff;stroke:#ffa726;" x="144.701612" xlink:href="#m9e5e55bb9b" y="515.195016"/>
     <use style="fill:#ffffff;stroke:#ffa726;" x="152.87648" xlink:href="#m9e5e55bb9b" y="500.539793"/>
     <use style="fill:#ffffff;stroke:#ffa726;" x="179.4448" xlink:href="#m9e5e55bb9b" y="471.229346"/>
     <use style="fill:#ffffff;stroke:#ffa726;" x="197.838253" xlink:href="#m9e5e55bb9b" y="456.574123"/>
     <use style="fill:#ffffff;stroke:#ffa726;" x="212.144272" xlink:href="#m9e5e55bb9b" y="441.9189"/>
     <use style="fill:#ffffff;stroke:#ffa726;" x="255.062328" xlink:href="#m9e5e55bb9b" y="397.953231"/>
     <use style="fill:#ffffff;stroke:#ffa726;" x="273.45578" xlink:href="#m9e5e55bb9b" y="383.298008"/>
     <use style="fill:#ffffff;stroke:#ffa726;" x="285.718082" xlink:href="#m9e5e55bb9b" y="368.642784"/>
     <use style="fill:#ffffff;stroke:#ffa726;" x="330.679855" xlink:href="#m9e5e55bb9b" y="324.677115"/>
     <use style="fill:#ffffff;stroke:#ffa726;" x="344.985874" xlink:href="#m9e5e55bb9b" y="310.021892"/>
     <use style="fill:#ffffff;stroke:#ffa726;" x="361.33561" xlink:href="#m9e5e55bb9b" y="295.366669"/>
     <use style="fill:#ffffff;stroke:#ffa726;" x="410.384817" xlink:href="#m9e5e55bb9b" y="251.400999"/>
     <use style="fill:#ffffff;stroke:#ffa726;" x="424.690835" xlink:href="#m9e5e55bb9b" y="236.745776"/>
     <use style="fill:#ffffff;stroke:#ffa726;" x="436.953137" xlink:href="#m9e5e55bb9b" y="222.090553"/>
     <use style="fill:#ffffff;stroke:#ffa726;" x="451.259156" xlink:href="#m9e5e55bb9b" y="207.43533"/>
     <use style="fill:#ffffff;stroke:#ffa726;" x="475.783759" xlink:href="#m9e5e55bb9b" y="178.124883"/>
     <use style="fill:#ffffff;stroke:#ffa726;" x="551.401287" xlink:href="#m9e5e55bb9b" y="104.848767"/>
    </g>
   </g>
   <g id="PathCollection_6">
    <g clip-path="url(#p089df562fb)">
     <use style="fill:#ffffff;stroke:#29b6f6;" x="122.220725" xlink:href="#ma0ec4db53f" y="529.850239"/>
     <use style="fill:#ffffff;stroke:#29b6f6;" x="134.483027" xlink:href="#ma0ec4db53f" y="515.195016"/>
     <use style="fill:#ffffff;stroke:#29b6f6;" x="148.789046" xlink:href="#ma0ec4db53f" y="500.539793"/>
     <use style="fill:#ffffff;stroke:#29b6f6;" x="175.357366" xlink:href="#ma0ec4db53f" y="471.229346"/>
     <use style="fill:#ffffff;stroke:#29b6f6;" x="187.619668" xlink:href="#ma0ec4db53f" y="456.574123"/>
     <use style="fill:#ffffff;stroke:#29b6f6;" x="201.925687" xlink:href="#ma0ec4db53f" y="441.9189"/>
     <use style="fill:#ffffff;stroke:#29b6f6;" x="242.800026" xlink:href="#ma0ec4db53f" y="397.953231"/>
     <use style="fill:#ffffff;stroke:#29b6f6;" x="257.106045" xlink:href="#ma0ec4db53f" y="383.298008"/>
     <use style="fill:#ffffff;stroke:#29b6f6;" x="275.499497" xlink:href="#ma0ec4db53f" y="368.642784"/>
     <use style="fill:#ffffff;stroke:#29b6f6;" x="316.373837" xlink:href="#ma0ec4db53f" y="324.677115"/>
     <use style="fill:#ffffff;stroke:#29b6f6;" x="330.679855" xlink:href="#ma0ec4db53f" y="310.021892"/>
     <use style="fill:#ffffff;stroke:#29b6f6;" x="344.985874" xlink:href="#ma0ec4db53f" y="295.366669"/>
     <use style="fill:#ffffff;stroke:#29b6f6;" x="391.991364" xlink:href="#ma0ec4db53f" y="251.400999"/>
     <use style="fill:#ffffff;stroke:#29b6f6;" x="404.253666" xlink:href="#ma0ec4db53f" y="236.745776"/>
     <use style="fill:#ffffff;stroke:#29b6f6;" x="414.472251" xlink:href="#ma0ec4db53f" y="222.090553"/>
     <use style="fill:#ffffff;stroke:#29b6f6;" x="430.821986" xlink:href="#ma0ec4db53f" y="207.43533"/>
     <use style="fill:#ffffff;stroke:#29b6f6;" x="459.434024" xlink:href="#ma0ec4db53f" y="178.124883"/>
     <use style="fill:#ffffff;stroke:#29b6f6;" x="535.051551" xlink:href="#ma0ec4db53f" y="104.848767"/>
    </g>
   </g>
   <g id="PathCollection_7">
    <g clip-path="url(#p089df562fb)">
     <use style="fill:#ffffff;stroke:#ff7043;" x="130.395593" xlink:href="#m2c88086a55" y="529.850239"/>
     <use style="fill:#ffffff;stroke:#ff7043;" x="140.614178" xlink:href="#m2c88086a55" y="515.195016"/>
     <use style="fill:#ffffff;stroke:#ff7043;" x="156.963914" xlink:href="#m2c88086a55" y="500.539793"/>
     <use style="fill:#ffffff;stroke:#ff7043;" x="185.575951" xlink:href="#m2c88086a55" y="471.229346"/>
     <use style="fill:#ffffff;stroke:#ff7043;" x="203.969404" xlink:href="#m2c88086a55" y="456.574123"/>
     <use style="fill:#ffffff;stroke:#ff7043;" x="212.144272" xlink:href="#m2c88086a55" y="441.9189"/>
     <use style="fill:#ffffff;stroke:#ff7043;" x="255.062328" xlink:href="#m2c88086a55" y="397.953231"/>
     <use style="fill:#ffffff;stroke:#ff7043;" x="273.45578" xlink:href="#m2c88086a55" y="383.298008"/>
     <use style="fill:#ffffff;stroke:#ff7043;" x="285.718082" xlink:href="#m2c88086a55" y="368.642784"/>
     <use style="fill:#ffffff;stroke:#ff7043;" x="328.636138" xlink:href="#m2c88086a55" y="324.677115"/>
     <use style="fill:#ffffff;stroke:#ff7043;" x="344.985874" xlink:href="#m2c88086a55" y="310.021892"/>
     <use style="fill:#ffffff;stroke:#ff7043;" x="357.248176" xlink:href="#m2c88086a55" y="295.366669"/>
     <use style="fill:#ffffff;stroke:#ff7043;" x="414.472251" xlink:href="#m2c88086a55" y="251.400999"/>
     <use style="fill:#ffffff;stroke:#ff7043;" x="422.647118" xlink:href="#m2c88086a55" y="236.745776"/>
     <use style="fill:#ffffff;stroke:#ff7043;" x="434.90942" xlink:href="#m2c88086a55" y="222.090553"/>
     <use style="fill:#ffffff;stroke:#ff7043;" x="451.259156" xlink:href="#m2c88086a55" y="207.43533"/>
     <use style="fill:#ffffff;stroke:#ff7043;" x="471.696325" xlink:href="#m2c88086a55" y="178.124883"/>
     <use style="fill:#ffffff;stroke:#ff7043;" x="543.226419" xlink:href="#m2c88086a55" y="104.848767"/>
    </g>
   </g>
   <g id="PathCollection_8">
    <g clip-path="url(#p089df562fb)">
     <use style="fill:#ffffff;stroke:#5c6bc0;" x="122.220725" xlink:href="#maeb4ca47c7" y="529.850239"/>
     <use style="fill:#ffffff;stroke:#5c6bc0;" x="134.483027" xlink:href="#maeb4ca47c7" y="515.195016"/>
     <use style="fill:#ffffff;stroke:#5c6bc0;" x="150.832763" xlink:href="#maeb4ca47c7" y="500.539793"/>
     <use style="fill:#ffffff;stroke:#5c6bc0;" x="165.138782" xlink:href="#maeb4ca47c7" y="471.229346"/>
     <use style="fill:#ffffff;stroke:#5c6bc0;" x="177.401083" xlink:href="#maeb4ca47c7" y="456.574123"/>
     <use style="fill:#ffffff;stroke:#5c6bc0;" x="191.707102" xlink:href="#maeb4ca47c7" y="441.9189"/>
     <use style="fill:#ffffff;stroke:#5c6bc0;" x="236.668875" xlink:href="#maeb4ca47c7" y="397.953231"/>
     <use style="fill:#ffffff;stroke:#5c6bc0;" x="255.062328" xlink:href="#maeb4ca47c7" y="383.298008"/>
     <use style="fill:#ffffff;stroke:#5c6bc0;" x="273.45578" xlink:href="#maeb4ca47c7" y="368.642784"/>
     <use style="fill:#ffffff;stroke:#5c6bc0;" x="310.242686" xlink:href="#maeb4ca47c7" y="324.677115"/>
     <use style="fill:#ffffff;stroke:#5c6bc0;" x="326.592421" xlink:href="#maeb4ca47c7" y="310.021892"/>
     <use style="fill:#ffffff;stroke:#5c6bc0;" x="342.942157" xlink:href="#maeb4ca47c7" y="295.366669"/>
     <use style="fill:#ffffff;stroke:#5c6bc0;" x="391.991364" xlink:href="#maeb4ca47c7" y="251.400999"/>
     <use style="fill:#ffffff;stroke:#5c6bc0;" x="406.297383" xlink:href="#maeb4ca47c7" y="236.745776"/>
     <use style="fill:#ffffff;stroke:#5c6bc0;" x="418.559685" xlink:href="#maeb4ca47c7" y="222.090553"/>
     <use style="fill:#ffffff;stroke:#5c6bc0;" x="432.865703" xlink:href="#maeb4ca47c7" y="207.43533"/>
     <use style="fill:#ffffff;stroke:#5c6bc0;" x="461.477741" xlink:href="#maeb4ca47c7" y="178.124883"/>
     <use style="fill:#ffffff;stroke:#5c6bc0;" x="535.051551" xlink:href="#maeb4ca47c7" y="104.848767"/>
    </g>
   </g>
  </g>
 </g>
 <defs>
  <clipPath id="p089df562fb">
   <rect height="498.96" width="502.2" x="81" y="77.76"/>
  </clipPath>
 </defs>
</svg>
